{
date = "2013-03-12 14:36:32 +0200";
familyName = "Open Sans Hebrew";
fontMaster = (
{
alignmentZones = (
"{1567, 16}",
"{1462, 22}",
"{1290, 20}",
"{1087, 22}",
"{0, -31}",
"{-492, -46}"
);
ascender = 1567;
capHeight = 1462;
descender = "-492";
id = UUID0;
italicAngle = 12;
weight = Light;
xHeight = 1087;
}
);
glyphs = (
{
glyphname = A;
lastChange = "2013-03-09 11:19:16 +0200";
layers = (
{
layerId = UUID0;
name = "Light Italic";
paths = (
{
closed = 1;
nodes = (
"874 0 LINE",
"979 0 LINE",
"778 1468 LINE",
"711 1468 LINE",
"-111 0 LINE",
"6 0 LINE",
"293 520 LINE",
"805 520 LINE"
);
},
{
closed = 1;
nodes = (
"344 612 LINE",
"525 943 OFFCURVE",
"627 1130 OFFCURVE",
"650 1175 CURVE SMOOTH",
"673 1220 OFFCURVE",
"695 1263 OFFCURVE",
"715 1305 CURVE",
"720 1198 OFFCURVE",
"733 1064 OFFCURVE",
"754 903 CURVE SMOOTH",
"793 612 LINE"
);
}
);
width = 1059;
}
);
unicode = 0041;
},
{
glyphname = AE;
lastChange = "2013-03-09 11:19:16 +0200";
layers = (
{
layerId = UUID0;
name = "Light Italic";
paths = (
{
closed = 1;
nodes = (
"1423 94 LINE",
"797 94 LINE",
"932 721 LINE",
"1520 721 LINE",
"1540 815 LINE",
"950 815 LINE",
"1067 1368 LINE",
"1692 1368 LINE",
"1712 1462 LINE",
"829 1462 LINE",
"-117 0 LINE",
"14 0 LINE",
"342 522 LINE",
"786 522 LINE",
"676 0 LINE",
"1403 0 LINE"
);
},
{
closed = 1;
nodes = (
"877 1368 LINE",
"965 1368 LINE",
"809 627 LINE",
"408 627 LINE"
);
}
);
width = 1640;
}
);
unicode = 00C6;
},
{
glyphname = B;
lastChange = "2013-03-09 11:19:16 +0200";
layers = (
{
layerId = UUID0;
name = "Light Italic";
paths = (
{
closed = 1;
nodes = (
"102 0 LINE",
"559 0 LINE SMOOTH",
"726 0 OFFCURVE",
"856 39 OFFCURVE",
"949 118 CURVE SMOOTH",
"1043 197 OFFCURVE",
"1090 305 OFFCURVE",
"1090 442 CURVE SMOOTH",
"1090 605 OFFCURVE",
"1005 719 OFFCURVE",
"838 760 CURVE",
"838 764 LINE",
"1057 801 OFFCURVE",
"1182 933 OFFCURVE",
"1182 1137 CURVE SMOOTH",
"1182 1346 OFFCURVE",
"1044 1462 OFFCURVE",
"791 1462 CURVE SMOOTH",
"412 1462 LINE"
);
},
{
closed = 1;
nodes = (
"496 1372 LINE",
"768 1372 LINE SMOOTH",
"969 1372 OFFCURVE",
"1075 1289 OFFCURVE",
"1075 1130 CURVE SMOOTH",
"1075 921 OFFCURVE",
"930 811 OFFCURVE",
"655 811 CURVE SMOOTH",
"377 811 LINE"
);
},
{
closed = 1;
nodes = (
"618 721 LINE",
"865 721 OFFCURVE",
"983 627 OFFCURVE",
"983 434 CURVE SMOOTH",
"983 209 OFFCURVE",
"833 90 OFFCURVE",
"565 90 CURVE SMOOTH",
"223 90 LINE",
"358 721 LINE"
);
}
);
width = 1202;
}
);
unicode = 0042;
},
{
glyphname = C;
lastChange = "2013-03-09 11:19:16 +0200";
layers = (
{
layerId = UUID0;
name = "Light Italic";
paths = (
{
closed = 1;
nodes = (
"1052 1389 OFFCURVE",
"1150 1365 OFFCURVE",
"1223 1325 CURVE",
"1268 1415 LINE",
"1181 1460 OFFCURVE",
"1079 1483 OFFCURVE",
"961 1483 CURVE SMOOTH",
"813 1483 OFFCURVE",
"679 1443 OFFCURVE",
"559 1364 CURVE SMOOTH",
"439 1285 OFFCURVE",
"344 1171 OFFCURVE",
"274 1023 CURVE SMOOTH",
"205 875 OFFCURVE",
"170 712 OFFCURVE",
"170 535 CURVE SMOOTH",
"170 358 OFFCURVE",
"215 222 OFFCURVE",
"304 125 CURVE SMOOTH",
"393 28 OFFCURVE",
"522 -20 OFFCURVE",
"690 -20 CURVE SMOOTH",
"797 -20 OFFCURVE",
"902 -4 OFFCURVE",
"1006 29 CURVE",
"1006 123 LINE",
"897 89 OFFCURVE",
"795 72 OFFCURVE",
"702 72 CURVE SMOOTH",
"426 72 OFFCURVE",
"274 239 OFFCURVE",
"274 539 CURVE SMOOTH",
"274 700 OFFCURVE",
"304 847 OFFCURVE",
"364 980 CURVE SMOOTH",
"425 1113 OFFCURVE",
"506 1215 OFFCURVE",
"609 1284 CURVE SMOOTH",
"712 1354 OFFCURVE",
"830 1389 OFFCURVE",
"961 1389 CURVE SMOOTH"
);
}
);
width = 1169;
}
);
unicode = 0043;
},
{
glyphname = D;
lastChange = "2013-03-09 11:19:16 +0200";
layers = (
{
layerId = UUID0;
name = "Light Italic";
paths = (
{
closed = 1;
nodes = (
"1288 1263 OFFCURVE",
"1093 1462 OFFCURVE",
"717 1462 CURVE SMOOTH",
"412 1462 LINE",
"102 0 LINE",
"432 0 LINE SMOOTH",
"772 0 OFFCURVE",
"1033 140 OFFCURVE",
"1178 417 CURVE SMOOTH",
"1251 556 OFFCURVE",
"1288 710 OFFCURVE",
"1288 879 CURVE SMOOTH"
);
},
{
closed = 1;
nodes = (
"221 90 LINE",
"496 1370 LINE",
"702 1370 LINE SMOOTH",
"1019 1370 OFFCURVE",
"1178 1204 OFFCURVE",
"1178 872 CURVE SMOOTH",
"1178 718 OFFCURVE",
"1147 581 OFFCURVE",
"1085 460 CURVE SMOOTH",
"1024 339 OFFCURVE",
"937 247 OFFCURVE",
"824 184 CURVE SMOOTH",
"712 121 OFFCURVE",
"581 90 OFFCURVE",
"430 90 CURVE SMOOTH"
);
}
);
width = 1350;
}
);
unicode = 0044;
},
{
glyphname = E;
lastChange = "2013-03-09 11:19:16 +0200";
layers = (
{
layerId = UUID0;
name = "Light Italic";
paths = (
{
closed = 1;
nodes = (
"850 94 LINE",
"223 94 LINE",
"358 721 LINE",
"946 721 LINE",
"967 815 LINE",
"377 815 LINE",
"494 1368 LINE",
"1118 1368 LINE",
"1139 1462 LINE",
"412 1462 LINE",
"102 0 LINE",
"829 0 LINE"
);
}
);
width = 1067;
}
);
unicode = 0045;
},
{
glyphname = F;
lastChange = "2013-03-09 11:19:16 +0200";
layers = (
{
layerId = UUID0;
name = "Light Italic";
paths = (
{
closed = 1;
nodes = (
"342 653 LINE",
"911 653 LINE",
"932 748 LINE",
"362 748 LINE",
"496 1368 LINE",
"1100 1368 LINE",
"1120 1462 LINE",
"412 1462 LINE",
"102 0 LINE",
"205 0 LINE"
);
}
);
width = 981;
}
);
unicode = 0046;
},
{
glyphname = G;
lastChange = "2013-03-09 11:19:16 +0200";
layers = (
{
layerId = UUID0;
name = "Light Italic";
paths = (
{
closed = 1;
nodes = (
"838 645 LINE",
"1141 645 LINE",
"1024 119 LINE",
"921 88 OFFCURVE",
"818 72 OFFCURVE",
"715 72 CURVE SMOOTH",
"432 72 OFFCURVE",
"274 242 OFFCURVE",
"274 547 CURVE SMOOTH",
"274 706 OFFCURVE",
"304 851 OFFCURVE",
"363 980 CURVE SMOOTH",
"422 1109 OFFCURVE",
"504 1210 OFFCURVE",
"607 1281 CURVE SMOOTH",
"710 1353 OFFCURVE",
"823 1389 OFFCURVE",
"946 1389 CURVE SMOOTH",
"1005 1389 OFFCURVE",
"1060 1384 OFFCURVE",
"1113 1373 CURVE SMOOTH",
"1166 1362 OFFCURVE",
"1230 1342 OFFCURVE",
"1303 1311 CURVE",
"1341 1405 LINE",
"1278 1432 OFFCURVE",
"1217 1451 OFFCURVE",
"1157 1464 CURVE SMOOTH",
"1097 1477 OFFCURVE",
"1029 1483 OFFCURVE",
"954 1483 CURVE SMOOTH",
"809 1483 OFFCURVE",
"677 1444 OFFCURVE",
"558 1366 CURVE SMOOTH",
"439 1288 OFFCURVE",
"345 1176 OFFCURVE",
"275 1030 CURVE SMOOTH",
"205 885 OFFCURVE",
"170 724 OFFCURVE",
"170 547 CURVE SMOOTH",
"170 364 OFFCURVE",
"217 223 OFFCURVE",
"310 126 CURVE SMOOTH",
"403 29 OFFCURVE",
"536 -20 OFFCURVE",
"707 -20 CURVE SMOOTH",
"836 -20 OFFCURVE",
"971 4 OFFCURVE",
"1112 53 CURVE",
"1262 735 LINE",
"856 735 LINE"
);
}
);
width = 1374;
}
);
unicode = 0047;
},
{
glyphname = H;
lastChange = "2013-03-09 11:26:45 +0200";
layers = (
{
layerId = UUID0;
name = "Light Italic";
paths = (
{
closed = 1;
nodes = (
"1372 1462 LINE",
"1272 1462 LINE",
"1135 813 LINE",
"375 813 LINE",
"514 1462 LINE",
"412 1462 LINE",
"102 0 LINE",
"205 0 LINE",
"354 719 LINE",
"1114 719 LINE",
"963 0 LINE",
"1063 0 LINE"
);
}
);
width = 1366;
}
);
unicode = 0048;
},
{
glyphname = I;
lastChange = "2013-03-09 11:19:16 +0200";
layers = (
{
layerId = UUID0;
name = "Light Italic";
paths = (
{
closed = 1;
nodes = (
"201 0 LINE",
"510 1462 LINE",
"412 1462 LINE",
"102 0 LINE"
);
}
);
width = 504;
}
);
unicode = 0049;
},
{
glyphname = J;
lastChange = "2013-03-09 11:19:16 +0200";
layers = (
{
layerId = UUID0;
name = "Light Italic";
paths = (
{
closed = 1;
nodes = (
"21 -360 OFFCURVE",
"139 -256 OFFCURVE",
"186 -29 CURVE",
"500 1462 LINE",
"395 1462 LINE",
"86 -23 LINE SMOOTH",
"53 -184 OFFCURVE",
"-34 -264 OFFCURVE",
"-176 -264 CURVE SMOOTH",
"-229 -264 OFFCURVE",
"-275 -257 OFFCURVE",
"-313 -244 CURVE",
"-324 -336 LINE",
"-303 -347 OFFCURVE",
"-244 -360 OFFCURVE",
"-180 -360 CURVE SMOOTH"
);
}
);
width = 477;
}
);
unicode = 004A;
},
{
glyphname = K;
lastChange = "2013-03-09 11:19:16 +0200";
layers = (
{
layerId = UUID0;
name = "Light Italic";
paths = (
{
closed = 1;
nodes = (
"608 852 LINE",
"1307 1462 LINE",
"1169 1462 LINE",
"489 860 LINE",
"356 739 LINE",
"514 1462 LINE",
"412 1462 LINE",
"102 0 LINE",
"205 0 LINE",
"336 635 LINE",
"526 788 LINE",
"868 0 LINE",
"979 0 LINE"
);
}
);
width = 1122;
}
);
unicode = 004B;
},
{
glyphname = L;
lastChange = "2013-03-09 11:19:16 +0200";
layers = (
{
layerId = UUID0;
name = "Light Italic";
paths = (
{
closed = 1;
nodes = (
"823 0 LINE",
"846 96 LINE",
"225 96 LINE",
"514 1462 LINE",
"412 1462 LINE",
"102 0 LINE"
);
}
);
width = 938;
}
);
unicode = 004C;
},
{
glyphname = M;
lastChange = "2013-03-09 11:19:16 +0200";
layers = (
{
layerId = UUID0;
name = "Light Italic";
paths = (
{
closed = 1;
nodes = (
"766 205 LINE",
"561 1462 LINE",
"418 1462 LINE",
"109 0 LINE",
"205 0 LINE",
"401 922 LINE SMOOTH",
"440 1103 OFFCURVE",
"466 1245 OFFCURVE",
"479 1348 CURVE",
"485 1348 LINE",
"707 0 LINE",
"758 0 LINE",
"1538 1348 LINE",
"1544 1348 LINE",
"1530 1296 OFFCURVE",
"1497 1147 OFFCURVE",
"1444 901 CURVE",
"1253 0 LINE",
"1354 0 LINE",
"1655 1462 LINE",
"1505 1462 LINE",
"772 205 LINE"
);
}
);
width = 1669;
}
);
unicode = 004D;
},
{
glyphname = N;
lastChange = "2013-03-09 11:19:16 +0200";
layers = (
{
layerId = UUID0;
name = "Light Italic";
paths = (
{
closed = 1;
nodes = (
"1378 1462 LINE",
"1284 1462 LINE",
"1096 584 LINE SMOOTH",
"1062 424 OFFCURVE",
"1037 285 OFFCURVE",
"1022 168 CURVE",
"1014 168 LINE",
"492 1462 LINE",
"412 1462 LINE",
"102 0 LINE",
"197 0 LINE",
"323 591 OFFCURVE",
"394 928 OFFCURVE",
"411 1011 CURVE SMOOTH",
"428 1094 OFFCURVE",
"444 1185 OFFCURVE",
"459 1284 CURVE",
"467 1284 LINE",
"983 0 LINE",
"1069 0 LINE"
);
}
);
width = 1372;
}
);
unicode = 004E;
},
{
glyphname = O;
lastChange = "2013-03-09 11:19:16 +0200";
layers = (
{
layerId = UUID0;
name = "Light Italic";
paths = (
{
closed = 1;
nodes = (
"1403 1094 OFFCURVE",
"1359 1235 OFFCURVE",
"1271 1334 CURVE SMOOTH",
"1184 1433 OFFCURVE",
"1058 1483 OFFCURVE",
"893 1483 CURVE SMOOTH",
"612 1483 OFFCURVE",
"389 1324 OFFCURVE",
"265 1036 CURVE SMOOTH",
"203 893 OFFCURVE",
"172 734 OFFCURVE",
"172 559 CURVE SMOOTH",
"172 372 OFFCURVE",
"217 228 OFFCURVE",
"307 129 CURVE SMOOTH",
"397 30 OFFCURVE",
"525 -20 OFFCURVE",
"692 -20 CURVE SMOOTH",
"968 -20 OFFCURVE",
"1184 128 OFFCURVE",
"1309 429 CURVE SMOOTH",
"1372 580 OFFCURVE",
"1403 741 OFFCURVE",
"1403 911 CURVE SMOOTH"
);
},
{
closed = 1;
nodes = (
"1154 1389 OFFCURVE",
"1294 1221 OFFCURVE",
"1294 901 CURVE SMOOTH",
"1294 748 OFFCURVE",
"1268 605 OFFCURVE",
"1215 470 CURVE SMOOTH",
"1162 336 OFFCURVE",
"1092 236 OFFCURVE",
"1005 170 CURVE SMOOTH",
"918 105 OFFCURVE",
"818 72 OFFCURVE",
"705 72 CURVE SMOOTH",
"425 72 OFFCURVE",
"276 246 OFFCURVE",
"276 573 CURVE SMOOTH",
"276 720 OFFCURVE",
"303 859 OFFCURVE",
"356 990 CURVE SMOOTH",
"409 1121 OFFCURVE",
"481 1221 OFFCURVE",
"570 1288 CURVE SMOOTH",
"660 1355 OFFCURVE",
"763 1389 OFFCURVE",
"879 1389 CURVE SMOOTH"
);
}
);
width = 1464;
}
);
unicode = 004F;
},
{
glyphname = Oslash;
lastChange = "2013-03-09 11:19:16 +0200";
layers = (
{
layerId = UUID0;
name = "Light Italic";
paths = (
{
closed = 1;
nodes = (
"1403 986 OFFCURVE",
"1394 1060 OFFCURVE",
"1375 1133 CURVE SMOOTH",
"1357 1206 OFFCURVE",
"1333 1260 OFFCURVE",
"1303 1294 CURVE",
"1448 1477 LINE",
"1378 1530 LINE",
"1245 1362 LINE",
"1156 1443 OFFCURVE",
"1039 1483 OFFCURVE",
"893 1483 CURVE SMOOTH",
"616 1483 OFFCURVE",
"391 1327 OFFCURVE",
"266 1038 CURVE SMOOTH",
"203 894 OFFCURVE",
"172 734 OFFCURVE",
"172 559 CURVE SMOOTH",
"172 391 OFFCURVE",
"210 257 OFFCURVE",
"285 158 CURVE",
"139 -14 LINE",
"205 -78 LINE",
"344 92 LINE",
"433 17 OFFCURVE",
"549 -20 OFFCURVE",
"692 -20 CURVE SMOOTH",
"907 -20 OFFCURVE",
"1083 73 OFFCURVE",
"1206 241 CURVE SMOOTH",
"1268 325 OFFCURVE",
"1316 426 OFFCURVE",
"1351 545 CURVE SMOOTH",
"1386 664 OFFCURVE",
"1403 786 OFFCURVE",
"1403 911 CURVE SMOOTH"
);
},
{
closed = 1;
nodes = (
"1008 1389 OFFCURVE",
"1109 1351 OFFCURVE",
"1180 1276 CURVE",
"354 244 LINE",
"307 313 OFFCURVE",
"276 433 OFFCURVE",
"276 573 CURVE SMOOTH",
"276 681 OFFCURVE",
"291 787 OFFCURVE",
"322 892 CURVE SMOOTH",
"353 997 OFFCURVE",
"394 1086 OFFCURVE",
"446 1159 CURVE SMOOTH",
"551 1307 OFFCURVE",
"700 1389 OFFCURVE",
"879 1389 CURVE SMOOTH"
);
},
{
closed = 1;
nodes = (
"1294 744 OFFCURVE",
"1268 599 OFFCURVE",
"1215 468 CURVE SMOOTH",
"1163 337 OFFCURVE",
"1093 239 OFFCURVE",
"1006 172 CURVE SMOOTH",
"919 105 OFFCURVE",
"818 72 OFFCURVE",
"705 72 CURVE SMOOTH",
"581 72 OFFCURVE",
"483 105 OFFCURVE",
"412 172 CURVE",
"1233 1202 LINE",
"1250 1174 OFFCURVE",
"1265 1131 OFFCURVE",
"1276 1073 CURVE SMOOTH",
"1288 1015 OFFCURVE",
"1294 958 OFFCURVE",
"1294 901 CURVE SMOOTH"
);
}
);
width = 1464;
}
);
unicode = 00D8;
},
{
glyphname = OE;
lastChange = "2013-03-09 11:19:16 +0200";
layers = (
{
layerId = UUID0;
name = "Light Italic";
paths = (
{
closed = 1;
nodes = (
"1550 94 LINE",
"924 94 LINE",
"1059 721 LINE",
"1647 721 LINE",
"1667 815 LINE",
"1077 815 LINE",
"1194 1368 LINE",
"1819 1368 LINE",
"1839 1462 LINE",
"1151 1462 LINE",
"1078 1476 OFFCURVE",
"998 1483 OFFCURVE",
"911 1483 CURVE SMOOTH",
"624 1483 OFFCURVE",
"396 1333 OFFCURVE",
"268 1041 CURVE SMOOTH",
"204 895 OFFCURVE",
"172 734 OFFCURVE",
"172 559 CURVE SMOOTH",
"172 372 OFFCURVE",
"217 229 OFFCURVE",
"306 129 CURVE",
"396 30 OFFCURVE",
"525 -20 OFFCURVE",
"692 -20 CURVE SMOOTH",
"720 -20 OFFCURVE",
"751 -18 OFFCURVE",
"786 -13 CURVE SMOOTH",
"821 -8 OFFCURVE",
"847 -4 OFFCURVE",
"864 0 CURVE",
"1530 0 LINE"
);
},
{
closed = 1;
nodes = (
"424 72 OFFCURVE",
"276 246 OFFCURVE",
"276 573 CURVE SMOOTH",
"276 726 OFFCURVE",
"304 867 OFFCURVE",
"359 997 CURVE SMOOTH",
"414 1127 OFFCURVE",
"488 1225 OFFCURVE",
"581 1290 CURVE SMOOTH",
"674 1356 OFFCURVE",
"782 1389 OFFCURVE",
"903 1389 CURVE SMOOTH",
"956 1389 OFFCURVE",
"1019 1384 OFFCURVE",
"1092 1374 CURVE",
"821 84 LINE",
"789 76 OFFCURVE",
"750 72 OFFCURVE",
"705 72 CURVE SMOOTH"
);
}
);
width = 1767;
}
);
unicode = 0152;
},
{
glyphname = P;
lastChange = "2013-03-09 11:19:16 +0200";
layers = (
{
layerId = UUID0;
name = "Light Italic";
paths = (
{
closed = 1;
nodes = (
"1145 1335 OFFCURVE",
"996 1462 OFFCURVE",
"727 1462 CURVE SMOOTH",
"412 1462 LINE",
"102 0 LINE",
"205 0 LINE",
"334 602 LINE",
"535 602 LINE SMOOTH",
"942 602 OFFCURVE",
"1145 769 OFFCURVE",
"1145 1102 CURVE SMOOTH"
);
},
{
closed = 1;
nodes = (
"496 1370 LINE",
"707 1370 LINE SMOOTH",
"926 1370 OFFCURVE",
"1036 1279 OFFCURVE",
"1036 1096 CURVE SMOOTH",
"1036 817 OFFCURVE",
"877 694 OFFCURVE",
"541 694 CURVE SMOOTH",
"350 694 LINE"
);
}
);
width = 1145;
}
);
unicode = 0050;
},
{
glyphname = Q;
lastChange = "2013-03-09 11:19:16 +0200";
layers = (
{
layerId = UUID0;
name = "Light Italic";
paths = (
{
closed = 1;
nodes = (
"1403 1094 OFFCURVE",
"1359 1235 OFFCURVE",
"1271 1334 CURVE SMOOTH",
"1184 1433 OFFCURVE",
"1058 1483 OFFCURVE",
"893 1483 CURVE SMOOTH",
"612 1483 OFFCURVE",
"389 1324 OFFCURVE",
"265 1036 CURVE SMOOTH",
"203 893 OFFCURVE",
"172 734 OFFCURVE",
"172 559 CURVE SMOOTH",
"172 372 OFFCURVE",
"217 228 OFFCURVE",
"307 129 CURVE SMOOTH",
"397 30 OFFCURVE",
"525 -20 OFFCURVE",
"692 -20 CURVE",
"766 -16 LINE",
"997 -348 LINE",
"1139 -348 LINE",
"872 2 LINE",
"1083 62 OFFCURVE",
"1240 224 OFFCURVE",
"1333 493 CURVE SMOOTH",
"1380 628 OFFCURVE",
"1403 767 OFFCURVE",
"1403 911 CURVE SMOOTH"
);
},
{
closed = 1;
nodes = (
"1154 1389 OFFCURVE",
"1294 1221 OFFCURVE",
"1294 901 CURVE SMOOTH",
"1294 748 OFFCURVE",
"1268 605 OFFCURVE",
"1215 470 CURVE SMOOTH",
"1162 336 OFFCURVE",
"1092 236 OFFCURVE",
"1005 170 CURVE SMOOTH",
"918 105 OFFCURVE",
"818 72 OFFCURVE",
"705 72 CURVE SMOOTH",
"425 72 OFFCURVE",
"276 246 OFFCURVE",
"276 573 CURVE SMOOTH",
"276 720 OFFCURVE",
"303 859 OFFCURVE",
"356 990 CURVE SMOOTH",
"409 1121 OFFCURVE",
"481 1221 OFFCURVE",
"570 1288 CURVE SMOOTH",
"660 1355 OFFCURVE",
"763 1389 OFFCURVE",
"879 1389 CURVE SMOOTH"
);
}
);
width = 1464;
}
);
unicode = 0051;
},
{
glyphname = R;
lastChange = "2013-03-09 11:19:16 +0200";
layers = (
{
layerId = UUID0;
name = "Light Italic";
paths = (
{
closed = 1;
nodes = (
"659 633 LINE",
"870 0 LINE",
"981 0 LINE",
"968 37 OFFCURVE",
"894 253 OFFCURVE",
"760 647 CURVE",
"879 668 OFFCURVE",
"972 718 OFFCURVE",
"1041 799 CURVE SMOOTH",
"1110 880 OFFCURVE",
"1145 981 OFFCURVE",
"1145 1102 CURVE SMOOTH",
"1145 1342 OFFCURVE",
"1002 1462 OFFCURVE",
"715 1462 CURVE SMOOTH",
"412 1462 LINE",
"102 0 LINE",
"205 0 LINE",
"336 633 LINE"
);
},
{
closed = 1;
nodes = (
"496 1370 LINE",
"707 1370 LINE SMOOTH",
"926 1370 OFFCURVE",
"1036 1281 OFFCURVE",
"1036 1102 CURVE SMOOTH",
"1036 854 OFFCURVE",
"887 725 OFFCURVE",
"610 725 CURVE SMOOTH",
"358 725 LINE"
);
}
);
width = 1145;
}
);
unicode = 0052;
},
{
glyphname = S;
lastChange = "2013-03-09 11:19:16 +0200";
layers = (
{
layerId = UUID0;
name = "Light Italic";
paths = (
{
closed = 1;
nodes = (
"895 516 OFFCURVE",
"856 595 OFFCURVE",
"776 663 CURVE SMOOTH",
"737 697 OFFCURVE",
"666 740 OFFCURVE",
"563 793 CURVE",
"474 837 OFFCURVE",
"414 881 OFFCURVE",
"381 926 CURVE SMOOTH",
"348 971 OFFCURVE",
"332 1027 OFFCURVE",
"332 1096 CURVE SMOOTH",
"332 1187 OFFCURVE",
"364 1259 OFFCURVE",
"428 1314 CURVE SMOOTH",
"493 1369 OFFCURVE",
"579 1397 OFFCURVE",
"688 1397 CURVE SMOOTH",
"741 1397 OFFCURVE",
"795 1389 OFFCURVE",
"852 1374 CURVE SMOOTH",
"909 1359 OFFCURVE",
"960 1338 OFFCURVE",
"1004 1311 CURVE",
"1036 1405 LINE",
"920 1462 OFFCURVE",
"820 1483 OFFCURVE",
"688 1483 CURVE",
"426 1485 OFFCURVE",
"222 1322 OFFCURVE",
"227 1087 CURVE",
"227 1008 OFFCURVE",
"247 940 OFFCURVE",
"286 881 CURVE SMOOTH",
"326 822 OFFCURVE",
"396 768 OFFCURVE",
"496 717 CURVE",
"700 605 OFFCURVE",
"788 556 OFFCURVE",
"788 391 CURVE SMOOTH",
"788 294 OFFCURVE",
"752 216 OFFCURVE",
"680 158 CURVE SMOOTH",
"609 101 OFFCURVE",
"510 72 OFFCURVE",
"385 72 CURVE SMOOTH",
"262 72 OFFCURVE",
"146 103 OFFCURVE",
"37 164 CURVE",
"37 55 LINE",
"153 0 OFFCURVE",
"264 -20 OFFCURVE",
"381 -20 CURVE SMOOTH",
"588 -20 OFFCURVE",
"742 47 OFFCURVE",
"829 178 CURVE SMOOTH",
"873 244 OFFCURVE",
"895 319 OFFCURVE",
"895 403 CURVE SMOOTH"
);
}
);
width = 1020;
}
);
unicode = 0053;
},
{
glyphname = T;
lastChange = "2013-03-09 11:19:16 +0200";
layers = (
{
layerId = UUID0;
name = "Light Italic";
paths = (
{
closed = 1;
nodes = (
"727 1368 LINE",
"1167 1368 LINE",
"1186 1462 LINE",
"213 1462 LINE",
"193 1368 LINE",
"625 1368 LINE",
"336 0 LINE",
"438 0 LINE"
);
}
);
width = 985;
}
);
unicode = 0054;
},
{
glyphname = U;
lastChange = "2013-03-09 11:19:16 +0200";
layers = (
{
layerId = UUID0;
name = "Light Italic";
paths = (
{
closed = 1;
nodes = (
"1294 1462 LINE",
"1087 485 LINE SMOOTH",
"1056 337 OFFCURVE",
"1003 231 OFFCURVE",
"928 166 CURVE SMOOTH",
"853 102 OFFCURVE",
"751 70 OFFCURVE",
"621 70 CURVE SMOOTH",
"393 70 OFFCURVE",
"279 173 OFFCURVE",
"279 379 CURVE SMOOTH",
"279 442 OFFCURVE",
"286 504 OFFCURVE",
"299 563 CURVE SMOOTH",
"492 1462 LINE",
"389 1462 LINE",
"203 582 LINE",
"185 503 OFFCURVE",
"176 436 OFFCURVE",
"176 381 CURVE SMOOTH",
"176 114 OFFCURVE",
"323 -20 OFFCURVE",
"616 -20 CURVE SMOOTH",
"773 -20 OFFCURVE",
"898 19 OFFCURVE",
"991 97 CURVE SMOOTH",
"1084 176 OFFCURVE",
"1149 305 OFFCURVE",
"1188 485 CURVE",
"1395 1462 LINE"
);
}
);
width = 1370;
}
);
unicode = 0055;
},
{
glyphname = V;
lastChange = "2013-03-09 11:19:16 +0200";
layers = (
{
layerId = UUID0;
name = "Light Italic";
paths = (
{
closed = 1;
nodes = (
"453 147 LINE",
"447 246 OFFCURVE",
"435 367 OFFCURVE",
"418 512 CURVE",
"301 1462 LINE",
"201 1462 LINE",
"383 0 LINE",
"471 0 LINE",
"1270 1462 LINE",
"1153 1462 LINE",
"581 394 LINE SMOOTH",
"532 303 OFFCURVE",
"491 221 OFFCURVE",
"457 147 CURVE"
);
}
);
width = 1079;
}
);
unicode = 0056;
},
{
glyphname = W;
lastChange = "2013-03-09 11:19:16 +0200";
layers = (
{
layerId = UUID0;
name = "Light Italic";
paths = (
{
closed = 1;
nodes = (
"1026 1341 LINE",
"1025 1294 LINE",
"1025 1243 OFFCURVE",
"1029 1170 OFFCURVE",
"1036 1075 CURVE SMOOTH",
"1114 0 LINE",
"1192 0 LINE",
"1415 487 OFFCURVE",
"1626 975 OFFCURVE",
"1851 1462 CURVE",
"1743 1462 LINE",
"1435 763 OFFCURVE",
"1270 388 OFFCURVE",
"1249 337 CURVE SMOOTH",
"1228 286 OFFCURVE",
"1208 231 OFFCURVE",
"1188 174 CURVE",
"1182 174 LINE",
"1182 270 OFFCURVE",
"1176 407 OFFCURVE",
"1163 584 CURVE",
"1102 1462 LINE",
"997 1462 LINE",
"563 578 LINE SMOOTH",
"506 463 OFFCURVE",
"450 331 OFFCURVE",
"393 180 CURVE",
"387 180 LINE",
"389 266 LINE",
"385 431 LINE",
"338 1462 LINE",
"238 1462 LINE",
"311 0 LINE",
"393 0 LINE",
"745 740 OFFCURVE",
"933 1136 OFFCURVE",
"956 1187 CURVE SMOOTH",
"979 1239 OFFCURVE",
"1000 1290 OFFCURVE",
"1018 1341 CURVE"
);
}
);
width = 1702;
}
);
unicode = 0057;
},
{
glyphname = X;
lastChange = "2013-03-09 11:19:16 +0200";
layers = (
{
layerId = UUID0;
name = "Light Italic";
paths = (
{
closed = 1;
nodes = (
"594 743 LINE",
"1149 1462 LINE",
"1030 1462 LINE",
"547 836 LINE",
"307 1462 LINE",
"201 1462 LINE",
"473 766 LINE",
"-135 0 LINE",
"-8 0 LINE",
"518 678 LINE",
"772 0 LINE",
"879 0 LINE"
);
}
);
width = 971;
}
);
unicode = 0058;
},
{
glyphname = Y;
lastChange = "2013-03-09 11:19:16 +0200";
layers = (
{
layerId = UUID0;
name = "Light Italic";
paths = (
{
closed = 1;
nodes = (
"293 1462 LINE",
"193 1462 LINE",
"430 545 LINE",
"311 0 LINE",
"416 0 LINE",
"524 530 LINE",
"1155 1462 LINE",
"1038 1462 LINE",
"494 645 LINE"
);
}
);
width = 965;
}
);
unicode = 0059;
},
{
glyphname = Z;
lastChange = "2013-03-09 11:19:16 +0200";
layers = (
{
layerId = UUID0;
name = "Light Italic";
paths = (
{
closed = 1;
nodes = (
"936 94 LINE",
"137 94 LINE",
"1206 1374 LINE",
"1225 1462 LINE",
"338 1462 LINE",
"315 1368 LINE",
"1079 1368 LINE",
"10 92 LINE",
"-12 0 LINE",
"913 0 LINE"
);
}
);
width = 1128;
}
);
unicode = 005A;
},
{
glyphname = a;
lastChange = "2013-03-09 11:19:16 +0200";
layers = (
{
layerId = UUID0;
name = "Light Italic";
paths = (
{
closed = 1;
nodes = (
"554 1104 OFFCURVE",
"461 1071 OFFCURVE",
"377 1006 CURVE SMOOTH",
"294 941 OFFCURVE",
"227 849 OFFCURVE",
"177 730 CURVE SMOOTH",
"127 611 OFFCURVE",
"102 485 OFFCURVE",
"102 354 CURVE SMOOTH",
"102 105 OFFCURVE",
"196 -20 OFFCURVE",
"383 -20 CURVE SMOOTH",
"562 -20 OFFCURVE",
"695 85 OFFCURVE",
"807 274 CURVE",
"813 274 LINE",
"768 0 LINE",
"850 0 LINE",
"1079 1087 LINE",
"999 1087 LINE",
"940 885 LINE",
"934 885 LINE",
"903 1031 OFFCURVE",
"810 1104 OFFCURVE",
"655 1104 CURVE SMOOTH"
);
},
{
closed = 1;
nodes = (
"271 70 OFFCURVE",
"205 162 OFFCURVE",
"205 365 CURVE SMOOTH",
"205 473 OFFCURVE",
"226 581 OFFCURVE",
"269 690 CURVE SMOOTH",
"312 799 OFFCURVE",
"366 881 OFFCURVE",
"433 936 CURVE SMOOTH",
"500 991 OFFCURVE",
"574 1018 OFFCURVE",
"657 1018 CURVE SMOOTH",
"809 1018 OFFCURVE",
"887 898 OFFCURVE",
"887 741 CURVE SMOOTH",
"887 683 OFFCURVE",
"875 612 OFFCURVE",
"850 528 CURVE SMOOTH",
"825 444 OFFCURVE",
"789 367 OFFCURVE",
"742 298 CURVE SMOOTH",
"695 229 OFFCURVE",
"642 173 OFFCURVE",
"583 132 CURVE SMOOTH",
"524 91 OFFCURVE",
"465 70 OFFCURVE",
"406 70 CURVE SMOOTH"
);
}
);
width = 1133;
}
);
unicode = 0061;
},
{
glyphname = ae;
lastChange = "2013-03-09 11:19:16 +0200";
layers = (
{
layerId = UUID0;
name = "Light Italic";
paths = (
{
closed = 1;
nodes = (
"1252 -20 OFFCURVE",
"1335 0 OFFCURVE",
"1442 49 CURVE",
"1442 143 LINE",
"1354 102 OFFCURVE",
"1270 70 OFFCURVE",
"1178 70 CURVE SMOOTH",
"981 70 OFFCURVE",
"891 195 OFFCURVE",
"891 410 CURVE SMOOTH",
"891 440 OFFCURVE",
"894 472 OFFCURVE",
"899 506 CURVE",
"938 506 LINE SMOOTH",
"1354 506 OFFCURVE",
"1567 631 OFFCURVE",
"1567 870 CURVE SMOOTH",
"1567 1018 OFFCURVE",
"1478 1104 OFFCURVE",
"1329 1104 CURVE SMOOTH",
"1188 1104 OFFCURVE",
"1072 1035 OFFCURVE",
"979 897 CURVE",
"1014 1083 LINE",
"948 1083 LINE",
"889 891 LINE",
"879 891 LINE",
"860 1024 OFFCURVE",
"780 1104 OFFCURVE",
"639 1104 CURVE SMOOTH",
"538 1104 OFFCURVE",
"446 1071 OFFCURVE",
"365 1005 CURVE SMOOTH",
"284 940 OFFCURVE",
"219 847 OFFCURVE",
"172 728 CURVE SMOOTH",
"125 609 OFFCURVE",
"102 481 OFFCURVE",
"102 344 CURVE SMOOTH",
"102 109 OFFCURVE",
"186 -20 OFFCURVE",
"346 -20 CURVE SMOOTH",
"497 -20 OFFCURVE",
"618 65 OFFCURVE",
"743 254 CURVE",
"752 254 LINE",
"711 0 LINE",
"788 0 LINE",
"827 205 LINE",
"846 135 OFFCURVE",
"885 80 OFFCURVE",
"944 40 CURVE SMOOTH",
"1003 0 OFFCURVE",
"1073 -20 OFFCURVE",
"1155 -20 CURVE SMOOTH"
);
},
{
closed = 1;
nodes = (
"264 70 OFFCURVE",
"205 152 OFFCURVE",
"205 352 CURVE SMOOTH",
"205 476 OFFCURVE",
"224 589 OFFCURVE",
"261 692 CURVE SMOOTH",
"299 795 OFFCURVE",
"351 875 OFFCURVE",
"418 932 CURVE SMOOTH",
"485 989 OFFCURVE",
"559 1018 OFFCURVE",
"641 1018 CURVE SMOOTH",
"764 1018 OFFCURVE",
"831 921 OFFCURVE",
"831 764 CURVE SMOOTH",
"831 723 OFFCURVE",
"824 668 OFFCURVE",
"811 599 CURVE SMOOTH",
"798 530 OFFCURVE",
"776 463 OFFCURVE",
"747 400 CURVE SMOOTH",
"718 337 OFFCURVE",
"683 280 OFFCURVE",
"641 229 CURVE SMOOTH",
"558 129 OFFCURVE",
"458 70 OFFCURVE",
"369 70 CURVE SMOOTH"
);
},
{
closed = 1;
nodes = (
"1410 1018 OFFCURVE",
"1464 959 OFFCURVE",
"1464 864 CURVE SMOOTH",
"1464 683 OFFCURVE",
"1312 594 OFFCURVE",
"961 594 CURVE SMOOTH",
"913 594 LINE",
"952 723 OFFCURVE",
"1010 825 OFFCURVE",
"1085 902 CURVE SMOOTH",
"1160 979 OFFCURVE",
"1238 1018 OFFCURVE",
"1317 1018 CURVE SMOOTH"
);
}
);
width = 1602;
}
);
unicode = 00E6;
},
{
glyphname = b;
lastChange = "2013-03-09 11:19:16 +0200";
layers = (
{
layerId = UUID0;
name = "Light Italic";
paths = (
{
closed = 1;
nodes = (
"701 -16 OFFCURVE",
"876 117 OFFCURVE",
"977 353 CURVE SMOOTH",
"1028 471 OFFCURVE",
"1053 598 OFFCURVE",
"1053 733 CURVE SMOOTH",
"1053 983 OFFCURVE",
"959 1108 OFFCURVE",
"772 1108 CURVE SMOOTH",
"605 1108 OFFCURVE",
"466 1013 OFFCURVE",
"342 805 CURVE",
"336 805 LINE",
"357 887 OFFCURVE",
"411 1137 OFFCURVE",
"498 1556 CURVE",
"403 1556 LINE",
"76 0 LINE",
"156 0 LINE",
"211 209 LINE",
"217 209 LINE",
"249 66 OFFCURVE",
"349 -16 OFFCURVE",
"500 -16 CURVE SMOOTH"
);
},
{
closed = 1;
nodes = (
"886 1018 OFFCURVE",
"950 926 OFFCURVE",
"950 723 CURVE SMOOTH",
"950 614 OFFCURVE",
"929 506 OFFCURVE",
"886 398 CURVE SMOOTH",
"843 290 OFFCURVE",
"789 208 OFFCURVE",
"722 153 CURVE SMOOTH",
"655 98 OFFCURVE",
"581 70 OFFCURVE",
"498 70 CURVE SMOOTH",
"430 70 OFFCURVE",
"375 94 OFFCURVE",
"332 143 CURVE SMOOTH",
"289 192 OFFCURVE",
"268 260 OFFCURVE",
"268 346 CURVE SMOOTH",
"268 399 OFFCURVE",
"280 467 OFFCURVE",
"303 552 CURVE SMOOTH",
"326 637 OFFCURVE",
"362 715 OFFCURVE",
"409 787 CURVE SMOOTH",
"505 931 OFFCURVE",
"629 1018 OFFCURVE",
"750 1018 CURVE SMOOTH"
);
}
);
width = 1151;
}
);
unicode = 0062;
},
{
glyphname = c;
lastChange = "2013-03-09 11:19:16 +0200";
layers = (
{
layerId = UUID0;
name = "Light Italic";
paths = (
{
closed = 1;
nodes = (
"582 -20 OFFCURVE",
"673 -1 OFFCURVE",
"750 37 CURVE",
"750 129 LINE",
"655 85 OFFCURVE",
"582 70 OFFCURVE",
"487 70 CURVE SMOOTH",
"307 70 OFFCURVE",
"205 188 OFFCURVE",
"205 399 CURVE SMOOTH",
"205 516 OFFCURVE",
"225 622 OFFCURVE",
"264 719 CURVE SMOOTH",
"303 816 OFFCURVE",
"357 890 OFFCURVE",
"426 941 CURVE SMOOTH",
"495 992 OFFCURVE",
"573 1018 OFFCURVE",
"659 1018 CURVE SMOOTH",
"733 1018 OFFCURVE",
"806 1002 OFFCURVE",
"877 971 CURVE",
"905 1061 LINE",
"834 1090 OFFCURVE",
"753 1104 OFFCURVE",
"664 1104 CURVE SMOOTH",
"444 1104 OFFCURVE",
"274 983 OFFCURVE",
"175 758 CURVE SMOOTH",
"126 646 OFFCURVE",
"102 526 OFFCURVE",
"102 397 CURVE SMOOTH",
"102 266 OFFCURVE",
"135 164 OFFCURVE",
"202 90 CURVE SMOOTH",
"269 17 OFFCURVE",
"361 -20 OFFCURVE",
"477 -20 CURVE SMOOTH"
);
}
);
width = 887;
}
);
unicode = 0063;
},
{
glyphname = d;
lastChange = "2013-03-09 11:19:16 +0200";
layers = (
{
layerId = UUID0;
name = "Light Italic";
paths = (
{
closed = 1;
nodes = (
"550 1104 OFFCURVE",
"455 1070 OFFCURVE",
"371 1002 CURVE SMOOTH",
"287 935 OFFCURVE",
"221 842 OFFCURVE",
"173 724 CURVE SMOOTH",
"126 606 OFFCURVE",
"102 483 OFFCURVE",
"102 354 CURVE SMOOTH",
"102 105 OFFCURVE",
"196 -20 OFFCURVE",
"383 -20 CURVE SMOOTH",
"550 -20 OFFCURVE",
"692 78 OFFCURVE",
"807 274 CURVE",
"813 274 LINE",
"768 0 LINE",
"850 0 LINE",
"1180 1556 LINE",
"1081 1556 LINE",
"994 1153 OFFCURVE",
"946 929 OFFCURVE",
"938 885 CURVE",
"934 885 LINE",
"901 1031 OFFCURVE",
"808 1104 OFFCURVE",
"655 1104 CURVE SMOOTH"
);
},
{
closed = 1;
nodes = (
"272 70 OFFCURVE",
"205 168 OFFCURVE",
"205 365 CURVE SMOOTH",
"205 477 OFFCURVE",
"226 586 OFFCURVE",
"269 692 CURVE SMOOTH",
"312 799 OFFCURVE",
"366 880 OFFCURVE",
"433 935 CURVE SMOOTH",
"500 990 OFFCURVE",
"574 1018 OFFCURVE",
"657 1018 CURVE SMOOTH",
"728 1018 OFFCURVE",
"784 993 OFFCURVE",
"825 942 CURVE SMOOTH",
"866 892 OFFCURVE",
"887 825 OFFCURVE",
"887 741 CURVE SMOOTH",
"887 685 OFFCURVE",
"875 615 OFFCURVE",
"851 531 CURVE SMOOTH",
"827 448 OFFCURVE",
"791 371 OFFCURVE",
"744 300 CURVE SMOOTH",
"697 230 OFFCURVE",
"644 174 OFFCURVE",
"584 132 CURVE SMOOTH",
"525 91 OFFCURVE",
"465 70 OFFCURVE",
"406 70 CURVE SMOOTH"
);
}
);
width = 1133;
}
);
unicode = 0064;
},
{
glyphname = e;
lastChange = "2013-03-09 11:19:16 +0200";
layers = (
{
layerId = UUID0;
name = "Light Italic";
paths = (
{
closed = 1;
nodes = (
"575 -20 OFFCURVE",
"675 3 OFFCURVE",
"768 49 CURVE",
"768 143 LINE",
"672 94 OFFCURVE",
"580 70 OFFCURVE",
"492 70 CURVE SMOOTH",
"307 70 OFFCURVE",
"205 188 OFFCURVE",
"205 408 CURVE SMOOTH",
"205 444 OFFCURVE",
"207 477 OFFCURVE",
"211 506 CURVE",
"244 506 LINE SMOOTH",
"673 506 OFFCURVE",
"893 636 OFFCURVE",
"893 877 CURVE SMOOTH",
"893 947 OFFCURVE",
"870 1002 OFFCURVE",
"825 1043 CURVE SMOOTH",
"780 1084 OFFCURVE",
"719 1104 OFFCURVE",
"643 1104 CURVE SMOOTH",
"543 1104 OFFCURVE",
"451 1071 OFFCURVE",
"368 1006 CURVE SMOOTH",
"285 941 OFFCURVE",
"220 853 OFFCURVE",
"173 742 CURVE SMOOTH",
"126 631 OFFCURVE",
"102 516 OFFCURVE",
"102 395 CURVE SMOOTH",
"102 264 OFFCURVE",
"134 162 OFFCURVE",
"199 89 CURVE SMOOTH",
"264 16 OFFCURVE",
"354 -20 OFFCURVE",
"469 -20 CURVE SMOOTH"
);
},
{
closed = 1;
nodes = (
"728 1018 OFFCURVE",
"791 953 OFFCURVE",
"791 864 CURVE SMOOTH",
"791 684 OFFCURVE",
"619 594 OFFCURVE",
"274 594 CURVE SMOOTH",
"225 594 LINE",
"258 723 OFFCURVE",
"312 825 OFFCURVE",
"387 902 CURVE SMOOTH",
"462 979 OFFCURVE",
"544 1018 OFFCURVE",
"631 1018 CURVE SMOOTH"
);
}
);
width = 928;
}
);
unicode = 0065;
},
{
glyphname = f;
lastChange = "2013-03-09 11:19:16 +0200";
layers = (
{
layerId = UUID0;
name = "Light Italic";
paths = (
{
closed = 1;
nodes = (
"34 -492 OFFCURVE",
"124 -399 OFFCURVE",
"168 -184 CURVE",
"420 1006 LINE",
"668 1006 LINE",
"684 1087 LINE",
"436 1087 LINE",
"471 1251 LINE SMOOTH",
"507 1418 OFFCURVE",
"581 1483 OFFCURVE",
"709 1483 CURVE SMOOTH",
"749 1483 OFFCURVE",
"798 1474 OFFCURVE",
"856 1456 CURVE",
"881 1536 LINE",
"819 1557 OFFCURVE",
"764 1567 OFFCURVE",
"715 1567 CURVE SMOOTH",
"520 1567 OFFCURVE",
"418 1471 OFFCURVE",
"371 1247 CURVE",
"336 1087 LINE",
"131 1073 LINE",
"117 1006 LINE",
"322 1006 LINE",
"76 -160 LINE SMOOTH",
"57 -249 OFFCURVE",
"32 -311 OFFCURVE",
"1 -346 CURVE SMOOTH",
"-30 -381 OFFCURVE",
"-74 -399 OFFCURVE",
"-133 -399 CURVE SMOOTH",
"-164 -399 OFFCURVE",
"-198 -394 OFFCURVE",
"-233 -383 CURVE",
"-233 -473 LINE",
"-197 -486 OFFCURVE",
"-163 -492 OFFCURVE",
"-131 -492 CURVE SMOOTH"
);
}
);
width = 578;
}
);
unicode = 0066;
},
{
glyphname = g;
lastChange = "2013-03-09 11:19:16 +0200";
layers = (
{
layerId = UUID0;
name = "Light Italic";
paths = (
{
closed = 1;
nodes = (
"739 1087 LINE",
"687 1101 OFFCURVE",
"638 1108 OFFCURVE",
"592 1108 CURVE",
"368 1113 OFFCURVE",
"178 926 OFFCURVE",
"184 705 CURVE",
"184 588 OFFCURVE",
"239 490 OFFCURVE",
"334 442 CURVE",
"207 389 OFFCURVE",
"143 322 OFFCURVE",
"143 240 CURVE SMOOTH",
"143 186 OFFCURVE",
"169 145 OFFCURVE",
"221 117 CURVE",
"15 52 OFFCURVE",
"-88 -60 OFFCURVE",
"-88 -217 CURVE SMOOTH",
"-88 -304 OFFCURVE",
"-53 -372 OFFCURVE",
"17 -420 CURVE SMOOTH",
"88 -468 OFFCURVE",
"185 -492 OFFCURVE",
"309 -492 CURVE",
"646 -495 OFFCURVE",
"854 -341 OFFCURVE",
"852 -117 CURVE",
"852 38 OFFCURVE",
"737 126 OFFCURVE",
"506 147 CURVE SMOOTH",
"385 158 LINE",
"276 169 OFFCURVE",
"240 199 OFFCURVE",
"240 254 CURVE SMOOTH",
"240 309 OFFCURVE",
"301 364 OFFCURVE",
"408 408 CURVE",
"417 402 OFFCURVE",
"443 399 OFFCURVE",
"485 399 CURVE SMOOTH",
"645 399 OFFCURVE",
"774 463 OFFCURVE",
"846 592 CURVE SMOOTH",
"883 657 OFFCURVE",
"901 726 OFFCURVE",
"901 799 CURVE SMOOTH",
"901 876 OFFCURVE",
"875 960 OFFCURVE",
"840 997 CURVE",
"1083 1008 LINE",
"1100 1087 LINE"
);
},
{
closed = 1;
nodes = (
"14 -75 OFFCURVE",
"100 16 OFFCURVE",
"309 76 CURVE",
"469 61 LINE",
"573 53 OFFCURVE",
"646 34 OFFCURVE",
"687 3 CURVE",
"729 -27 OFFCURVE",
"750 -70 OFFCURVE",
"750 -127 CURVE SMOOTH",
"750 -214 OFFCURVE",
"712 -282 OFFCURVE",
"636 -331 CURVE SMOOTH",
"560 -381 OFFCURVE",
"454 -406 OFFCURVE",
"319 -406 CURVE SMOOTH",
"128 -406 OFFCURVE",
"14 -342 OFFCURVE",
"14 -207 CURVE SMOOTH"
);
},
{
closed = 1;
nodes = (
"284 869 OFFCURVE",
"403 1028 OFFCURVE",
"588 1022 CURVE",
"723 1022 OFFCURVE",
"801 942 OFFCURVE",
"801 803 CURVE SMOOTH",
"801 742 OFFCURVE",
"789 685 OFFCURVE",
"764 634 CURVE SMOOTH",
"740 583 OFFCURVE",
"706 545 OFFCURVE",
"662 520 CURVE SMOOTH",
"618 495 OFFCURVE",
"567 483 OFFCURVE",
"508 483 CURVE SMOOTH",
"367 483 OFFCURVE",
"285 562 OFFCURVE",
"285 711 CURVE SMOOTH"
);
}
);
width = 1040;
}
);
unicode = 0067;
},
{
glyphname = h;
lastChange = "2013-03-09 11:19:16 +0200";
layers = (
{
layerId = UUID0;
name = "Light Italic";
paths = (
{
closed = 1;
nodes = (
"862 0 LINE",
"1010 674 LINE SMOOTH",
"1026 749 OFFCURVE",
"1034 809 OFFCURVE",
"1034 856 CURVE SMOOTH",
"1034 1013 OFFCURVE",
"939 1104 OFFCURVE",
"774 1104 CURVE SMOOTH",
"613 1104 OFFCURVE",
"462 1017 OFFCURVE",
"358 866 CURVE",
"352 866 LINE",
"367 919 OFFCURVE",
"389 1012 OFFCURVE",
"418 1145 CURVE",
"504 1556 LINE",
"408 1556 LINE",
"76 0 LINE",
"174 0 LINE",
"276 477 LINE",
"324 697 OFFCURVE",
"414 862 OFFCURVE",
"545 951 CURVE SMOOTH",
"611 996 OFFCURVE",
"681 1018 OFFCURVE",
"756 1018 CURVE SMOOTH",
"877 1018 OFFCURVE",
"934 955 OFFCURVE",
"934 848 CURVE SMOOTH",
"934 805 OFFCURVE",
"927 753 OFFCURVE",
"913 692 CURVE",
"764 0 LINE"
);
}
);
width = 1143;
}
);
unicode = 0068;
},
{
glyphname = i;
lastChange = "2013-03-09 11:19:16 +0200";
layers = (
{
layerId = UUID0;
name = "Light Italic";
paths = (
{
closed = 1;
nodes = (
"403 1087 LINE",
"307 1087 LINE",
"76 0 LINE",
"174 0 LINE"
);
},
{
closed = 1;
nodes = (
"350 1319 OFFCURVE",
"371 1292 OFFCURVE",
"410 1292 CURVE SMOOTH",
"457 1292 OFFCURVE",
"489 1339 OFFCURVE",
"489 1415 CURVE SMOOTH",
"489 1463 OFFCURVE",
"470 1487 OFFCURVE",
"432 1487 CURVE SMOOTH",
"381 1487 OFFCURVE",
"350 1439 OFFCURVE",
"350 1366 CURVE SMOOTH"
);
}
);
width = 475;
}
);
unicode = 0069;
},
{
glyphname = dotlessi;
lastChange = "2013-03-09 11:19:16 +0200";
layers = (
{
layerId = UUID0;
name = "Light Italic";
paths = (
{
closed = 1;
nodes = (
"403 1087 LINE",
"307 1087 LINE",
"76 0 LINE",
"174 0 LINE"
);
}
);
width = 475;
}
);
unicode = 0131;
},
{
glyphname = j;
lastChange = "2013-03-09 11:19:16 +0200";
layers = (
{
layerId = UUID0;
name = "Light Italic";
paths = (
{
closed = 1;
nodes = (
"-10 -492 OFFCURVE",
"82 -404 OFFCURVE",
"129 -184 CURVE SMOOTH",
"397 1087 LINE",
"301 1087 LINE",
"35 -174 LINE",
"18 -258 OFFCURVE",
"-6 -317 OFFCURVE",
"-37 -351 CURVE SMOOTH",
"-68 -386 OFFCURVE",
"-111 -403 OFFCURVE",
"-166 -403 CURVE SMOOTH",
"-210 -403 OFFCURVE",
"-248 -396 OFFCURVE",
"-279 -381 CURVE",
"-279 -473 LINE",
"-245 -486 OFFCURVE",
"-207 -492 OFFCURVE",
"-166 -492 CURVE SMOOTH"
);
},
{
closed = 1;
nodes = (
"350 1319 OFFCURVE",
"371 1292 OFFCURVE",
"410 1292 CURVE SMOOTH",
"457 1292 OFFCURVE",
"489 1339 OFFCURVE",
"489 1415 CURVE SMOOTH",
"489 1463 OFFCURVE",
"470 1487 OFFCURVE",
"432 1487 CURVE SMOOTH",
"381 1487 OFFCURVE",
"350 1439 OFFCURVE",
"350 1366 CURVE SMOOTH"
);
}
);
width = 475;
}
);
unicode = 006A;
},
{
glyphname = k;
lastChange = "2013-03-09 11:19:16 +0200";
layers = (
{
layerId = UUID0;
name = "Light Italic";
paths = (
{
closed = 1;
nodes = (
"266 477 LINE",
"336 776 LINE",
"502 1556 LINE",
"406 1556 LINE",
"76 0 LINE",
"172 0 LINE",
"252 371 LINE",
"457 559 LINE",
"721 0 LINE",
"827 0 LINE",
"530 618 LINE",
"1004 1087 LINE",
"879 1087 LINE",
"270 477 LINE"
);
}
);
width = 944;
}
);
unicode = 006B;
},
{
glyphname = l;
lastChange = "2013-03-09 11:19:16 +0200";
layers = (
{
layerId = UUID0;
name = "Light Italic";
paths = (
{
closed = 1;
nodes = (
"504 1556 LINE",
"410 1556 LINE",
"76 0 LINE",
"170 0 LINE"
);
}
);
width = 475;
}
);
unicode = 006C;
},
{
glyphname = m;
lastChange = "2013-03-09 11:19:16 +0200";
layers = (
{
layerId = UUID0;
name = "Light Italic";
paths = (
{
closed = 1;
nodes = (
"813 0 LINE",
"922 518 LINE SMOOTH",
"954 668 OFFCURVE",
"1010 789 OFFCURVE",
"1090 880 CURVE SMOOTH",
"1171 972 OFFCURVE",
"1263 1018 OFFCURVE",
"1368 1018 CURVE SMOOTH",
"1469 1018 OFFCURVE",
"1530 959 OFFCURVE",
"1530 856 CURVE SMOOTH",
"1530 819 OFFCURVE",
"1522 760 OFFCURVE",
"1505 680 CURVE SMOOTH",
"1356 0 LINE",
"1456 0 LINE",
"1608 690 LINE",
"1619 751 OFFCURVE",
"1626 791 OFFCURVE",
"1627 809 CURVE SMOOTH",
"1629 828 OFFCURVE",
"1630 847 OFFCURVE",
"1630 866 CURVE SMOOTH",
"1630 1019 OFFCURVE",
"1538 1104 OFFCURVE",
"1382 1104 CURVE SMOOTH",
"1225 1104 OFFCURVE",
"1082 1014 OFFCURVE",
"979 842 CURVE",
"973 842 LINE",
"969 1013 OFFCURVE",
"891 1104 OFFCURVE",
"750 1104 CURVE SMOOTH",
"602 1104 OFFCURVE",
"463 1028 OFFCURVE",
"356 877 CURVE",
"350 877 LINE",
"383 1087 LINE",
"303 1087 LINE",
"72 0 LINE",
"170 0 LINE",
"270 475 LINE SMOOTH",
"317 696 OFFCURVE",
"404 861 OFFCURVE",
"529 950 CURVE SMOOTH",
"592 995 OFFCURVE",
"658 1018 OFFCURVE",
"729 1018 CURVE SMOOTH",
"832 1018 OFFCURVE",
"883 957 OFFCURVE",
"883 836 CURVE SMOOTH",
"883 811 OFFCURVE",
"875 757 OFFCURVE",
"858 674 CURVE",
"711 0 LINE"
);
}
);
width = 1751;
}
);
unicode = 006D;
},
{
glyphname = n;
lastChange = "2013-03-09 11:19:16 +0200";
layers = (
{
layerId = UUID0;
name = "Light Italic";
paths = (
{
closed = 1;
nodes = (
"862 0 LINE",
"1010 674 LINE SMOOTH",
"1026 749 OFFCURVE",
"1034 809 OFFCURVE",
"1034 856 CURVE SMOOTH",
"1034 1016 OFFCURVE",
"947 1104 OFFCURVE",
"774 1104 CURVE SMOOTH",
"606 1104 OFFCURVE",
"467 1025 OFFCURVE",
"358 866 CURVE",
"352 866 LINE",
"389 1087 LINE",
"307 1087 LINE",
"76 0 LINE",
"174 0 LINE",
"276 477 LINE SMOOTH",
"324 698 OFFCURVE",
"414 862 OFFCURVE",
"545 951 CURVE SMOOTH",
"611 996 OFFCURVE",
"681 1018 OFFCURVE",
"756 1018 CURVE SMOOTH",
"877 1018 OFFCURVE",
"934 955 OFFCURVE",
"934 848 CURVE SMOOTH",
"934 805 OFFCURVE",
"927 753 OFFCURVE",
"913 692 CURVE",
"764 0 LINE"
);
}
);
width = 1143;
}
);
unicode = 006E;
},
{
glyphname = o;
lastChange = "2013-03-09 11:19:16 +0200";
layers = (
{
layerId = UUID0;
name = "Light Italic";
paths = (
{
closed = 1;
nodes = (
"440 1108 OFFCURVE",
"268 984 OFFCURVE",
"171 761 CURVE SMOOTH",
"122 650 OFFCURVE",
"98 530 OFFCURVE",
"98 403 CURVE SMOOTH",
"98 131 OFFCURVE",
"228 -20 OFFCURVE",
"473 -20 CURVE SMOOTH",
"689 -20 OFFCURVE",
"859 103 OFFCURVE",
"954 331 CURVE SMOOTH",
"1002 446 OFFCURVE",
"1026 569 OFFCURVE",
"1026 700 CURVE SMOOTH",
"1026 827 OFFCURVE",
"993 927 OFFCURVE",
"927 999 CURVE",
"862 1072 OFFCURVE",
"769 1108 OFFCURVE",
"649 1108 CURVE SMOOTH"
);
},
{
closed = 1;
nodes = (
"824 1022 OFFCURVE",
"924 907 OFFCURVE",
"924 702 CURVE SMOOTH",
"924 582 OFFCURVE",
"904 472 OFFCURVE",
"865 371 CURVE SMOOTH",
"826 271 OFFCURVE",
"774 195 OFFCURVE",
"708 143 CURVE SMOOTH",
"643 92 OFFCURVE",
"568 66 OFFCURVE",
"483 66 CURVE SMOOTH",
"295 66 OFFCURVE",
"201 180 OFFCURVE",
"201 408 CURVE SMOOTH",
"201 517 OFFCURVE",
"221 621 OFFCURVE",
"260 718 CURVE SMOOTH",
"299 816 OFFCURVE",
"352 891 OFFCURVE",
"418 943 CURVE SMOOTH",
"484 996 OFFCURVE",
"558 1022 OFFCURVE",
"641 1022 CURVE SMOOTH"
);
}
);
width = 1124;
}
);
unicode = 006F;
},
{
glyphname = oslash;
lastChange = "2013-03-09 11:19:16 +0200";
layers = (
{
layerId = UUID0;
name = "Light Italic";
paths = (
{
closed = 1;
nodes = (
"45 -18 LINE",
"109 -72 LINE",
"219 63 LINE",
"280 8 OFFCURVE",
"364 -20 OFFCURVE",
"473 -20 CURVE SMOOTH",
"689 -20 OFFCURVE",
"859 103 OFFCURVE",
"954 331 CURVE SMOOTH",
"1002 446 OFFCURVE",
"1026 569 OFFCURVE",
"1026 700 CURVE SMOOTH",
"1026 805 OFFCURVE",
"1003 893 OFFCURVE",
"956 963 CURVE",
"1073 1106 LINE",
"1008 1159 LINE",
"899 1026 LINE",
"832 1081 OFFCURVE",
"749 1108 OFFCURVE",
"649 1108 CURVE SMOOTH",
"440 1108 OFFCURVE",
"268 984 OFFCURVE",
"171 761 CURVE SMOOTH",
"122 650 OFFCURVE",
"98 530 OFFCURVE",
"98 403 CURVE SMOOTH",
"98 290 OFFCURVE",
"120 198 OFFCURVE",
"164 127 CURVE"
);
},
{
closed = 1;
nodes = (
"924 582 OFFCURVE",
"904 472 OFFCURVE",
"865 371 CURVE SMOOTH",
"826 271 OFFCURVE",
"774 195 OFFCURVE",
"708 143 CURVE SMOOTH",
"643 92 OFFCURVE",
"568 66 OFFCURVE",
"483 66 CURVE SMOOTH",
"393 66 OFFCURVE",
"326 90 OFFCURVE",
"281 139 CURVE",
"889 881 LINE",
"912 829 OFFCURVE",
"924 769 OFFCURVE",
"924 702 CURVE SMOOTH"
);
},
{
closed = 1;
nodes = (
"723 1022 OFFCURVE",
"789 998 OFFCURVE",
"838 950 CURVE",
"233 211 LINE",
"212 259 OFFCURVE",
"201 325 OFFCURVE",
"201 408 CURVE SMOOTH",
"201 517 OFFCURVE",
"221 621 OFFCURVE",
"260 718 CURVE SMOOTH",
"299 816 OFFCURVE",
"352 891 OFFCURVE",
"418 943 CURVE SMOOTH",
"484 996 OFFCURVE",
"558 1022 OFFCURVE",
"641 1022 CURVE SMOOTH"
);
}
);
width = 1124;
}
);
unicode = 00F8;
},
{
glyphname = oe;
lastChange = "2013-03-09 11:19:16 +0200";
layers = (
{
layerId = UUID0;
name = "Light Italic";
paths = (
{
closed = 1;
nodes = (
"1368 -20 OFFCURVE",
"1468 3 OFFCURVE",
"1561 49 CURVE",
"1561 143 LINE",
"1465 94 OFFCURVE",
"1373 70 OFFCURVE",
"1284 70 CURVE SMOOTH",
"1099 70 OFFCURVE",
"997 188 OFFCURVE",
"997 408 CURVE SMOOTH",
"997 448 OFFCURVE",
"999 481 OFFCURVE",
"1004 506 CURVE",
"1036 506 LINE SMOOTH",
"1467 506 OFFCURVE",
"1686 636 OFFCURVE",
"1686 877 CURVE SMOOTH",
"1686 947 OFFCURVE",
"1663 1002 OFFCURVE",
"1618 1043 CURVE SMOOTH",
"1573 1084 OFFCURVE",
"1512 1104 OFFCURVE",
"1436 1104 CURVE SMOOTH",
"1350 1104 OFFCURVE",
"1269 1079 OFFCURVE",
"1194 1028 CURVE SMOOTH",
"1119 978 OFFCURVE",
"1059 909 OFFCURVE",
"1012 821 CURVE",
"972 1005 OFFCURVE",
"837 1108 OFFCURVE",
"649 1108 CURVE SMOOTH",
"440 1108 OFFCURVE",
"268 984 OFFCURVE",
"171 761 CURVE SMOOTH",
"122 650 OFFCURVE",
"98 530 OFFCURVE",
"98 403 CURVE SMOOTH",
"98 131 OFFCURVE",
"228 -20 OFFCURVE",
"473 -20 CURVE SMOOTH",
"664 -20 OFFCURVE",
"822 81 OFFCURVE",
"909 250 CURVE",
"952 74 OFFCURVE",
"1082 -20 OFFCURVE",
"1262 -20 CURVE SMOOTH"
);
},
{
closed = 1;
nodes = (
"824 1022 OFFCURVE",
"924 907 OFFCURVE",
"924 702 CURVE SMOOTH",
"924 582 OFFCURVE",
"904 472 OFFCURVE",
"865 371 CURVE SMOOTH",
"826 271 OFFCURVE",
"774 195 OFFCURVE",
"708 143 CURVE SMOOTH",
"643 92 OFFCURVE",
"568 66 OFFCURVE",
"483 66 CURVE SMOOTH",
"295 66 OFFCURVE",
"201 180 OFFCURVE",
"201 408 CURVE SMOOTH",
"201 517 OFFCURVE",
"221 621 OFFCURVE",
"260 718 CURVE SMOOTH",
"299 816 OFFCURVE",
"352 891 OFFCURVE",
"418 943 CURVE SMOOTH",
"484 996 OFFCURVE",
"558 1022 OFFCURVE",
"641 1022 CURVE SMOOTH"
);
},
{
closed = 1;
nodes = (
"1518 1018 OFFCURVE",
"1583 957 OFFCURVE",
"1583 864 CURVE SMOOTH",
"1583 684 OFFCURVE",
"1411 594 OFFCURVE",
"1067 594 CURVE SMOOTH",
"1018 594 LINE",
"1051 723 OFFCURVE",
"1105 826 OFFCURVE",
"1180 903 CURVE SMOOTH",
"1255 980 OFFCURVE",
"1336 1018 OFFCURVE",
"1423 1018 CURVE SMOOTH"
);
}
);
width = 1720;
}
);
unicode = 0153;
},
{
glyphname = p;
lastChange = "2013-03-09 11:19:16 +0200";
layers = (
{
layerId = UUID0;
name = "Light Italic";
paths = (
{
closed = 1;
nodes = (
"603 -16 OFFCURVE",
"698 18 OFFCURVE",
"781 85 CURVE SMOOTH",
"865 152 OFFCURVE",
"931 245 OFFCURVE",
"979 362 CURVE SMOOTH",
"1027 479 OFFCURVE",
"1051 603 OFFCURVE",
"1051 733 CURVE SMOOTH",
"1051 986 OFFCURVE",
"950 1108 OFFCURVE",
"770 1108 CURVE SMOOTH",
"605 1108 OFFCURVE",
"467 1017 OFFCURVE",
"346 813 CURVE",
"340 813 LINE",
"385 1087 LINE",
"303 1087 LINE",
"-33 -492 LINE",
"66 -492 LINE",
"157 -77 OFFCURVE",
"206 155 OFFCURVE",
"215 203 CURVE",
"219 203 LINE",
"252 57 OFFCURVE",
"345 -16 OFFCURVE",
"498 -16 CURVE SMOOTH"
);
},
{
closed = 1;
nodes = (
"881 1018 OFFCURVE",
"948 920 OFFCURVE",
"948 723 CURVE SMOOTH",
"948 612 OFFCURVE",
"927 504 OFFCURVE",
"885 397 CURVE SMOOTH",
"843 291 OFFCURVE",
"788 210 OFFCURVE",
"721 154 CURVE SMOOTH",
"654 98 OFFCURVE",
"579 70 OFFCURVE",
"496 70 CURVE SMOOTH",
"425 70 OFFCURVE",
"368 95 OFFCURVE",
"327 145 CURVE SMOOTH",
"286 196 OFFCURVE",
"266 263 OFFCURVE",
"266 346 CURVE SMOOTH",
"266 399 OFFCURVE",
"278 469 OFFCURVE",
"302 554 CURVE SMOOTH",
"326 640 OFFCURVE",
"363 719 OFFCURVE",
"412 792 CURVE",
"512 937 OFFCURVE",
"632 1018 OFFCURVE",
"748 1018 CURVE SMOOTH"
);
}
);
width = 1149;
}
);
unicode = 0070;
},
{
glyphname = q;
lastChange = "2013-03-09 11:19:16 +0200";
layers = (
{
layerId = UUID0;
name = "Light Italic";
paths = (
{
closed = 1;
nodes = (
"550 1104 OFFCURVE",
"457 1072 OFFCURVE",
"374 1007 CURVE SMOOTH",
"291 943 OFFCURVE",
"224 852 OFFCURVE",
"173 733 CURVE SMOOTH",
"123 614 OFFCURVE",
"98 488 OFFCURVE",
"98 354 CURVE SMOOTH",
"98 105 OFFCURVE",
"192 -20 OFFCURVE",
"379 -20 CURVE SMOOTH",
"546 -20 OFFCURVE",
"685 75 OFFCURVE",
"809 283 CURVE",
"815 283 LINE",
"751 1 LINE",
"653 -469 LINE",
"748 -469 LINE",
"1075 1087 LINE",
"995 1087 LINE",
"940 879 LINE",
"934 879 LINE",
"901 1024 OFFCURVE",
"796 1104 OFFCURVE",
"651 1104 CURVE SMOOTH"
);
},
{
closed = 1;
nodes = (
"256 70 OFFCURVE",
"201 174 OFFCURVE",
"201 365 CURVE SMOOTH",
"201 474 OFFCURVE",
"222 582 OFFCURVE",
"265 690 CURVE SMOOTH",
"308 798 OFFCURVE",
"362 880 OFFCURVE",
"429 935 CURVE SMOOTH",
"496 990 OFFCURVE",
"570 1018 OFFCURVE",
"653 1018 CURVE SMOOTH",
"722 1018 OFFCURVE",
"777 993 OFFCURVE",
"819 944 CURVE SMOOTH",
"862 895 OFFCURVE",
"883 828 OFFCURVE",
"883 741 CURVE SMOOTH",
"883 692 OFFCURVE",
"871 625 OFFCURVE",
"848 540 CURVE SMOOTH",
"825 455 OFFCURVE",
"790 377 OFFCURVE",
"743 304 CURVE SMOOTH",
"696 231 OFFCURVE",
"643 174 OFFCURVE",
"583 132 CURVE SMOOTH",
"523 91 OFFCURVE",
"462 70 OFFCURVE",
"401 70 CURVE SMOOTH"
);
}
);
width = 1157;
}
);
unicode = 0071;
},
{
glyphname = r;
lastChange = "2013-03-09 11:19:16 +0200";
layers = (
{
layerId = UUID0;
name = "Light Italic";
paths = (
{
closed = 1;
nodes = (
"624 1106 OFFCURVE",
"550 1074 OFFCURVE",
"483 1018 CURVE SMOOTH",
"450 991 OFFCURVE",
"409 946 OFFCURVE",
"360 883 CURVE",
"354 883 LINE",
"383 1087 LINE",
"303 1087 LINE",
"72 0 LINE",
"170 0 LINE",
"270 481 LINE SMOOTH",
"291 580 OFFCURVE",
"325 673 OFFCURVE",
"370 758 CURVE SMOOTH",
"415 843 OFFCURVE",
"466 907 OFFCURVE",
"523 950 CURVE SMOOTH",
"580 993 OFFCURVE",
"639 1014 OFFCURVE",
"702 1014 CURVE SMOOTH",
"746 1014 OFFCURVE",
"784 1009 OFFCURVE",
"815 999 CURVE",
"836 1092 LINE",
"800 1101 OFFCURVE",
"759 1106 OFFCURVE",
"713 1106 CURVE SMOOTH"
);
}
);
width = 752;
}
);
unicode = 0072;
},
{
glyphname = s;
lastChange = "2013-03-09 11:19:16 +0200";
layers = (
{
layerId = UUID0;
name = "Light Italic";
paths = (
{
closed = 1;
nodes = (
"713 376 OFFCURVE",
"684 435 OFFCURVE",
"620 488 CURVE SMOOTH",
"589 515 OFFCURVE",
"535 550 OFFCURVE",
"459 592 CURVE SMOOTH",
"358 647 OFFCURVE",
"302 693 OFFCURVE",
"279 737 CURVE SMOOTH",
"268 759 OFFCURVE",
"262 788 OFFCURVE",
"262 825 CURVE SMOOTH",
"262 882 OFFCURVE",
"285 928 OFFCURVE",
"332 963 CURVE SMOOTH",
"379 998 OFFCURVE",
"441 1016 OFFCURVE",
"518 1016 CURVE SMOOTH",
"603 1016 OFFCURVE",
"691 995 OFFCURVE",
"782 952 CURVE",
"817 1040 LINE",
"779 1059 OFFCURVE",
"732 1075 OFFCURVE",
"676 1086 CURVE",
"621 1098 OFFCURVE",
"568 1104 OFFCURVE",
"518 1104 CURVE SMOOTH",
"411 1104 OFFCURVE",
"324 1077 OFFCURVE",
"258 1022 CURVE SMOOTH",
"193 968 OFFCURVE",
"160 898 OFFCURVE",
"160 813 CURVE SMOOTH",
"160 750 OFFCURVE",
"177 697 OFFCURVE",
"212 653 CURVE SMOOTH",
"247 610 OFFCURVE",
"313 561 OFFCURVE",
"412 508 CURVE",
"477 471 OFFCURVE",
"521 442 OFFCURVE",
"544 422 CURVE SMOOTH",
"567 403 OFFCURVE",
"584 382 OFFCURVE",
"594 361 CURVE SMOOTH",
"605 340 OFFCURVE",
"610 315 OFFCURVE",
"610 287 CURVE SMOOTH",
"610 146 OFFCURVE",
"510 66 OFFCURVE",
"326 66 CURVE SMOOTH",
"234 66 OFFCURVE",
"124 101 OFFCURVE",
"25 162 CURVE",
"25 55 LINE",
"113 5 OFFCURVE",
"215 -20 OFFCURVE",
"330 -20 CURVE SMOOTH",
"448 -20 OFFCURVE",
"541 8 OFFCURVE",
"610 65 CURVE SMOOTH",
"679 122 OFFCURVE",
"713 199 OFFCURVE",
"713 295 CURVE SMOOTH"
);
}
);
width = 827;
}
);
unicode = 0073;
},
{
glyphname = germandbls;
lastChange = "2013-03-09 11:19:16 +0200";
layers = (
{
layerId = UUID0;
name = "Light Italic";
paths = (
{
closed = 1;
nodes = (
"-17 -492 OFFCURVE",
"77 -406 OFFCURVE",
"121 -203 CURVE",
"412 1174 LINE SMOOTH",
"455 1378 OFFCURVE",
"553 1479 OFFCURVE",
"725 1479 CURVE SMOOTH",
"852 1479 OFFCURVE",
"930 1422 OFFCURVE",
"930 1329 CURVE SMOOTH",
"930 1292 OFFCURVE",
"920 1259 OFFCURVE",
"899 1228 CURVE SMOOTH",
"879 1197 OFFCURVE",
"835 1159 OFFCURVE",
"768 1112 CURVE SMOOTH",
"703 1065 OFFCURVE",
"657 1027 OFFCURVE",
"630 998 CURVE SMOOTH",
"604 970 OFFCURVE",
"584 941 OFFCURVE",
"570 910 CURVE SMOOTH",
"556 879 OFFCURVE",
"549 845 OFFCURVE",
"549 807 CURVE SMOOTH",
"549 715 OFFCURVE",
"596 652 OFFCURVE",
"705 575 CURVE SMOOTH",
"809 503 OFFCURVE",
"846 438 OFFCURVE",
"846 338 CURVE SMOOTH",
"846 255 OFFCURVE",
"820 190 OFFCURVE",
"769 143 CURVE SMOOTH",
"718 96 OFFCURVE",
"649 72 OFFCURVE",
"561 72 CURVE SMOOTH",
"520 72 OFFCURVE",
"476 80 OFFCURVE",
"431 95 CURVE SMOOTH",
"386 110 OFFCURVE",
"349 130 OFFCURVE",
"319 154 CURVE",
"319 45 LINE",
"380 2 OFFCURVE",
"458 -20 OFFCURVE",
"553 -20 CURVE SMOOTH",
"673 -20 OFFCURVE",
"768 13 OFFCURVE",
"839 79 CURVE SMOOTH",
"910 145 OFFCURVE",
"946 235 OFFCURVE",
"946 348 CURVE SMOOTH",
"946 475 OFFCURVE",
"894 563 OFFCURVE",
"766 647 CURVE SMOOTH",
"687 698 OFFCURVE",
"639 743 OFFCURVE",
"639 811 CURVE SMOOTH",
"639 850 OFFCURVE",
"650 885 OFFCURVE",
"673 917 CURVE SMOOTH",
"696 950 OFFCURVE",
"744 991 OFFCURVE",
"815 1042 CURVE",
"896 1097 OFFCURVE",
"952 1147 OFFCURVE",
"981 1190 CURVE SMOOTH",
"1011 1234 OFFCURVE",
"1026 1281 OFFCURVE",
"1026 1331 CURVE SMOOTH",
"1026 1482 OFFCURVE",
"916 1567 OFFCURVE",
"733 1567 CURVE SMOOTH",
"516 1567 OFFCURVE",
"381 1448 OFFCURVE",
"328 1210 CURVE",
"23 -199 LINE SMOOTH",
"-6 -336 OFFCURVE",
"-61 -403 OFFCURVE",
"-166 -403 CURVE SMOOTH",
"-207 -403 OFFCURVE",
"-246 -395 OFFCURVE",
"-281 -379 CURVE",
"-281 -469 LINE",
"-250 -484 OFFCURVE",
"-211 -492 OFFCURVE",
"-162 -492 CURVE SMOOTH"
);
}
);
width = 1094;
}
);
unicode = 00DF;
},
{
glyphname = t;
lastChange = "2013-03-09 11:19:16 +0200";
layers = (
{
layerId = UUID0;
name = "Light Italic";
paths = (
{
closed = 1;
nodes = (
"408 1087 LINE",
"463 1343 LINE",
"408 1343 LINE",
"311 1090 LINE",
"127 1073 LINE",
"113 1006 LINE",
"295 1006 LINE",
"166 399 LINE SMOOTH",
"147 310 OFFCURVE",
"137 242 OFFCURVE",
"137 193 CURVE SMOOTH",
"137 54 OFFCURVE",
"212 -20 OFFCURVE",
"344 -20 CURVE SMOOTH",
"390 -20 OFFCURVE",
"447 -11 OFFCURVE",
"514 8 CURVE",
"514 94 LINE",
"458 77 OFFCURVE",
"407 68 OFFCURVE",
"362 68 CURVE SMOOTH",
"278 68 OFFCURVE",
"236 114 OFFCURVE",
"236 207 CURVE SMOOTH",
"236 250 OFFCURVE",
"243 305 OFFCURVE",
"258 371 CURVE",
"393 1006 LINE",
"676 1006 LINE",
"694 1087 LINE"
);
}
);
width = 616;
}
);
unicode = 0074;
},
{
glyphname = u;
lastChange = "2013-03-09 11:19:16 +0200";
layers = (
{
layerId = UUID0;
name = "Light Italic";
paths = (
{
closed = 1;
nodes = (
"281 1087 LINE",
"131 397 LINE",
"116 324 OFFCURVE",
"109 267 OFFCURVE",
"109 227 CURVE SMOOTH",
"109 68 OFFCURVE",
"200 -16 OFFCURVE",
"375 -16 CURVE SMOOTH",
"532 -16 OFFCURVE",
"667 58 OFFCURVE",
"778 205 CURVE",
"784 205 LINE",
"756 0 LINE",
"836 0 LINE",
"1067 1087 LINE",
"969 1087 LINE",
"864 602 LINE",
"804 286 OFFCURVE",
"615 65 OFFCURVE",
"393 70 CURVE",
"272 70 OFFCURVE",
"207 132 OFFCURVE",
"207 231 CURVE SMOOTH",
"207 266 OFFCURVE",
"214 318 OFFCURVE",
"229 389 CURVE SMOOTH",
"381 1087 LINE"
);
}
);
width = 1143;
}
);
unicode = 0075;
},
{
glyphname = v;
lastChange = "2013-03-09 11:19:16 +0200";
layers = (
{
layerId = UUID0;
name = "Light Italic";
paths = (
{
closed = 1;
nodes = (
"389 0 LINE",
"989 1087 LINE",
"887 1087 LINE",
"481 354 LINE SMOOTH",
"429 260 OFFCURVE",
"386 175 OFFCURVE",
"352 98 CURVE",
"346 98 LINE",
"341 157 OFFCURVE",
"330 242 OFFCURVE",
"313 352 CURVE",
"205 1087 LINE",
"104 1087 LINE",
"276 0 LINE"
);
}
);
width = 895;
}
);
unicode = 0076;
},
{
glyphname = w;
lastChange = "2013-03-09 11:19:16 +0200";
layers = (
{
layerId = UUID0;
name = "Light Italic";
paths = (
{
closed = 1;
nodes = (
"946 0 LINE",
"1454 1087 LINE",
"1358 1087 LINE",
"1038 406 LINE",
"937 170 LINE",
"913 109 LINE",
"907 109 LINE",
"907 209 OFFCURVE",
"902 308 OFFCURVE",
"893 406 CURVE SMOOTH",
"829 1087 LINE",
"752 1087 LINE",
"379 406 LINE SMOOTH",
"320 297 OFFCURVE",
"270 198 OFFCURVE",
"229 109 CURVE",
"223 109 LINE",
"226 266 LINE",
"213 1087 LINE",
"121 1087 LINE",
"141 0 LINE",
"258 0 LINE",
"614 662 LINE",
"687 794 OFFCURVE",
"735 891 OFFCURVE",
"758 952 CURVE",
"764 952 LINE",
"764 924 OFFCURVE",
"769 835 OFFCURVE",
"778 686 CURVE",
"838 0 LINE"
);
}
);
width = 1393;
}
);
unicode = 0077;
},
{
glyphname = x;
lastChange = "2013-03-09 11:19:16 +0200";
layers = (
{
layerId = UUID0;
name = "Light Italic";
paths = (
{
closed = 1;
nodes = (
"666 0 LINE",
"764 0 LINE",
"506 553 LINE",
"954 1087 LINE",
"834 1087 LINE",
"461 625 LINE",
"254 1087 LINE",
"154 1087 LINE",
"399 559 LINE",
"-72 0 LINE",
"49 0 LINE",
"442 483 LINE"
);
}
);
width = 922;
}
);
unicode = 0078;
},
{
glyphname = y;
lastChange = "2013-03-09 11:19:16 +0200";
layers = (
{
layerId = UUID0;
name = "Light Italic";
paths = (
{
closed = 1;
nodes = (
"297 -8 LINE",
"197 -192 LINE SMOOTH",
"155 -269 OFFCURVE",
"112 -323 OFFCURVE",
"67 -356 CURVE SMOOTH",
"22 -389 OFFCURVE",
"-27 -406 OFFCURVE",
"-80 -406 CURVE SMOOTH",
"-124 -406 OFFCURVE",
"-170 -397 OFFCURVE",
"-217 -379 CURVE",
"-217 -471 LINE",
"-176 -485 OFFCURVE",
"-133 -492 OFFCURVE",
"-88 -492 CURVE SMOOTH",
"23 -492 OFFCURVE",
"105 -449 OFFCURVE",
"172 -381 CURVE SMOOTH",
"206 -347 OFFCURVE",
"247 -288 OFFCURVE",
"295 -203 CURVE",
"1008 1087 LINE",
"905 1087 LINE",
"557 457 LINE",
"462 282 OFFCURVE",
"400 160 OFFCURVE",
"371 90 CURVE",
"360 90 LINE",
"357 155 OFFCURVE",
"339 305 OFFCURVE",
"305 539 CURVE",
"223 1087 LINE",
"123 1087 LINE"
);
}
);
width = 920;
}
);
unicode = 0079;
},
{
glyphname = z;
lastChange = "2013-03-09 11:19:16 +0200";
layers = (
{
layerId = UUID0;
name = "Light Italic";
paths = (
{
closed = 1;
nodes = (
"717 84 LINE",
"115 84 LINE",
"877 1004 LINE",
"895 1087 LINE",
"236 1087 LINE",
"219 1004 LINE",
"762 1004 LINE",
"-14 72 LINE",
"-29 0 LINE",
"700 0 LINE"
);
}
);
width = 887;
}
);
unicode = 007A;
},
{
glyphname = ordfeminine;
lastChange = "2013-03-09 11:19:16 +0200";
layers = (
{
layerId = UUID0;
name = "Light Italic";
paths = (
{
closed = 1;
nodes = (
"396 1485 OFFCURVE",
"321 1441 OFFCURVE",
"260 1353 CURVE SMOOTH",
"200 1265 OFFCURVE",
"170 1158 OFFCURVE",
"170 1032 CURVE SMOOTH",
"170 888 OFFCURVE",
"237 811 OFFCURVE",
"344 811 CURVE SMOOTH",
"429 811 OFFCURVE",
"503 857 OFFCURVE",
"567 948 CURVE",
"571 948 LINE",
"549 823 LINE",
"621 823 LINE",
"758 1473 LINE",
"692 1473 LINE",
"657 1370 LINE",
"651 1370 LINE",
"619 1446 OFFCURVE",
"560 1485 OFFCURVE",
"487 1485 CURVE SMOOTH"
);
},
{
closed = 1;
nodes = (
"295 885 OFFCURVE",
"258 933 OFFCURVE",
"258 1028 CURVE SMOOTH",
"258 1135 OFFCURVE",
"280 1225 OFFCURVE",
"325 1299 CURVE SMOOTH",
"370 1374 OFFCURVE",
"424 1411 OFFCURVE",
"487 1411 CURVE SMOOTH",
"525 1411 OFFCURVE",
"556 1397 OFFCURVE",
"580 1368 CURVE SMOOTH",
"604 1340 OFFCURVE",
"616 1307 OFFCURVE",
"616 1268 CURVE SMOOTH",
"616 1220 OFFCURVE",
"611 1179 OFFCURVE",
"600 1145 CURVE",
"580 1072 OFFCURVE",
"547 1011 OFFCURVE",
"502 960 CURVE SMOOTH",
"457 910 OFFCURVE",
"413 885 OFFCURVE",
"369 885 CURVE SMOOTH"
);
}
);
width = 643;
}
);
unicode = 00AA;
},
{
glyphname = ordmasculine;
lastChange = "2013-03-09 11:19:16 +0200";
layers = (
{
layerId = UUID0;
name = "Light Italic";
paths = (
{
closed = 1;
nodes = (
"390 1479 OFFCURVE",
"287 1399 OFFCURVE",
"231 1268 CURVE SMOOTH",
"204 1203 OFFCURVE",
"190 1134 OFFCURVE",
"190 1059 CURVE SMOOTH",
"190 903 OFFCURVE",
"262 807 OFFCURVE",
"414 807 CURVE",
"615 801 OFFCURVE",
"744 1006 OFFCURVE",
"743 1235 CURVE SMOOTH",
"743 1390 OFFCURVE",
"658 1479 OFFCURVE",
"518 1479 CURVE SMOOTH"
);
},
{
closed = 1;
nodes = (
"609 1405 OFFCURVE",
"662 1342 OFFCURVE",
"662 1231 CURVE SMOOTH",
"662 1042 OFFCURVE",
"571 876 OFFCURVE",
"426 881 CURVE",
"322 881 OFFCURVE",
"270 943 OFFCURVE",
"270 1067 CURVE",
"268 1243 OFFCURVE",
"369 1409 OFFCURVE",
"508 1405 CURVE"
);
}
);
width = 655;
}
);
unicode = 00BA;
},
{
glyphname = zero;
lastChange = "2013-03-09 11:19:16 +0200";
layers = (
{
layerId = UUID0;
name = "Light Italic";
paths = (
{
closed = 1;
nodes = (
"1075 1329 OFFCURVE",
"962 1485 OFFCURVE",
"735 1485 CURVE SMOOTH",
"558 1485 OFFCURVE",
"414 1394 OFFCURVE",
"307 1209 CURVE SMOOTH",
"254 1117 OFFCURVE",
"213 1006 OFFCURVE",
"183 875 CURVE SMOOTH",
"154 745 OFFCURVE",
"139 618 OFFCURVE",
"139 494 CURVE SMOOTH",
"139 146 OFFCURVE",
"257 -20 OFFCURVE",
"492 -20 CURVE SMOOTH",
"671 -20 OFFCURVE",
"817 76 OFFCURVE",
"917 265 CURVE SMOOTH",
"968 360 OFFCURVE",
"1007 475 OFFCURVE",
"1034 611 CURVE SMOOTH",
"1061 747 OFFCURVE",
"1075 882 OFFCURVE",
"1075 1016 CURVE SMOOTH"
);
},
{
closed = 1;
nodes = (
"898 1397 OFFCURVE",
"973 1271 OFFCURVE",
"973 1006 CURVE SMOOTH",
"973 830 OFFCURVE",
"953 667 OFFCURVE",
"912 517 CURVE SMOOTH",
"871 367 OFFCURVE",
"816 255 OFFCURVE",
"746 180 CURVE SMOOTH",
"676 105 OFFCURVE",
"595 68 OFFCURVE",
"502 68 CURVE SMOOTH",
"322 68 OFFCURVE",
"242 208 OFFCURVE",
"242 504 CURVE SMOOTH",
"242 661 OFFCURVE",
"264 811 OFFCURVE",
"308 955 CURVE SMOOTH",
"352 1099 OFFCURVE",
"410 1209 OFFCURVE",
"481 1284 CURVE SMOOTH",
"553 1359 OFFCURVE",
"634 1397 OFFCURVE",
"723 1397 CURVE SMOOTH"
);
}
);
width = 1128;
}
);
unicode = 0030;
},
{
glyphname = one;
lastChange = "2013-03-09 11:19:16 +0200";
layers = (
{
layerId = UUID0;
name = "Light Italic";
paths = (
{
closed = 1;
nodes = (
"850 1462 LINE",
"760 1462 LINE",
"354 1204 LINE",
"406 1126 LINE",
"550 1217 OFFCURVE",
"633 1270 OFFCURVE",
"655 1287 CURVE SMOOTH",
"678 1304 OFFCURVE",
"703 1324 OFFCURVE",
"731 1348 CURVE",
"694 1214 OFFCURVE",
"670 1116 OFFCURVE",
"657 1055 CURVE SMOOTH",
"432 0 LINE",
"537 0 LINE"
);
}
);
width = 1128;
}
);
unicode = 0031;
},
{
glyphname = two;
lastChange = "2013-03-09 11:19:16 +0200";
layers = (
{
layerId = UUID0;
name = "Light Italic";
paths = (
{
closed = 1;
nodes = (
"926 96 LINE",
"190 96 LINE",
"190 100 LINE",
"573 438 LINE",
"715 565 OFFCURVE",
"819 666 OFFCURVE",
"884 741 CURVE SMOOTH",
"949 816 OFFCURVE",
"996 887 OFFCURVE",
"1025 952 CURVE SMOOTH",
"1054 1018 OFFCURVE",
"1069 1088 OFFCURVE",
"1069 1161 CURVE SMOOTH",
"1069 1364 OFFCURVE",
"936 1483 OFFCURVE",
"705 1483 CURVE SMOOTH",
"562 1483 OFFCURVE",
"431 1434 OFFCURVE",
"311 1337 CURVE",
"365 1264 LINE",
"470 1350 OFFCURVE",
"581 1393 OFFCURVE",
"698 1393 CURVE SMOOTH",
"873 1393 OFFCURVE",
"961 1298 OFFCURVE",
"961 1149 CURVE SMOOTH",
"961 1025 OFFCURVE",
"909 915 OFFCURVE",
"794 782 CURVE SMOOTH",
"737 716 OFFCURVE",
"642 624 OFFCURVE",
"510 506 CURVE SMOOTH",
"61 104 LINE",
"39 0 LINE",
"909 0 LINE"
);
}
);
width = 1128;
}
);
unicode = 0032;
},
{
glyphname = three;
lastChange = "2013-03-09 11:19:16 +0200";
layers = (
{
layerId = UUID0;
name = "Light Italic";
paths = (
{
closed = 1;
nodes = (
"1049 1270 OFFCURVE",
"1018 1345 OFFCURVE",
"957 1400 CURVE SMOOTH",
"896 1455 OFFCURVE",
"812 1483 OFFCURVE",
"705 1483 CURVE SMOOTH",
"553 1483 OFFCURVE",
"411 1430 OFFCURVE",
"299 1341 CURVE",
"348 1266 LINE",
"466 1353 OFFCURVE",
"581 1397 OFFCURVE",
"692 1397 CURVE SMOOTH",
"859 1397 OFFCURVE",
"944 1313 OFFCURVE",
"944 1161 CURVE SMOOTH",
"944 1052 OFFCURVE",
"903 966 OFFCURVE",
"820 902 CURVE SMOOTH",
"737 839 OFFCURVE",
"626 807 OFFCURVE",
"487 807 CURVE SMOOTH",
"377 807 LINE",
"356 711 LINE",
"473 711 LINE SMOOTH",
"684 711 OFFCURVE",
"809 603 OFFCURVE",
"809 410 CURVE SMOOTH",
"809 193 OFFCURVE",
"662 68 OFFCURVE",
"399 68 CURVE SMOOTH",
"284 68 OFFCURVE",
"170 97 OFFCURVE",
"55 154 CURVE",
"55 53 LINE",
"142 10 OFFCURVE",
"265 -20 OFFCURVE",
"393 -20 CURVE",
"708 -25 OFFCURVE",
"912 139 OFFCURVE",
"911 410 CURVE SMOOTH",
"911 500 OFFCURVE",
"888 575 OFFCURVE",
"842 636 CURVE SMOOTH",
"797 697 OFFCURVE",
"735 736 OFFCURVE",
"657 752 CURVE",
"657 756 LINE",
"777 776 OFFCURVE",
"872 824 OFFCURVE",
"943 899 CURVE SMOOTH",
"1014 974 OFFCURVE",
"1049 1066 OFFCURVE",
"1049 1174 CURVE SMOOTH"
);
}
);
width = 1128;
}
);
unicode = 0033;
},
{
glyphname = four;
lastChange = "2013-03-09 11:19:16 +0200";
layers = (
{
layerId = UUID0;
name = "Light Italic";
paths = (
{
closed = 1;
nodes = (
"1092 459 LINE",
"827 459 LINE",
"1042 1477 LINE",
"924 1477 LINE",
"43 467 LINE",
"23 371 LINE",
"711 371 LINE",
"631 0 LINE",
"727 0 LINE",
"807 371 LINE",
"1071 371 LINE"
);
},
{
closed = 1;
nodes = (
"150 459 LINE",
"801 1206 LINE",
"843 1256 OFFCURVE",
"886 1311 OFFCURVE",
"930 1372 CURVE",
"934 1372 LINE",
"903 1262 OFFCURVE",
"875 1144 OFFCURVE",
"848 1017 CURVE SMOOTH",
"821 891 OFFCURVE",
"782 705 OFFCURVE",
"729 459 CURVE"
);
}
);
width = 1128;
}
);
unicode = 0034;
},
{
glyphname = five;
lastChange = "2013-03-09 11:19:16 +0200";
layers = (
{
layerId = UUID0;
name = "Light Italic";
paths = (
{
closed = 1;
nodes = (
"504 879 OFFCURVE",
"432 869 OFFCURVE",
"367 850 CURVE",
"516 1366 LINE",
"1057 1366 LINE",
"1075 1462 LINE",
"451 1462 LINE",
"258 803 LINE",
"324 754 LINE",
"397 781 OFFCURVE",
"478 795 OFFCURVE",
"567 795 CURVE SMOOTH",
"660 795 OFFCURVE",
"735 768 OFFCURVE",
"792 715 CURVE SMOOTH",
"849 662 OFFCURVE",
"877 589 OFFCURVE",
"877 496 CURVE SMOOTH",
"877 363 OFFCURVE",
"837 259 OFFCURVE",
"756 182 CURVE SMOOTH",
"676 106 OFFCURVE",
"567 68 OFFCURVE",
"428 68 CURVE SMOOTH",
"315 68 OFFCURVE",
"201 98 OFFCURVE",
"88 158 CURVE",
"88 51 LINE",
"131 30 OFFCURVE",
"184 13 OFFCURVE",
"246 0 CURVE SMOOTH",
"309 -13 OFFCURVE",
"368 -20 OFFCURVE",
"424 -20 CURVE SMOOTH",
"597 -20 OFFCURVE",
"732 27 OFFCURVE",
"831 120 CURVE SMOOTH",
"930 214 OFFCURVE",
"979 340 OFFCURVE",
"979 498 CURVE SMOOTH",
"979 616 OFFCURVE",
"944 709 OFFCURVE",
"874 777 CURVE SMOOTH",
"805 845 OFFCURVE",
"707 879 OFFCURVE",
"582 879 CURVE SMOOTH"
);
}
);
width = 1128;
}
);
unicode = 0035;
},
{
glyphname = six;
lastChange = "2013-03-09 11:19:16 +0200";
layers = (
{
layerId = UUID0;
name = "Light Italic";
paths = (
{
closed = 1;
nodes = (
"170 288 OFFCURVE",
"201 178 OFFCURVE",
"264 99 CURVE SMOOTH",
"327 20 OFFCURVE",
"416 -20 OFFCURVE",
"530 -20 CURVE",
"822 -26 OFFCURVE",
"1022 215 OFFCURVE",
"1018 526 CURVE",
"1018 769 OFFCURVE",
"893 909 OFFCURVE",
"678 909 CURVE SMOOTH",
"525 909 OFFCURVE",
"394 842 OFFCURVE",
"303 717 CURVE",
"295 717 LINE",
"344 936 OFFCURVE",
"421 1103 OFFCURVE",
"528 1219 CURVE SMOOTH",
"635 1335 OFFCURVE",
"767 1393 OFFCURVE",
"922 1393 CURVE SMOOTH",
"978 1393 OFFCURVE",
"1035 1385 OFFCURVE",
"1092 1370 CURVE",
"1110 1460 LINE",
"1071 1474 OFFCURVE",
"1010 1481 OFFCURVE",
"928 1481 CURVE SMOOTH",
"636 1481 OFFCURVE",
"415 1321 OFFCURVE",
"275 972 CURVE SMOOTH",
"205 798 OFFCURVE",
"170 617 OFFCURVE",
"170 428 CURVE SMOOTH"
);
},
{
closed = 1;
nodes = (
"372 68 OFFCURVE",
"270 195 OFFCURVE",
"270 414 CURVE SMOOTH",
"270 490 OFFCURVE",
"277 548 OFFCURVE",
"292 587 CURVE SMOOTH",
"307 627 OFFCURVE",
"333 665 OFFCURVE",
"370 702 CURVE SMOOTH",
"445 777 OFFCURVE",
"545 821 OFFCURVE",
"653 821 CURVE SMOOTH",
"824 821 OFFCURVE",
"915 713 OFFCURVE",
"915 518 CURVE",
"918 267 OFFCURVE",
"767 63 OFFCURVE",
"543 68 CURVE"
);
}
);
width = 1128;
}
);
unicode = 0036;
},
{
glyphname = seven;
lastChange = "2013-03-09 11:19:16 +0200";
layers = (
{
layerId = UUID0;
name = "Light Italic";
paths = (
{
closed = 1;
nodes = (
"356 0 LINE",
"1135 1352 LINE",
"1155 1462 LINE",
"297 1462 LINE",
"274 1366 LINE",
"1040 1366 LINE",
"244 0 LINE"
);
}
);
width = 1128;
}
);
unicode = 0037;
},
{
glyphname = eight;
lastChange = "2013-03-09 11:19:16 +0200";
layers = (
{
layerId = UUID0;
name = "Light Italic";
paths = (
{
closed = 1;
nodes = (
"619 1485 OFFCURVE",
"522 1450 OFFCURVE",
"446 1379 CURVE SMOOTH",
"370 1308 OFFCURVE",
"332 1220 OFFCURVE",
"332 1114 CURVE SMOOTH",
"332 981 OFFCURVE",
"387 878 OFFCURVE",
"520 782 CURVE",
"373 730 OFFCURVE",
"265 667 OFFCURVE",
"198 594 CURVE SMOOTH",
"131 521 OFFCURVE",
"98 432 OFFCURVE",
"98 326 CURVE SMOOTH",
"98 219 OFFCURVE",
"133 134 OFFCURVE",
"203 72 CURVE",
"274 11 OFFCURVE",
"368 -20 OFFCURVE",
"487 -20 CURVE SMOOTH",
"791 -20 OFFCURVE",
"971 152 OFFCURVE",
"971 385 CURVE SMOOTH",
"971 540 OFFCURVE",
"894 660 OFFCURVE",
"721 764 CURVE",
"855 815 OFFCURVE",
"950 872 OFFCURVE",
"1006 936 CURVE SMOOTH",
"1062 1001 OFFCURVE",
"1090 1079 OFFCURVE",
"1090 1171 CURVE SMOOTH",
"1090 1267 OFFCURVE",
"1058 1343 OFFCURVE",
"995 1400 CURVE SMOOTH",
"932 1457 OFFCURVE",
"846 1485 OFFCURVE",
"737 1485 CURVE SMOOTH"
);
},
{
closed = 1;
nodes = (
"791 637 OFFCURVE",
"870 526 OFFCURVE",
"870 387 CURVE SMOOTH",
"870 292 OFFCURVE",
"836 215 OFFCURVE",
"768 154 CURVE SMOOTH",
"700 93 OFFCURVE",
"610 63 OFFCURVE",
"498 63 CURVE SMOOTH",
"309 63 OFFCURVE",
"201 159 OFFCURVE",
"201 340 CURVE SMOOTH",
"201 427 OFFCURVE",
"233 502 OFFCURVE",
"296 565 CURVE SMOOTH",
"360 628 OFFCURVE",
"465 684 OFFCURVE",
"610 733 CURVE"
);
},
{
closed = 1;
nodes = (
"894 1399 OFFCURVE",
"993 1308 OFFCURVE",
"993 1163 CURVE SMOOTH",
"993 1080 OFFCURVE",
"964 1012 OFFCURVE",
"906 957 CURVE SMOOTH",
"848 902 OFFCURVE",
"755 854 OFFCURVE",
"627 813 CURVE",
"550 862 OFFCURVE",
"497 910 OFFCURVE",
"469 955 CURVE SMOOTH",
"442 1000 OFFCURVE",
"428 1053 OFFCURVE",
"428 1114 CURVE SMOOTH",
"428 1195 OFFCURVE",
"456 1262 OFFCURVE",
"512 1317 CURVE SMOOTH",
"569 1372 OFFCURVE",
"640 1399 OFFCURVE",
"727 1399 CURVE SMOOTH"
);
}
);
width = 1128;
}
);
unicode = 0038;
},
{
glyphname = nine;
lastChange = "2013-03-09 11:19:16 +0200";
layers = (
{
layerId = UUID0;
name = "Light Italic";
paths = (
{
closed = 1;
nodes = (
"1059 1323 OFFCURVE",
"930 1481 OFFCURVE",
"698 1481 CURVE SMOOTH",
"503 1481 OFFCURVE",
"350 1383 OFFCURVE",
"270 1215 CURVE SMOOTH",
"231 1131 OFFCURVE",
"211 1037 OFFCURVE",
"211 934 CURVE SMOOTH",
"211 815 OFFCURVE",
"242 720 OFFCURVE",
"304 650 CURVE SMOOTH",
"366 580 OFFCURVE",
"451 545 OFFCURVE",
"559 545 CURVE SMOOTH",
"710 545 OFFCURVE",
"833 609 OFFCURVE",
"926 737 CURVE",
"934 737 LINE",
"832 288 OFFCURVE",
"623 63 OFFCURVE",
"307 63 CURVE SMOOTH",
"237 63 OFFCURVE",
"173 73 OFFCURVE",
"115 92 CURVE",
"115 2 LINE",
"163 -13 OFFCURVE",
"225 -20 OFFCURVE",
"301 -20 CURVE SMOOTH",
"609 -20 OFFCURVE",
"822 137 OFFCURVE",
"957 484 CURVE SMOOTH",
"1025 657 OFFCURVE",
"1059 840 OFFCURVE",
"1059 1032 CURVE SMOOTH"
);
},
{
closed = 1;
nodes = (
"859 1393 OFFCURVE",
"958 1268 OFFCURVE",
"958 1047 CURVE SMOOTH",
"958 969 OFFCURVE",
"951 910 OFFCURVE",
"936 871 CURVE SMOOTH",
"921 832 OFFCURVE",
"896 794 OFFCURVE",
"859 757 CURVE SMOOTH",
"787 684 OFFCURVE",
"684 637 OFFCURVE",
"573 637 CURVE SMOOTH",
"406 637 OFFCURVE",
"313 749 OFFCURVE",
"313 942 CURVE",
"309 1194 OFFCURVE",
"461 1399 OFFCURVE",
"686 1393 CURVE"
);
}
);
width = 1128;
}
);
unicode = 0039;
},
{
glyphname = fraction;
lastChange = "2013-03-09 11:19:16 +0200";
layers = (
{
layerId = UUID0;
name = "Light Italic";
paths = (
{
closed = 1;
nodes = (
"623 1462 LINE",
"-463 0 LINE",
"-356 0 LINE",
"731 1462 LINE"
);
}
);
width = 274;
}
);
unicode = 2044;
},
{
glyphname = asterisk;
lastChange = "2013-03-09 11:19:16 +0200";
layers = (
{
layerId = UUID0;
name = "Light Italic";
paths = (
{
closed = 1;
nodes = (
"713 1559 LINE",
"666 1151 LINE",
"272 1319 LINE",
"233 1217 LINE",
"625 1092 LINE",
"307 774 LINE",
"385 696 LINE",
"670 1044 LINE",
"805 627 LINE",
"920 664 LINE",
"739 1065 LINE",
"1155 1036 LINE",
"1163 1143 LINE",
"725 1135 LINE",
"834 1540 LINE"
);
}
);
width = 1137;
}
);
unicode = 002A;
},
{
glyphname = backslash;
lastChange = "2013-03-09 11:19:16 +0200";
layers = (
{
layerId = UUID0;
name = "Light Italic";
paths = (
{
closed = 1;
nodes = (
"209 1462 LINE",
"455 0 LINE",
"537 0 LINE",
"295 1462 LINE"
);
}
);
width = 641;
}
);
unicode = 005C;
},
{
glyphname = bullet;
lastChange = "2013-03-09 11:19:16 +0200";
layers = (
{
layerId = UUID0;
name = "Light Italic";
paths = (
{
closed = 1;
nodes = (
"248 577 OFFCURVE",
"298 524 OFFCURVE",
"397 524 CURVE SMOOTH",
"470 524 OFFCURVE",
"529 551 OFFCURVE",
"573 606 CURVE SMOOTH",
"617 661 OFFCURVE",
"639 730 OFFCURVE",
"639 813 CURVE SMOOTH",
"639 918 OFFCURVE",
"584 971 OFFCURVE",
"483 971 CURVE SMOOTH",
"338 971 OFFCURVE",
"248 865 OFFCURVE",
"248 682 CURVE SMOOTH"
);
}
);
width = 793;
}
);
unicode = 2022;
},
{
glyphname = colon;
lastChange = "2013-03-09 11:19:16 +0200";
layers = (
{
layerId = UUID0;
name = "Light Italic";
paths = (
{
closed = 1;
nodes = (
"260 940 OFFCURVE",
"283 915 OFFCURVE",
"328 915 CURVE SMOOTH",
"384 915 OFFCURVE",
"420 965 OFFCURVE",
"420 1038 CURVE SMOOTH",
"420 1086 OFFCURVE",
"398 1110 OFFCURVE",
"354 1110 CURVE SMOOTH",
"297 1110 OFFCURVE",
"260 1065 OFFCURVE",
"260 989 CURVE SMOOTH"
);
},
{
closed = 1;
nodes = (
"102 6 OFFCURVE",
"125 -18 OFFCURVE",
"170 -18 CURVE SMOOTH",
"225 -18 OFFCURVE",
"262 31 OFFCURVE",
"262 104 CURVE SMOOTH",
"262 152 OFFCURVE",
"240 176 OFFCURVE",
"197 176 CURVE SMOOTH",
"138 176 OFFCURVE",
"102 130 OFFCURVE",
"102 55 CURVE SMOOTH"
);
}
);
width = 485;
}
);
unicode = 003A;
},
{
glyphname = comma;
lastChange = "2013-03-09 11:19:16 +0200";
layers = (
{
layerId = UUID0;
name = "Light Italic";
paths = (
{
closed = 1;
nodes = (
"139 238 LINE",
"122 177 OFFCURVE",
"92 100 OFFCURVE",
"51 7 CURVE SMOOTH",
"10 -86 OFFCURVE",
"-37 -176 OFFCURVE",
"-90 -264 CURVE",
"-16 -264 LINE",
"37 -195 OFFCURVE",
"91 -113 OFFCURVE",
"144 -18 CURVE SMOOTH",
"197 76 OFFCURVE",
"235 154 OFFCURVE",
"258 215 CURVE",
"250 238 LINE"
);
}
);
width = 451;
}
);
unicode = 002C;
},
{
glyphname = exclam;
lastChange = "2013-03-09 11:19:16 +0200";
layers = (
{
layerId = UUID0;
name = "Light Italic";
paths = (
{
closed = 1;
nodes = (
"508 1462 LINE",
"389 1462 LINE",
"186 377 LINE",
"248 377 LINE"
);
},
{
closed = 1;
nodes = (
"80 8 OFFCURVE",
"102 -16 OFFCURVE",
"147 -16 CURVE SMOOTH",
"204 -16 OFFCURVE",
"240 35 OFFCURVE",
"240 106 CURVE SMOOTH",
"240 154 OFFCURVE",
"218 178 OFFCURVE",
"174 178 CURVE SMOOTH",
"115 178 OFFCURVE",
"80 132 OFFCURVE",
"80 57 CURVE SMOOTH"
);
}
);
width = 502;
}
);
unicode = 0021;
},
{
glyphname = exclamdown;
lastChange = "2013-03-09 11:19:16 +0200";
layers = (
{
layerId = UUID0;
name = "Light Italic";
paths = (
{
closed = 1;
nodes = (
"4 -375 LINE",
"123 -375 LINE",
"326 711 LINE",
"264 711 LINE"
);
},
{
closed = 1;
nodes = (
"432 1079 OFFCURVE",
"410 1104 OFFCURVE",
"365 1104 CURVE SMOOTH",
"308 1104 OFFCURVE",
"272 1054 OFFCURVE",
"272 981 CURVE SMOOTH",
"272 933 OFFCURVE",
"294 909 OFFCURVE",
"338 909 CURVE SMOOTH",
"397 909 OFFCURVE",
"432 955 OFFCURVE",
"432 1030 CURVE SMOOTH"
);
}
);
width = 502;
}
);
unicode = 00A1;
},
{
glyphname = numbersign;
lastChange = "2013-03-09 11:19:16 +0200";
layers = (
{
layerId = UUID0;
name = "Light Italic";
paths = (
{
closed = 1;
nodes = (
"90 530 LINE",
"82 451 LINE",
"365 451 LINE",
"231 0 LINE",
"319 0 LINE",
"453 451 LINE",
"813 451 LINE",
"678 0 LINE",
"768 0 LINE",
"901 451 LINE",
"1221 451 LINE",
"1229 530 LINE",
"926 530 LINE",
"1044 928 LINE",
"1346 928 LINE",
"1354 1008 LINE",
"1069 1008 LINE",
"1204 1462 LINE",
"1118 1462 LINE",
"983 1008 LINE",
"618 1008 LINE",
"754 1462 LINE",
"664 1462 LINE",
"530 1008 LINE",
"219 1008 LINE",
"211 928 LINE",
"508 928 LINE",
"389 530 LINE"
);
},
{
closed = 1;
nodes = (
"596 928 LINE",
"958 928 LINE",
"838 530 LINE",
"475 530 LINE"
);
}
);
width = 1323;
}
);
unicode = 0023;
},
{
glyphname = period;
lastChange = "2013-03-09 11:19:16 +0200";
layers = (
{
layerId = UUID0;
name = "Light Italic";
paths = (
{
closed = 1;
nodes = (
"82 6 OFFCURVE",
"105 -18 OFFCURVE",
"150 -18 CURVE SMOOTH",
"206 -18 OFFCURVE",
"242 33 OFFCURVE",
"242 104 CURVE SMOOTH",
"242 152 OFFCURVE",
"220 176 OFFCURVE",
"176 176 CURVE SMOOTH",
"117 176 OFFCURVE",
"82 130 OFFCURVE",
"82 55 CURVE SMOOTH"
);
}
);
width = 485;
}
);
unicode = 002E;
},
{
glyphname = question;
lastChange = "2013-03-09 11:19:16 +0200";
layers = (
{
layerId = UUID0;
name = "Light Italic";
paths = (
{
closed = 1;
nodes = (
"334 362 LINE",
"348 426 OFFCURVE",
"363 474 OFFCURVE",
"380 505 CURVE SMOOTH",
"397 537 OFFCURVE",
"422 569 OFFCURVE",
"453 600 CURVE SMOOTH",
"485 632 OFFCURVE",
"529 668 OFFCURVE",
"586 709 CURVE SMOOTH",
"696 788 OFFCURVE",
"773 864 OFFCURVE",
"817 935 CURVE SMOOTH",
"861 1006 OFFCURVE",
"883 1084 OFFCURVE",
"883 1169 CURVE SMOOTH",
"883 1266 OFFCURVE",
"852 1342 OFFCURVE",
"791 1398 CURVE SMOOTH",
"730 1455 OFFCURVE",
"647 1483 OFFCURVE",
"541 1483 CURVE SMOOTH",
"406 1483 OFFCURVE",
"295 1441 OFFCURVE",
"182 1376 CURVE",
"221 1290 LINE",
"333 1357 OFFCURVE",
"435 1391 OFFCURVE",
"528 1391 CURVE SMOOTH",
"681 1391 OFFCURVE",
"778 1303 OFFCURVE",
"778 1159 CURVE SMOOTH",
"778 1059 OFFCURVE",
"738 973 OFFCURVE",
"662 890 CURVE SMOOTH",
"624 849 OFFCURVE",
"566 801 OFFCURVE",
"487 745 CURVE SMOOTH",
"418 696 OFFCURVE",
"365 647 OFFCURVE",
"330 597 CURVE SMOOTH",
"295 548 OFFCURVE",
"267 479 OFFCURVE",
"248 391 CURVE SMOOTH",
"242 362 LINE"
);
},
{
closed = 1;
nodes = (
"170 10 OFFCURVE",
"193 -14 OFFCURVE",
"238 -14 CURVE SMOOTH",
"295 -14 OFFCURVE",
"330 37 OFFCURVE",
"330 109 CURVE SMOOTH",
"330 156 OFFCURVE",
"308 180 OFFCURVE",
"264 180 CURVE SMOOTH",
"205 180 OFFCURVE",
"170 134 OFFCURVE",
"170 59 CURVE SMOOTH"
);
}
);
width = 799;
}
);
unicode = 003F;
},
{
glyphname = questiondown;
lastChange = "2013-03-09 11:19:16 +0200";
layers = (
{
layerId = UUID0;
name = "Light Italic";
paths = (
{
closed = 1;
nodes = (
"549 717 LINE",
"535 654 OFFCURVE",
"520 606 OFFCURVE",
"503 575 CURVE SMOOTH",
"487 544 OFFCURVE",
"463 512 OFFCURVE",
"430 480 CURVE SMOOTH",
"398 448 OFFCURVE",
"354 412 OFFCURVE",
"297 371 CURVE SMOOTH",
"192 296 OFFCURVE",
"117 222 OFFCURVE",
"70 150 CURVE SMOOTH",
"23 79 OFFCURVE",
"0 -1 OFFCURVE",
"0 -90 CURVE SMOOTH",
"0 -186 OFFCURVE",
"30 -262 OFFCURVE",
"91 -318 CURVE SMOOTH",
"152 -375 OFFCURVE",
"236 -403 OFFCURVE",
"342 -403 CURVE SMOOTH",
"478 -403 OFFCURVE",
"587 -362 OFFCURVE",
"700 -297 CURVE",
"662 -211 LINE",
"551 -278 OFFCURVE",
"448 -311 OFFCURVE",
"354 -311 CURVE SMOOTH",
"195 -311 OFFCURVE",
"104 -221 OFFCURVE",
"104 -80 CURVE SMOOTH",
"104 20 OFFCURVE",
"144 107 OFFCURVE",
"220 188 CURVE SMOOTH",
"258 229 OFFCURVE",
"316 278 OFFCURVE",
"395 334 CURVE",
"468 388 OFFCURVE",
"522 439 OFFCURVE",
"556 488 CURVE SMOOTH",
"590 537 OFFCURVE",
"616 603 OFFCURVE",
"635 688 CURVE SMOOTH",
"641 717 LINE"
);
},
{
closed = 1;
nodes = (
"713 1069 OFFCURVE",
"690 1094 OFFCURVE",
"645 1094 CURVE SMOOTH",
"589 1094 OFFCURVE",
"553 1046 OFFCURVE",
"553 971 CURVE SMOOTH",
"553 923 OFFCURVE",
"575 899 OFFCURVE",
"618 899 CURVE SMOOTH",
"677 899 OFFCURVE",
"713 945 OFFCURVE",
"713 1020 CURVE SMOOTH"
);
}
);
width = 799;
}
);
unicode = 00BF;
},
{
glyphname = quotedbl;
lastChange = "2013-03-09 11:19:16 +0200";
layers = (
{
layerId = UUID0;
name = "Light Italic";
paths = (
{
closed = 1;
nodes = (
"328 1462 LINE",
"248 934 LINE",
"309 934 LINE",
"455 1462 LINE"
);
},
{
closed = 1;
nodes = (
"657 1462 LINE",
"578 934 LINE",
"639 934 LINE",
"784 1462 LINE"
);
}
);
width = 721;
}
);
unicode = 0022;
},
{
glyphname = quotesingle;
lastChange = "2013-03-09 11:19:16 +0200";
layers = (
{
layerId = UUID0;
name = "Light Italic";
paths = (
{
closed = 1;
nodes = (
"334 1462 LINE",
"254 934 LINE",
"315 934 LINE",
"461 1462 LINE"
);
}
);
width = 403;
}
);
unicode = 0027;
},
{
glyphname = semicolon;
lastChange = "2013-03-09 11:19:16 +0200";
layers = (
{
layerId = UUID0;
name = "Light Italic";
paths = (
{
closed = 1;
nodes = (
"176 238 LINE",
"159 177 OFFCURVE",
"129 100 OFFCURVE",
"88 7 CURVE SMOOTH",
"47 -86 OFFCURVE",
"0 -176 OFFCURVE",
"-53 -264 CURVE",
"20 -264 LINE",
"69 -203 OFFCURVE",
"121 -124 OFFCURVE",
"176 -27 CURVE SMOOTH",
"232 70 OFFCURVE",
"272 151 OFFCURVE",
"295 215 CURVE",
"287 238 LINE"
);
},
{
closed = 1;
nodes = (
"266 940 OFFCURVE",
"289 915 OFFCURVE",
"334 915 CURVE SMOOTH",
"390 915 OFFCURVE",
"426 965 OFFCURVE",
"426 1038 CURVE SMOOTH",
"426 1086 OFFCURVE",
"404 1110 OFFCURVE",
"360 1110 CURVE SMOOTH",
"303 1110 OFFCURVE",
"266 1065 OFFCURVE",
"266 989 CURVE SMOOTH"
);
}
);
width = 485;
}
);
unicode = 003B;
},
{
glyphname = slash;
lastChange = "2013-03-09 11:19:16 +0200";
layers = (
{
layerId = UUID0;
name = "Light Italic";
paths = (
{
closed = 1;
nodes = (
"715 1462 LINE",
"-100 0 LINE",
"10 0 LINE",
"827 1462 LINE"
);
}
);
width = 641;
}
);
unicode = 002F;
},
{
glyphname = underscore;
lastChange = "2013-03-09 11:19:16 +0200";
layers = (
{
layerId = UUID0;
name = "Light Italic";
paths = (
{
closed = 1;
nodes = (
"643 -205 LINE",
"-164 -205 LINE",
"-182 -291 LINE",
"625 -291 LINE"
);
}
);
width = 801;
}
);
unicode = 005F;
},
{
glyphname = braceleft;
lastChange = "2013-03-09 11:19:16 +0200";
layers = (
{
layerId = UUID0;
name = "Light Italic";
paths = (
{
closed = 1;
nodes = (
"444 -324 LINE",
"444 -238 LINE",
"377 -238 OFFCURVE",
"330 -229 OFFCURVE",
"305 -210 CURVE SMOOTH",
"280 -191 OFFCURVE",
"268 -162 OFFCURVE",
"268 -121 CURVE SMOOTH",
"268 -92 OFFCURVE",
"272 -59 OFFCURVE",
"281 -20 CURVE",
"328 205 LINE SMOOTH",
"344 280 OFFCURVE",
"352 334 OFFCURVE",
"352 369 CURVE SMOOTH",
"352 464 OFFCURVE",
"300 535 OFFCURVE",
"209 559 CURVE",
"209 563 LINE",
"278 575 OFFCURVE",
"332 601 OFFCURVE",
"373 641 CURVE SMOOTH",
"414 682 OFFCURVE",
"445 747 OFFCURVE",
"465 836 CURVE SMOOTH",
"539 1174 LINE",
"563 1277 OFFCURVE",
"596 1331 OFFCURVE",
"653 1355 CURVE SMOOTH",
"682 1368 OFFCURVE",
"725 1375 OFFCURVE",
"782 1376 CURVE",
"799 1462 LINE",
"770 1462 LINE SMOOTH",
"585 1462 OFFCURVE",
"489 1386 OFFCURVE",
"449 1206 CURVE SMOOTH",
"360 813 LINE SMOOTH",
"328 668 OFFCURVE",
"248 606 OFFCURVE",
"80 606 CURVE",
"59 528 LINE",
"192 528 OFFCURVE",
"258 475 OFFCURVE",
"258 369 CURVE SMOOTH",
"258 344 OFFCURVE",
"252 302 OFFCURVE",
"240 242 CURVE",
"184 -10 LINE SMOOTH",
"173 -57 OFFCURVE",
"168 -95 OFFCURVE",
"168 -125 CURVE SMOOTH",
"168 -258 OFFCURVE",
"253 -324 OFFCURVE",
"424 -324 CURVE SMOOTH"
);
}
);
width = 709;
}
);
unicode = 007B;
},
{
glyphname = braceright;
lastChange = "2013-03-09 11:19:16 +0200";
layers = (
{
layerId = UUID0;
name = "Light Italic";
paths = (
{
closed = 1;
nodes = (
"311 1462 LINE",
"291 1376 LINE",
"344 1376 OFFCURVE",
"383 1372 OFFCURVE",
"407 1365 CURVE SMOOTH",
"431 1358 OFFCURVE",
"449 1346 OFFCURVE",
"461 1329 CURVE SMOOTH",
"473 1312 OFFCURVE",
"479 1289 OFFCURVE",
"479 1260 CURVE SMOOTH",
"479 1233 OFFCURVE",
"475 1200 OFFCURVE",
"467 1159 CURVE SMOOTH",
"413 901 LINE",
"401 850 OFFCURVE",
"395 807 OFFCURVE",
"395 770 CURVE SMOOTH",
"395 683 OFFCURVE",
"439 607 OFFCURVE",
"539 580 CURVE",
"539 575 LINE",
"395 550 OFFCURVE",
"319 471 OFFCURVE",
"283 303 CURVE SMOOTH",
"209 -35 LINE SMOOTH",
"186 -140 OFFCURVE",
"153 -192 OFFCURVE",
"97 -217 CURVE SMOOTH",
"69 -230 OFFCURVE",
"23 -237 OFFCURVE",
"-41 -238 CURVE",
"-41 -324 LINE",
"-23 -324 LINE SMOOTH",
"68 -324 OFFCURVE",
"139 -304 OFFCURVE",
"190 -265 CURVE SMOOTH",
"241 -226 OFFCURVE",
"278 -161 OFFCURVE",
"299 -68 CURVE SMOOTH",
"387 326 LINE SMOOTH",
"419 471 OFFCURVE",
"501 532 OFFCURVE",
"668 532 CURVE",
"688 610 LINE",
"555 610 OFFCURVE",
"489 667 OFFCURVE",
"489 770 CURVE SMOOTH",
"489 791 OFFCURVE",
"495 834 OFFCURVE",
"508 897 CURVE SMOOTH",
"563 1149 LINE SMOOTH",
"574 1198 OFFCURVE",
"580 1237 OFFCURVE",
"580 1264 CURVE SMOOTH",
"580 1392 OFFCURVE",
"507 1462 OFFCURVE",
"332 1462 CURVE SMOOTH"
);
}
);
width = 709;
}
);
unicode = 007D;
},
{
glyphname = bracketleft;
lastChange = "2013-03-09 11:19:16 +0200";
layers = (
{
layerId = UUID0;
name = "Light Italic";
paths = (
{
closed = 1;
nodes = (
"389 -233 LINE",
"59 -233 LINE",
"399 1372 LINE",
"729 1372 LINE",
"748 1462 LINE",
"319 1462 LINE",
"-57 -324 LINE",
"369 -324 LINE"
);
}
);
width = 537;
}
);
unicode = 005B;
},
{
glyphname = bracketright;
lastChange = "2013-03-09 11:19:16 +0200";
layers = (
{
layerId = UUID0;
name = "Light Italic";
paths = (
{
closed = 1;
nodes = (
"182 1372 LINE",
"512 1372 LINE",
"172 -233 LINE",
"-158 -233 LINE",
"-176 -324 LINE",
"252 -324 LINE",
"629 1462 LINE",
"203 1462 LINE"
);
}
);
width = 537;
}
);
unicode = 005D;
},
{
glyphname = parenleft;
lastChange = "2013-03-09 11:19:16 +0200";
layers = (
{
layerId = UUID0;
name = "Light Italic";
paths = (
{
closed = 1;
nodes = (
"104 49 OFFCURVE",
"153 -149 OFFCURVE",
"250 -324 CURVE",
"330 -324 LINE",
"245 -135 OFFCURVE",
"203 65 OFFCURVE",
"203 276 CURVE SMOOTH",
"203 711 OFFCURVE",
"368 1094 OFFCURVE",
"713 1462 CURVE",
"608 1462 LINE",
"435 1283 OFFCURVE",
"307 1096 OFFCURVE",
"226 903 CURVE SMOOTH",
"145 710 OFFCURVE",
"104 499 OFFCURVE",
"104 270 CURVE SMOOTH"
);
}
);
width = 526;
}
);
unicode = 0028;
},
{
glyphname = parenright;
lastChange = "2013-03-09 11:19:16 +0200";
layers = (
{
layerId = UUID0;
name = "Light Italic";
paths = (
{
closed = 1;
nodes = (
"453 1089 OFFCURVE",
"404 1287 OFFCURVE",
"307 1462 CURVE",
"227 1462 LINE",
"320 1249 OFFCURVE",
"354 1059 OFFCURVE",
"354 862 CURVE SMOOTH",
"354 426 OFFCURVE",
"187 41 OFFCURVE",
"-156 -324 CURVE",
"-51 -324 LINE",
"120 -147 OFFCURVE",
"247 38 OFFCURVE",
"329 232 CURVE SMOOTH",
"412 426 OFFCURVE",
"453 638 OFFCURVE",
"453 868 CURVE SMOOTH"
);
}
);
width = 526;
}
);
unicode = 0029;
},
{
glyphname = emdash;
lastChange = "2013-03-09 11:19:16 +0200";
layers = (
{
layerId = UUID0;
name = "Light Italic";
paths = (
{
closed = 1;
nodes = (
"1858 502 LINE",
"1874 592 LINE",
"86 592 LINE",
"68 502 LINE"
);
}
);
width = 1966;
}
);
unicode = 2014;
},
{
glyphname = endash;
lastChange = "2013-03-09 11:19:16 +0200";
layers = (
{
layerId = UUID0;
name = "Light Italic";
paths = (
{
closed = 1;
nodes = (
"874 502 LINE",
"891 592 LINE",
"84 592 LINE",
"66 502 LINE"
);
}
);
width = 983;
}
);
unicode = 2013;
},
{
glyphname = hyphen;
lastChange = "2013-03-09 11:19:16 +0200";
layers = (
{
layerId = UUID0;
name = "Light Italic";
paths = (
{
closed = 1;
nodes = (
"541 502 LINE",
"557 592 LINE",
"100 592 LINE",
"82 502 LINE"
);
}
);
width = 629;
}
);
unicode = 002D;
},
{
glyphname = guillemotleft;
lastChange = "2013-03-09 11:19:16 +0200";
layers = (
{
layerId = UUID0;
name = "Light Italic";
paths = (
{
closed = 1;
nodes = (
"63 567 LINE",
"61 541 LINE",
"315 123 LINE",
"379 162 LINE",
"166 547 LINE",
"483 883 LINE",
"426 932 LINE"
);
},
{
closed = 1;
nodes = (
"424 567 LINE",
"422 541 LINE",
"676 123 LINE",
"739 162 LINE",
"530 547 LINE",
"844 883 LINE",
"786 932 LINE"
);
}
);
width = 860;
}
);
unicode = 00AB;
},
{
glyphname = guillemotright;
lastChange = "2013-03-09 11:19:16 +0200";
layers = (
{
layerId = UUID0;
name = "Light Italic";
paths = (
{
closed = 1;
nodes = (
"813 487 LINE",
"815 514 LINE",
"561 932 LINE",
"498 893 LINE",
"707 508 LINE",
"393 172 LINE",
"451 123 LINE"
);
},
{
closed = 1;
nodes = (
"453 487 LINE",
"455 514 LINE",
"201 932 LINE",
"137 893 LINE",
"346 508 LINE",
"33 172 LINE",
"90 123 LINE"
);
}
);
width = 860;
}
);
unicode = 00BB;
},
{
glyphname = guilsinglleft;
lastChange = "2013-03-09 11:19:16 +0200";
layers = (
{
layerId = UUID0;
name = "Light Italic";
paths = (
{
closed = 1;
nodes = (
"88 567 LINE",
"86 541 LINE",
"340 123 LINE",
"403 162 LINE",
"190 547 LINE",
"508 883 LINE",
"451 932 LINE"
);
}
);
width = 537;
}
);
unicode = 2039;
},
{
glyphname = guilsinglright;
lastChange = "2013-03-09 11:19:16 +0200";
layers = (
{
layerId = UUID0;
name = "Light Italic";
paths = (
{
closed = 1;
nodes = (
"457 487 LINE",
"459 514 LINE",
"205 932 LINE",
"141 893 LINE",
"354 508 LINE",
"37 172 LINE",
"94 123 LINE"
);
}
);
width = 537;
}
);
unicode = 203A;
},
{
glyphname = quotedblbase;
lastChange = "2013-03-09 11:19:16 +0200";
layers = (
{
layerId = UUID0;
name = "Light Italic";
paths = (
{
closed = 1;
nodes = (
"449 238 LINE",
"421 155 OFFCURVE",
"386 68 OFFCURVE",
"344 -21 CURVE SMOOTH",
"302 -111 OFFCURVE",
"259 -192 OFFCURVE",
"215 -264 CURVE",
"289 -264 LINE",
"345 -189 OFFCURVE",
"398 -107 OFFCURVE",
"447 -20 CURVE SMOOTH",
"497 67 OFFCURVE",
"536 145 OFFCURVE",
"565 215 CURVE",
"561 238 LINE"
);
},
{
closed = 1;
nodes = (
"115 238 LINE",
"91 163 OFFCURVE",
"58 81 OFFCURVE",
"16 -9 CURVE",
"-25 -100 OFFCURVE",
"-70 -185 OFFCURVE",
"-119 -264 CURVE",
"-45 -264 LINE",
"11 -189 OFFCURVE",
"64 -107 OFFCURVE",
"113 -20 CURVE SMOOTH",
"163 67 OFFCURVE",
"202 145 OFFCURVE",
"231 215 CURVE",
"227 238 LINE"
);
}
);
width = 776;
}
);
unicode = 201E;
},
{
glyphname = quotedblleft;
lastChange = "2013-03-09 11:19:16 +0200";
layers = (
{
layerId = UUID0;
name = "Light Italic";
paths = (
{
closed = 1;
nodes = (
"246 961 LINE",
"273 1042 OFFCURVE",
"307 1128 OFFCURVE",
"349 1219 CURVE SMOOTH",
"392 1310 OFFCURVE",
"435 1391 OFFCURVE",
"479 1462 CURVE",
"406 1462 LINE",
"349 1384 OFFCURVE",
"295 1301 OFFCURVE",
"245 1214 CURVE SMOOTH",
"195 1127 OFFCURVE",
"156 1050 OFFCURVE",
"129 983 CURVE",
"133 961 LINE"
);
},
{
closed = 1;
nodes = (
"580 961 LINE",
"607 1042 OFFCURVE",
"641 1128 OFFCURVE",
"683 1219 CURVE SMOOTH",
"726 1310 OFFCURVE",
"769 1391 OFFCURVE",
"813 1462 CURVE",
"739 1462 LINE",
"686 1391 OFFCURVE",
"634 1311 OFFCURVE",
"583 1221 CURVE SMOOTH",
"532 1132 OFFCURVE",
"492 1052 OFFCURVE",
"463 983 CURVE",
"467 961 LINE"
);
}
);
width = 631;
}
);
unicode = 201C;
},
{
glyphname = quotedblright;
lastChange = "2013-03-09 11:19:16 +0200";
layers = (
{
layerId = UUID0;
name = "Light Italic";
paths = (
{
closed = 1;
nodes = (
"696 1462 LINE",
"669 1381 OFFCURVE",
"635 1294 OFFCURVE",
"592 1203 CURVE SMOOTH",
"550 1112 OFFCURVE",
"507 1032 OFFCURVE",
"463 961 CURVE",
"537 961 LINE",
"593 1036 OFFCURVE",
"646 1117 OFFCURVE",
"695 1204 CURVE SMOOTH",
"745 1291 OFFCURVE",
"784 1370 OFFCURVE",
"813 1440 CURVE",
"809 1462 LINE"
);
},
{
closed = 1;
nodes = (
"362 1462 LINE",
"335 1381 OFFCURVE",
"301 1294 OFFCURVE",
"258 1203 CURVE SMOOTH",
"216 1112 OFFCURVE",
"173 1032 OFFCURVE",
"129 961 CURVE",
"203 961 LINE",
"259 1036 OFFCURVE",
"312 1117 OFFCURVE",
"361 1204 CURVE SMOOTH",
"411 1291 OFFCURVE",
"450 1370 OFFCURVE",
"479 1440 CURVE",
"475 1462 LINE"
);
}
);
width = 631;
}
);
unicode = 201D;
},
{
glyphname = quoteleft;
lastChange = "2013-03-09 11:19:16 +0200";
layers = (
{
layerId = UUID0;
name = "Light Italic";
paths = (
{
closed = 1;
nodes = (
"246 961 LINE",
"273 1042 OFFCURVE",
"307 1128 OFFCURVE",
"349 1219 CURVE SMOOTH",
"392 1310 OFFCURVE",
"435 1391 OFFCURVE",
"479 1462 CURVE",
"406 1462 LINE",
"349 1384 OFFCURVE",
"295 1301 OFFCURVE",
"245 1214 CURVE SMOOTH",
"195 1127 OFFCURVE",
"156 1050 OFFCURVE",
"129 983 CURVE",
"133 961 LINE"
);
}
);
width = 299;
}
);
unicode = 2018;
},
{
glyphname = quoteright;
lastChange = "2013-03-09 11:19:16 +0200";
layers = (
{
layerId = UUID0;
name = "Light Italic";
paths = (
{
closed = 1;
nodes = (
"362 1462 LINE",
"335 1381 OFFCURVE",
"301 1294 OFFCURVE",
"258 1203 CURVE SMOOTH",
"216 1112 OFFCURVE",
"173 1032 OFFCURVE",
"129 961 CURVE",
"203 961 LINE",
"259 1036 OFFCURVE",
"312 1117 OFFCURVE",
"361 1204 CURVE SMOOTH",
"411 1291 OFFCURVE",
"450 1370 OFFCURVE",
"479 1440 CURVE",
"475 1462 LINE"
);
}
);
width = 299;
}
);
unicode = 2019;
},
{
glyphname = quotesinglbase;
lastChange = "2013-03-09 11:19:16 +0200";
layers = (
{
layerId = UUID0;
name = "Light Italic";
paths = (
{
closed = 1;
nodes = (
"133 238 LINE",
"108 161 OFFCURVE",
"74 76 OFFCURVE",
"31 -16 CURVE SMOOTH",
"-11 -108 OFFCURVE",
"-55 -191 OFFCURVE",
"-100 -264 CURVE",
"-27 -264 LINE",
"30 -187 OFFCURVE",
"84 -104 OFFCURVE",
"134 -15 CURVE SMOOTH",
"185 74 OFFCURVE",
"223 150 OFFCURVE",
"250 215 CURVE",
"246 238 LINE"
);
}
);
width = 451;
}
);
unicode = 201A;
},
{
glyphname = .notdef;
lastChange = "2013-03-09 11:19:16 +0200";
layers = (
{
layerId = UUID0;
name = "Light Italic";
paths = (
{
closed = 1;
nodes = (
"193 0 LINE",
"1034 0 LINE",
"1034 1462 LINE",
"193 1462 LINE"
);
},
{
closed = 1;
nodes = (
"297 1358 LINE",
"930 1358 LINE",
"930 104 LINE",
"297 104 LINE"
);
}
);
width = 1229;
}
);
},
{
glyphname = florin;
lastChange = "2013-03-09 11:19:16 +0200";
layers = (
{
layerId = UUID0;
name = "Light Italic";
paths = (
{
closed = 1;
nodes = (
"185 -492 OFFCURVE",
"250 -468 OFFCURVE",
"297 -420 CURVE",
"345 -373 OFFCURVE",
"380 -294 OFFCURVE",
"403 -184 CURVE SMOOTH",
"625 858 LINE",
"872 858 LINE",
"889 940 LINE",
"641 940 LINE",
"688 1167 LINE",
"724 1334 OFFCURVE",
"798 1399 OFFCURVE",
"926 1399 CURVE SMOOTH",
"966 1399 OFFCURVE",
"1015 1390 OFFCURVE",
"1073 1372 CURVE",
"1098 1452 LINE",
"1036 1473 OFFCURVE",
"981 1483 OFFCURVE",
"932 1483 CURVE SMOOTH",
"737 1483 OFFCURVE",
"635 1387 OFFCURVE",
"588 1163 CURVE SMOOTH",
"541 940 LINE",
"336 926 LINE",
"322 858 LINE",
"526 858 LINE",
"311 -160 LINE SMOOTH",
"292 -249 OFFCURVE",
"267 -311 OFFCURVE",
"236 -346 CURVE SMOOTH",
"205 -381 OFFCURVE",
"161 -399 OFFCURVE",
"102 -399 CURVE SMOOTH",
"71 -399 OFFCURVE",
"37 -394 OFFCURVE",
"2 -383 CURVE",
"2 -473 LINE",
"38 -486 OFFCURVE",
"72 -492 OFFCURVE",
"104 -492 CURVE SMOOTH"
);
}
);
width = 1128;
}
);
unicode = 0192;
},
{
glyphname = Euro;
lastChange = "2013-03-09 11:19:16 +0200";
layers = (
{
layerId = UUID0;
name = "Light Italic";
paths = (
{
closed = 1;
nodes = (
"1082 1389 OFFCURVE",
"1161 1363 OFFCURVE",
"1229 1311 CURVE",
"1282 1393 LINE",
"1201 1453 OFFCURVE",
"1106 1483 OFFCURVE",
"995 1483 CURVE SMOOTH",
"846 1483 OFFCURVE",
"713 1435 OFFCURVE",
"596 1339 CURVE SMOOTH",
"479 1243 OFFCURVE",
"389 1104 OFFCURVE",
"326 922 CURVE",
"152 922 LINE",
"133 840 LINE",
"303 840 LINE",
"283 763 OFFCURVE",
"271 690 OFFCURVE",
"268 623 CURVE",
"96 623 LINE",
"80 541 LINE",
"264 541 LINE",
"264 514 LINE SMOOTH",
"264 344 OFFCURVE",
"303 212 OFFCURVE",
"380 119 CURVE SMOOTH",
"457 26 OFFCURVE",
"566 -20 OFFCURVE",
"705 -20 CURVE SMOOTH",
"799 -20 OFFCURVE",
"889 -2 OFFCURVE",
"975 35 CURVE",
"975 129 LINE",
"884 91 OFFCURVE",
"800 72 OFFCURVE",
"723 72 CURVE SMOOTH",
"488 72 OFFCURVE",
"369 217 OFFCURVE",
"369 541 CURVE",
"793 541 LINE",
"813 623 LINE",
"371 623 LINE",
"377 702 OFFCURVE",
"390 775 OFFCURVE",
"410 840 CURVE",
"870 840 LINE",
"891 922 LINE",
"434 922 LINE",
"489 1073 OFFCURVE",
"564 1188 OFFCURVE",
"660 1268 CURVE SMOOTH",
"757 1349 OFFCURVE",
"867 1389 OFFCURVE",
"991 1389 CURVE SMOOTH"
);
}
);
width = 1128;
}
);
unicode = 20AC;
},
{
glyphname = cent;
lastChange = "2013-03-09 11:19:16 +0200";
layers = (
{
layerId = UUID0;
name = "Light Italic";
paths = (
{
closed = 1;
nodes = (
"618 182 LINE",
"727 182 OFFCURVE",
"820 201 OFFCURVE",
"899 240 CURVE",
"899 332 LINE",
"808 292 OFFCURVE",
"720 272 OFFCURVE",
"635 272 CURVE SMOOTH",
"456 272 OFFCURVE",
"352 383 OFFCURVE",
"352 602 CURVE SMOOTH",
"352 720 OFFCURVE",
"372 827 OFFCURVE",
"411 924 CURVE SMOOTH",
"451 1021 OFFCURVE",
"505 1094 OFFCURVE",
"574 1145 CURVE SMOOTH",
"643 1196 OFFCURVE",
"720 1221 OFFCURVE",
"807 1221 CURVE SMOOTH",
"880 1221 OFFCURVE",
"953 1205 OFFCURVE",
"1024 1174 CURVE",
"1053 1264 LINE",
"986 1290 OFFCURVE",
"913 1304 OFFCURVE",
"836 1307 CURVE",
"874 1483 LINE",
"784 1483 LINE",
"748 1305 LINE",
"653 1295 OFFCURVE",
"568 1258 OFFCURVE",
"491 1194 CURVE SMOOTH",
"415 1130 OFFCURVE",
"356 1046 OFFCURVE",
"313 941 CURVE SMOOTH",
"271 836 OFFCURVE",
"250 723 OFFCURVE",
"250 600 CURVE SMOOTH",
"250 490 OFFCURVE",
"275 399 OFFCURVE",
"324 327 CURVE SMOOTH",
"373 256 OFFCURVE",
"442 212 OFFCURVE",
"530 195 CURVE",
"485 -20 LINE",
"578 -20 LINE"
);
}
);
width = 1128;
}
);
unicode = 00A2;
},
{
glyphname = dollar;
lastChange = "2013-03-09 11:19:16 +0200";
layers = (
{
layerId = UUID0;
name = "Light Italic";
paths = (
{
closed = 1;
nodes = (
"928 555 OFFCURVE",
"894 618 OFFCURVE",
"829 670 CURVE",
"797 697 OFFCURVE",
"740 730 OFFCURVE",
"657 770 CURVE",
"766 1284 LINE",
"863 1278 OFFCURVE",
"949 1255 OFFCURVE",
"1022 1214 CURVE",
"1057 1292 LINE",
"972 1334 OFFCURVE",
"879 1357 OFFCURVE",
"780 1360 CURVE",
"821 1552 LINE",
"741 1552 LINE",
"700 1360 LINE",
"589 1357 OFFCURVE",
"498 1324 OFFCURVE",
"427 1260 CURVE SMOOTH",
"357 1197 OFFCURVE",
"322 1113 OFFCURVE",
"322 1010 CURVE SMOOTH",
"322 921 OFFCURVE",
"355 857 OFFCURVE",
"412 806 CURVE SMOOTH",
"441 781 OFFCURVE",
"492 750 OFFCURVE",
"565 715 CURVE",
"455 203 LINE",
"407 203 OFFCURVE",
"353 209 OFFCURVE",
"294 222 CURVE SMOOTH",
"235 235 OFFCURVE",
"184 253 OFFCURVE",
"141 276 CURVE",
"141 182 LINE",
"218 146 OFFCURVE",
"331 124 OFFCURVE",
"436 121 CURVE",
"385 -119 LINE",
"467 -119 LINE",
"520 121 LINE",
"645 128 OFFCURVE",
"744 163 OFFCURVE",
"817 224 CURVE SMOOTH",
"891 285 OFFCURVE",
"928 366 OFFCURVE",
"928 467 CURVE SMOOTH"
);
},
{
closed = 1;
nodes = (
"637 688 LINE",
"782 629 OFFCURVE",
"842 562 OFFCURVE",
"842 461 CURVE SMOOTH",
"842 306 OFFCURVE",
"726 212 OFFCURVE",
"537 203 CURVE"
);
},
{
closed = 1;
nodes = (
"584 793 LINE",
"517 824 OFFCURVE",
"472 856 OFFCURVE",
"447 889 CURVE SMOOTH",
"422 923 OFFCURVE",
"410 966 OFFCURVE",
"410 1018 CURVE SMOOTH",
"410 1171 OFFCURVE",
"507 1272 OFFCURVE",
"686 1284 CURVE"
);
}
);
width = 1128;
}
);
unicode = 0024;
},
{
glyphname = sterling;
lastChange = "2013-03-09 11:19:16 +0200";
layers = (
{
layerId = UUID0;
name = "Light Italic";
paths = (
{
closed = 1;
nodes = (
"644 1479 OFFCURVE",
"489 1357 OFFCURVE",
"434 1108 CURVE SMOOTH",
"358 758 LINE",
"160 758 LINE",
"143 676 LINE",
"342 676 LINE",
"285 416 LINE",
"238 213 OFFCURVE",
"136 99 OFFCURVE",
"12 84 CURVE",
"-4 0 LINE",
"934 0 LINE",
"954 94 LINE",
"195 94 LINE",
"287 153 OFFCURVE",
"350 258 OFFCURVE",
"383 408 CURVE",
"440 676 LINE",
"848 676 LINE",
"866 758 LINE",
"457 758 LINE",
"530 1098 LINE SMOOTH",
"571 1293 OFFCURVE",
"689 1393 OFFCURVE",
"868 1393 CURVE SMOOTH",
"950 1393 OFFCURVE",
"1027 1376 OFFCURVE",
"1099 1343 CURVE SMOOTH",
"1153 1317 LINE",
"1192 1401 LINE",
"1097 1453 OFFCURVE",
"992 1479 OFFCURVE",
"879 1479 CURVE SMOOTH"
);
}
);
width = 1128;
}
);
unicode = 00A3;
},
{
glyphname = yen;
lastChange = "2013-03-09 11:19:16 +0200";
layers = (
{
layerId = UUID0;
name = "Light Italic";
paths = (
{
closed = 1;
nodes = (
"383 1462 LINE",
"283 1462 LINE",
"498 639 LINE",
"240 639 LINE",
"223 563 LINE",
"524 563 LINE",
"483 373 LINE",
"184 373 LINE",
"166 289 LINE",
"465 289 LINE",
"401 0 LINE",
"506 0 LINE",
"565 289 LINE",
"881 289 LINE",
"899 373 LINE",
"582 373 LINE",
"621 563 LINE",
"936 563 LINE",
"952 639 LINE",
"686 639 LINE",
"1245 1462 LINE",
"1128 1462 LINE",
"584 645 LINE"
);
}
);
width = 1128;
}
);
unicode = 00A5;
},
{
glyphname = asciitilde;
lastChange = "2013-03-09 11:19:16 +0200";
layers = (
{
layerId = UUID0;
name = "Light Italic";
paths = (
{
closed = 1;
nodes = (
"427 745 OFFCURVE",
"488 727 OFFCURVE",
"571 688 CURVE SMOOTH",
"674 640 OFFCURVE",
"764 616 OFFCURVE",
"842 616 CURVE SMOOTH",
"923 616 OFFCURVE",
"1001 654 OFFCURVE",
"1075 729 CURVE",
"1075 825 LINE",
"990 736 OFFCURVE",
"922 700 OFFCURVE",
"850 700 CURVE SMOOTH",
"788 700 OFFCURVE",
"715 719 OFFCURVE",
"631 758 CURVE",
"563 787 OFFCURVE",
"511 806 OFFCURVE",
"475 815 CURVE SMOOTH",
"439 824 OFFCURVE",
"401 829 OFFCURVE",
"360 829 CURVE SMOOTH",
"277 829 OFFCURVE",
"199 792 OFFCURVE",
"127 719 CURVE",
"127 625 LINE",
"202 704 OFFCURVE",
"285 745 OFFCURVE",
"350 745 CURVE SMOOTH"
);
}
);
width = 1128;
}
);
unicode = 007E;
},
{
glyphname = divide;
lastChange = "2013-03-09 11:19:16 +0200";
layers = (
{
layerId = UUID0;
name = "Light Italic";
paths = (
{
closed = 1;
nodes = (
"1071 672 LINE",
"1071 772 LINE",
"168 772 LINE",
"168 672 LINE"
);
},
{
closed = 1;
nodes = (
"522 302 OFFCURVE",
"554 266 OFFCURVE",
"618 266 CURVE SMOOTH",
"673 266 OFFCURVE",
"717 297 OFFCURVE",
"717 373 CURVE SMOOTH",
"717 441 OFFCURVE",
"682 479 OFFCURVE",
"618 479 CURVE SMOOTH",
"554 479 OFFCURVE",
"522 444 OFFCURVE",
"522 373 CURVE SMOOTH"
);
},
{
closed = 1;
nodes = (
"522 1000 OFFCURVE",
"554 965 OFFCURVE",
"618 965 CURVE SMOOTH",
"673 965 OFFCURVE",
"717 995 OFFCURVE",
"717 1071 CURVE SMOOTH",
"717 1140 OFFCURVE",
"679 1178 OFFCURVE",
"618 1178 CURVE SMOOTH",
"554 1178 OFFCURVE",
"522 1142 OFFCURVE",
"522 1071 CURVE SMOOTH"
);
}
);
width = 1128;
}
);
unicode = 00F7;
},
{
glyphname = equal;
lastChange = "2013-03-09 11:19:16 +0200";
layers = (
{
layerId = UUID0;
name = "Light Italic";
paths = (
{
closed = 1;
nodes = (
"1071 885 LINE",
"1071 985 LINE",
"168 985 LINE",
"168 885 LINE"
);
},
{
closed = 1;
nodes = (
"1071 461 LINE",
"1071 559 LINE",
"168 559 LINE",
"168 461 LINE"
);
}
);
width = 1128;
}
);
unicode = 003D;
},
{
glyphname = greater;
lastChange = "2013-03-09 11:19:16 +0200";
layers = (
{
layerId = UUID0;
name = "Light Italic";
paths = (
{
closed = 1;
nodes = (
"170 262 LINE",
"1085 676 LINE",
"1085 750 LINE",
"170 1221 LINE",
"170 1118 LINE",
"971 719 LINE",
"170 369 LINE"
);
}
);
width = 1128;
}
);
unicode = 003E;
},
{
glyphname = greaterequal;
lastChange = "2013-03-09 11:19:16 +0200";
layers = (
{
layerId = UUID0;
name = "Light Italic";
paths = (
{
closed = 1;
nodes = (
"170 262 LINE",
"1085 676 LINE",
"1085 750 LINE",
"170 1221 LINE",
"170 1118 LINE",
"971 719 LINE",
"170 369 LINE"
);
},
{
closed = 1;
nodes = (
"1071 -10 LINE",
"1071 90 LINE",
"168 90 LINE",
"168 -10 LINE"
);
}
);
width = 1169;
}
);
unicode = 2265;
},
{
glyphname = infinity;
lastChange = "2013-03-09 11:19:16 +0200";
layers = (
{
layerId = UUID0;
name = "Light Italic";
paths = (
{
closed = 1;
nodes = (
"332 1034 OFFCURVE",
"262 1005 OFFCURVE",
"206 946 CURVE SMOOTH",
"151 887 OFFCURVE",
"123 813 OFFCURVE",
"123 723 CURVE SMOOTH",
"123 634 OFFCURVE",
"151 559 OFFCURVE",
"206 500 CURVE SMOOTH",
"261 441 OFFCURVE",
"331 412 OFFCURVE",
"416 412 CURVE SMOOTH",
"536 412 OFFCURVE",
"629 477 OFFCURVE",
"717 641 CURVE",
"801 481 OFFCURVE",
"893 412 OFFCURVE",
"1018 412 CURVE SMOOTH",
"1102 412 OFFCURVE",
"1172 441 OFFCURVE",
"1227 500 CURVE SMOOTH",
"1283 559 OFFCURVE",
"1311 633 OFFCURVE",
"1311 723 CURVE SMOOTH",
"1311 812 OFFCURVE",
"1283 886 OFFCURVE",
"1228 945 CURVE SMOOTH",
"1173 1004 OFFCURVE",
"1103 1034 OFFCURVE",
"1018 1034 CURVE SMOOTH",
"893 1034 OFFCURVE",
"801 965 OFFCURVE",
"717 805 CURVE",
"630 968 OFFCURVE",
"537 1034 OFFCURVE",
"416 1034 CURVE SMOOTH"
);
},
{
closed = 1;
nodes = (
"1076 938 OFFCURVE",
"1122 918 OFFCURVE",
"1157 879 CURVE SMOOTH",
"1192 840 OFFCURVE",
"1210 788 OFFCURVE",
"1210 723 CURVE SMOOTH",
"1210 659 OFFCURVE",
"1193 607 OFFCURVE",
"1158 567 CURVE SMOOTH",
"1123 528 OFFCURVE",
"1077 508 OFFCURVE",
"1018 508 CURVE SMOOTH",
"911 508 OFFCURVE",
"841 580 OFFCURVE",
"768 723 CURVE",
"841 866 OFFCURVE",
"911 938 OFFCURVE",
"1018 938 CURVE SMOOTH"
);
},
{
closed = 1;
nodes = (
"515 938 OFFCURVE",
"586 878 OFFCURVE",
"666 723 CURVE",
"625 645 OFFCURVE",
"586 590 OFFCURVE",
"547 557 CURVE SMOOTH",
"509 524 OFFCURVE",
"465 508 OFFCURVE",
"416 508 CURVE SMOOTH",
"358 508 OFFCURVE",
"311 528 OFFCURVE",
"276 567 CURVE SMOOTH",
"241 606 OFFCURVE",
"223 658 OFFCURVE",
"223 723 CURVE SMOOTH",
"223 788 OFFCURVE",
"241 840 OFFCURVE",
"276 879 CURVE SMOOTH",
"311 918 OFFCURVE",
"358 938 OFFCURVE",
"416 938 CURVE SMOOTH"
);
}
);
width = 1434;
}
);
unicode = 221E;
},
{
glyphname = less;
lastChange = "2013-03-09 11:19:16 +0200";
layers = (
{
layerId = UUID0;
name = "Light Italic";
paths = (
{
closed = 1;
nodes = (
"1051 369 LINE",
"250 719 LINE",
"1051 1118 LINE",
"1051 1221 LINE",
"137 750 LINE",
"137 676 LINE",
"1051 262 LINE"
);
}
);
width = 1128;
}
);
unicode = 003C;
},
{
glyphname = lessequal;
lastChange = "2013-03-09 11:19:16 +0200";
layers = (
{
layerId = UUID0;
name = "Light Italic";
paths = (
{
closed = 1;
nodes = (
"1051 369 LINE",
"250 719 LINE",
"1051 1118 LINE",
"1051 1221 LINE",
"137 750 LINE",
"137 676 LINE",
"1051 262 LINE"
);
},
{
closed = 1;
nodes = (
"1071 -10 LINE",
"1071 90 LINE",
"168 90 LINE",
"168 -10 LINE"
);
}
);
width = 1169;
}
);
unicode = 2264;
},
{
glyphname = logicalnot;
lastChange = "2013-03-09 11:19:16 +0200";
layers = (
{
layerId = UUID0;
name = "Light Italic";
paths = (
{
closed = 1;
nodes = (
"125 772 LINE",
"125 672 LINE",
"928 672 LINE",
"928 272 LINE",
"1028 272 LINE",
"1028 772 LINE"
);
}
);
width = 1128;
}
);
unicode = 00AC;
},
{
glyphname = notequal;
lastChange = "2013-03-09 11:19:16 +0200";
layers = (
{
layerId = UUID0;
name = "Light Italic";
paths = (
{
closed = 1;
nodes = (
"1059 477 LINE",
"1059 559 LINE",
"553 559 LINE",
"707 885 LINE",
"1059 885 LINE",
"1059 967 LINE",
"745 967 LINE",
"870 1233 LINE",
"797 1272 LINE",
"653 967 LINE",
"111 967 LINE",
"111 885 LINE",
"614 885 LINE",
"461 559 LINE",
"111 559 LINE",
"111 477 LINE",
"422 477 LINE",
"299 215 LINE",
"375 178 LINE",
"514 477 LINE"
);
}
);
width = 1169;
}
);
unicode = 2260;
},
{
glyphname = percent;
lastChange = "2013-03-09 11:19:16 +0200";
layers = (
{
layerId = UUID0;
name = "Light Italic";
paths = (
{
closed = 1;
nodes = (
"1348 1462 LINE",
"213 0 LINE",
"319 0 LINE",
"1458 1462 LINE"
);
},
{
closed = 1;
nodes = (
"1520 799 OFFCURVE",
"1449 895 OFFCURVE",
"1288 895 CURVE SMOOTH",
"1145 895 OFFCURVE",
"1026 791 OFFCURVE",
"957 588 CURVE SMOOTH",
"922 487 OFFCURVE",
"905 383 OFFCURVE",
"905 276 CURVE SMOOTH",
"905 79 OFFCURVE",
"988 -23 OFFCURVE",
"1137 -23 CURVE SMOOTH",
"1285 -23 OFFCURVE",
"1403 82 OFFCURVE",
"1470 285 CURVE SMOOTH",
"1503 386 OFFCURVE",
"1520 495 OFFCURVE",
"1520 612 CURVE SMOOTH"
);
},
{
closed = 1;
nodes = (
"1388 821 OFFCURVE",
"1434 749 OFFCURVE",
"1434 604 CURVE SMOOTH",
"1434 457 OFFCURVE",
"1407 328 OFFCURVE",
"1354 217 CURVE SMOOTH",
"1301 106 OFFCURVE",
"1232 51 OFFCURVE",
"1145 51 CURVE SMOOTH",
"1049 51 OFFCURVE",
"991 128 OFFCURVE",
"991 283 CURVE SMOOTH",
"991 372 OFFCURVE",
"1004 459 OFFCURVE",
"1031 546 CURVE SMOOTH",
"1058 633 OFFCURVE",
"1093 700 OFFCURVE",
"1137 748 CURVE SMOOTH",
"1182 797 OFFCURVE",
"1231 821 OFFCURVE",
"1284 821 CURVE SMOOTH"
);
},
{
closed = 1;
nodes = (
"760 1387 OFFCURVE",
"683 1481 OFFCURVE",
"528 1481 CURVE SMOOTH",
"385 1481 OFFCURVE",
"266 1377 OFFCURVE",
"197 1174 CURVE SMOOTH",
"162 1073 OFFCURVE",
"145 969 OFFCURVE",
"145 862 CURVE SMOOTH",
"145 665 OFFCURVE",
"228 563 OFFCURVE",
"377 563 CURVE SMOOTH",
"525 563 OFFCURVE",
"643 668 OFFCURVE",
"710 871 CURVE SMOOTH",
"743 972 OFFCURVE",
"760 1081 OFFCURVE",
"760 1198 CURVE SMOOTH"
);
},
{
closed = 1;
nodes = (
"628 1407 OFFCURVE",
"674 1335 OFFCURVE",
"674 1190 CURVE SMOOTH",
"674 1093 OFFCURVE",
"661 1001 OFFCURVE",
"636 913 CURVE SMOOTH",
"611 825 OFFCURVE",
"576 757 OFFCURVE",
"533 709 CURVE SMOOTH",
"490 661 OFFCURVE",
"441 637 OFFCURVE",
"385 637 CURVE SMOOTH",
"289 637 OFFCURVE",
"231 715 OFFCURVE",
"231 868 CURVE SMOOTH",
"231 957 OFFCURVE",
"245 1045 OFFCURVE",
"272 1132 CURVE SMOOTH",
"299 1220 OFFCURVE",
"335 1288 OFFCURVE",
"379 1335 CURVE SMOOTH",
"423 1383 OFFCURVE",
"471 1407 OFFCURVE",
"524 1407 CURVE SMOOTH"
);
}
);
width = 1556;
}
);
unicode = 0025;
},
{
glyphname = perthousand;
lastChange = "2013-03-09 11:19:16 +0200";
layers = (
{
layerId = UUID0;
name = "Light Italic";
paths = (
{
closed = 1;
nodes = (
"1348 1462 LINE",
"213 0 LINE",
"319 0 LINE",
"1458 1462 LINE"
);
},
{
closed = 1;
nodes = (
"1520 799 OFFCURVE",
"1449 895 OFFCURVE",
"1288 895 CURVE SMOOTH",
"1143 895 OFFCURVE",
"1025 789 OFFCURVE",
"956 586 CURVE SMOOTH",
"922 485 OFFCURVE",
"905 381 OFFCURVE",
"905 276 CURVE SMOOTH",
"905 79 OFFCURVE",
"988 -23 OFFCURVE",
"1137 -23 CURVE SMOOTH",
"1285 -23 OFFCURVE",
"1403 82 OFFCURVE",
"1470 285 CURVE SMOOTH",
"1503 386 OFFCURVE",
"1520 495 OFFCURVE",
"1520 612 CURVE SMOOTH"
);
},
{
closed = 1;
nodes = (
"1388 821 OFFCURVE",
"1434 749 OFFCURVE",
"1434 604 CURVE SMOOTH",
"1434 457 OFFCURVE",
"1407 328 OFFCURVE",
"1354 217 CURVE SMOOTH",
"1301 106 OFFCURVE",
"1232 51 OFFCURVE",
"1145 51 CURVE SMOOTH",
"1049 51 OFFCURVE",
"991 128 OFFCURVE",
"991 283 CURVE SMOOTH",
"991 372 OFFCURVE",
"1004 460 OFFCURVE",
"1031 547 CURVE SMOOTH",
"1058 634 OFFCURVE",
"1094 701 OFFCURVE",
"1138 749 CURVE SMOOTH",
"1183 797 OFFCURVE",
"1231 821 OFFCURVE",
"1284 821 CURVE SMOOTH"
);
},
{
closed = 1;
nodes = (
"760 1387 OFFCURVE",
"683 1481 OFFCURVE",
"528 1481 CURVE SMOOTH",
"383 1481 OFFCURVE",
"265 1375 OFFCURVE",
"196 1172 CURVE SMOOTH",
"162 1071 OFFCURVE",
"145 967 OFFCURVE",
"145 862 CURVE SMOOTH",
"145 665 OFFCURVE",
"228 563 OFFCURVE",
"377 563 CURVE SMOOTH",
"525 563 OFFCURVE",
"643 668 OFFCURVE",
"710 871 CURVE SMOOTH",
"743 972 OFFCURVE",
"760 1081 OFFCURVE",
"760 1198 CURVE SMOOTH"
);
},
{
closed = 1;
nodes = (
"628 1407 OFFCURVE",
"674 1335 OFFCURVE",
"674 1190 CURVE SMOOTH",
"674 1093 OFFCURVE",
"661 1001 OFFCURVE",
"636 913 CURVE SMOOTH",
"611 825 OFFCURVE",
"576 757 OFFCURVE",
"533 709 CURVE SMOOTH",
"490 661 OFFCURVE",
"441 637 OFFCURVE",
"385 637 CURVE SMOOTH",
"289 637 OFFCURVE",
"231 715 OFFCURVE",
"231 868 CURVE SMOOTH",
"231 960 OFFCURVE",
"245 1049 OFFCURVE",
"272 1136 CURVE SMOOTH",
"300 1223 OFFCURVE",
"336 1290 OFFCURVE",
"380 1337 CURVE SMOOTH",
"424 1384 OFFCURVE",
"472 1407 OFFCURVE",
"524 1407 CURVE SMOOTH"
);
},
{
closed = 1;
nodes = (
"2218 799 OFFCURVE",
"2147 895 OFFCURVE",
"1987 895 CURVE SMOOTH",
"1842 895 OFFCURVE",
"1724 789 OFFCURVE",
"1655 586 CURVE SMOOTH",
"1621 485 OFFCURVE",
"1604 381 OFFCURVE",
"1604 276 CURVE SMOOTH",
"1604 79 OFFCURVE",
"1687 -23 OFFCURVE",
"1835 -23 CURVE SMOOTH",
"1983 -23 OFFCURVE",
"2101 82 OFFCURVE",
"2168 285 CURVE SMOOTH",
"2201 386 OFFCURVE",
"2218 495 OFFCURVE",
"2218 612 CURVE SMOOTH"
);
},
{
closed = 1;
nodes = (
"2085 821 OFFCURVE",
"2132 753 OFFCURVE",
"2132 604 CURVE SMOOTH",
"2132 507 OFFCURVE",
"2119 415 OFFCURVE",
"2094 327 CURVE SMOOTH",
"2069 239 OFFCURVE",
"2034 171 OFFCURVE",
"1991 123 CURVE SMOOTH",
"1948 75 OFFCURVE",
"1899 51 OFFCURVE",
"1843 51 CURVE SMOOTH",
"1747 51 OFFCURVE",
"1690 128 OFFCURVE",
"1690 283 CURVE SMOOTH",
"1690 374 OFFCURVE",
"1703 462 OFFCURVE",
"1730 548 CURVE SMOOTH",
"1757 635 OFFCURVE",
"1793 702 OFFCURVE",
"1837 749 CURVE SMOOTH",
"1881 797 OFFCURVE",
"1929 821 OFFCURVE",
"1982 821 CURVE SMOOTH"
);
}
);
width = 2255;
}
);
unicode = 2030;
},
{
glyphname = plus;
lastChange = "2013-03-09 11:19:16 +0200";
layers = (
{
layerId = UUID0;
name = "Light Italic";
paths = (
{
closed = 1;
nodes = (
"563 272 LINE",
"664 272 LINE",
"664 672 LINE",
"1065 672 LINE",
"1065 772 LINE",
"664 772 LINE",
"664 1176 LINE",
"563 1176 LINE",
"563 772 LINE",
"162 772 LINE",
"162 672 LINE",
"563 672 LINE"
);
}
);
width = 1128;
}
);
unicode = 002B;
},
{
glyphname = plusminus;
lastChange = "2013-03-09 11:19:16 +0200";
layers = (
{
layerId = UUID0;
name = "Light Italic";
paths = (
{
closed = 1;
nodes = (
"528 229 LINE",
"629 229 LINE",
"629 629 LINE",
"1030 629 LINE",
"1030 727 LINE",
"629 727 LINE",
"629 1133 LINE",
"528 1133 LINE",
"528 727 LINE",
"127 727 LINE",
"127 629 LINE",
"528 629 LINE"
);
},
{
closed = 1;
nodes = (
"1030 0 LINE",
"1030 100 LINE",
"127 100 LINE",
"127 0 LINE"
);
}
);
width = 1128;
}
);
unicode = 00B1;
},
{
glyphname = lozenge;
lastChange = "2013-03-09 11:19:16 +0200";
layers = (
{
layerId = UUID0;
name = "Light Italic";
paths = (
{
closed = 1;
nodes = (
"569 0 LINE",
"618 0 LINE",
"1069 735 LINE",
"618 1475 LINE",
"569 1475 LINE",
"119 735 LINE"
);
},
{
closed = 1;
nodes = (
"594 121 LINE",
"219 735 LINE",
"594 1356 LINE",
"969 735 LINE"
);
}
);
width = 1188;
}
);
unicode = 25CA;
},
{
glyphname = ampersand;
lastChange = "2013-03-09 11:19:16 +0200";
layers = (
{
layerId = UUID0;
name = "Light Italic";
paths = (
{
closed = 1;
nodes = (
"807 1395 OFFCURVE",
"856 1378 OFFCURVE",
"893 1343 CURVE SMOOTH",
"931 1308 OFFCURVE",
"950 1261 OFFCURVE",
"950 1200 CURVE SMOOTH",
"950 1128 OFFCURVE",
"924 1067 OFFCURVE",
"873 1017 CURVE SMOOTH",
"822 968 OFFCURVE",
"729 913 OFFCURVE",
"594 854 CURVE",
"521 953 OFFCURVE",
"485 1047 OFFCURVE",
"485 1135 CURVE SMOOTH",
"485 1300 OFFCURVE",
"581 1395 OFFCURVE",
"748 1395 CURVE SMOOTH"
);
},
{
closed = 1;
nodes = (
"376 63 OFFCURVE",
"306 87 OFFCURVE",
"254 136 CURVE SMOOTH",
"202 185 OFFCURVE",
"176 249 OFFCURVE",
"176 328 CURVE SMOOTH",
"176 448 OFFCURVE",
"224 537 OFFCURVE",
"315 610 CURVE SMOOTH",
"360 647 OFFCURVE",
"438 692 OFFCURVE",
"547 745 CURVE",
"899 252 LINE",
"820 183 OFFCURVE",
"745 134 OFFCURVE",
"676 105 CURVE SMOOTH",
"607 77 OFFCURVE",
"537 63 OFFCURVE",
"465 63 CURVE SMOOTH"
);
},
{
closed = 1;
nodes = (
"78 220 OFFCURVE",
"111 137 OFFCURVE",
"177 74 CURVE SMOOTH",
"244 11 OFFCURVE",
"333 -20 OFFCURVE",
"444 -20 CURVE SMOOTH",
"541 -20 OFFCURVE",
"629 -4 OFFCURVE",
"710 28 CURVE SMOOTH",
"791 60 OFFCURVE",
"871 112 OFFCURVE",
"952 184 CURVE",
"1083 0 LINE",
"1206 0 LINE",
"1022 246 LINE",
"1144 372 OFFCURVE",
"1239 517 OFFCURVE",
"1307 682 CURVE",
"1196 682 LINE",
"1177 625 OFFCURVE",
"1146 563 OFFCURVE",
"1104 495 CURVE SMOOTH",
"1063 428 OFFCURVE",
"1018 369 OFFCURVE",
"969 319 CURVE",
"639 782 LINE",
"756 835 OFFCURVE",
"842 881 OFFCURVE",
"895 920 CURVE SMOOTH",
"948 959 OFFCURVE",
"989 1002 OFFCURVE",
"1016 1048 CURVE SMOOTH",
"1043 1094 OFFCURVE",
"1057 1145 OFFCURVE",
"1057 1202 CURVE SMOOTH",
"1057 1289 OFFCURVE",
"1030 1357 OFFCURVE",
"975 1408 CURVE SMOOTH",
"920 1459 OFFCURVE",
"845 1485 OFFCURVE",
"748 1485 CURVE SMOOTH",
"639 1485 OFFCURVE",
"551 1453 OFFCURVE",
"484 1388 CURVE SMOOTH",
"417 1324 OFFCURVE",
"383 1240 OFFCURVE",
"383 1135 CURVE SMOOTH",
"383 1053 OFFCURVE",
"409 969 OFFCURVE",
"461 884 CURVE SMOOTH",
"502 817 LINE",
"351 750 OFFCURVE",
"243 678 OFFCURVE",
"177 601 CURVE SMOOTH",
"111 524 OFFCURVE",
"78 432 OFFCURVE",
"78 324 CURVE SMOOTH"
);
}
);
width = 1331;
}
);
unicode = 0026;
},
{
glyphname = asciicircum;
lastChange = "2013-03-09 11:19:16 +0200";
layers = (
{
layerId = UUID0;
name = "Light Italic";
paths = (
{
closed = 1;
nodes = (
"186 569 LINE",
"686 1378 LINE",
"903 569 LINE",
"1008 569 LINE",
"748 1475 LINE",
"657 1475 LINE",
"70 569 LINE"
);
}
);
width = 1047;
}
);
unicode = 005E;
},
{
glyphname = at;
lastChange = "2013-03-09 11:19:16 +0200";
layers = (
{
layerId = UUID0;
name = "Light Italic";
paths = (
{
closed = 1;
nodes = (
"1688 974 OFFCURVE",
"1661 1079 OFFCURVE",
"1608 1172 CURVE SMOOTH",
"1555 1266 OFFCURVE",
"1482 1337 OFFCURVE",
"1387 1385 CURVE",
"1293 1434 OFFCURVE",
"1183 1458 OFFCURVE",
"1057 1458 CURVE SMOOTH",
"885 1458 OFFCURVE",
"727 1418 OFFCURVE",
"583 1338 CURVE SMOOTH",
"440 1259 OFFCURVE",
"327 1146 OFFCURVE",
"246 1001 CURVE SMOOTH",
"165 856 OFFCURVE",
"125 692 OFFCURVE",
"125 508 CURVE",
"120 80 OFFCURVE",
"400 -188 OFFCURVE",
"805 -184 CURVE",
"950 -184 OFFCURVE",
"1093 -157 OFFCURVE",
"1233 -102 CURVE",
"1233 -12 LINE",
"1091 -67 OFFCURVE",
"951 -94 OFFCURVE",
"813 -94 CURVE SMOOTH",
"626 -94 OFFCURVE",
"481 -40 OFFCURVE",
"378 67 CURVE SMOOTH",
"275 174 OFFCURVE",
"223 324 OFFCURVE",
"223 516 CURVE SMOOTH",
"223 679 OFFCURVE",
"258 825 OFFCURVE",
"329 955 CURVE SMOOTH",
"400 1086 OFFCURVE",
"498 1187 OFFCURVE",
"624 1259 CURVE SMOOTH",
"751 1332 OFFCURVE",
"892 1368 OFFCURVE",
"1049 1368 CURVE",
"1388 1372 OFFCURVE",
"1595 1147 OFFCURVE",
"1593 836 CURVE SMOOTH",
"1593 751 OFFCURVE",
"1578 667 OFFCURVE",
"1549 584 CURVE SMOOTH",
"1520 501 OFFCURVE",
"1481 435 OFFCURVE",
"1432 386 CURVE SMOOTH",
"1383 337 OFFCURVE",
"1329 313 OFFCURVE",
"1272 313 CURVE SMOOTH",
"1184 313 OFFCURVE",
"1137 370 OFFCURVE",
"1137 465 CURVE SMOOTH",
"1137 519 OFFCURVE",
"1150 593 OFFCURVE",
"1176 686 CURVE",
"1260 1001 LINE",
"1173 1036 OFFCURVE",
"1089 1053 OFFCURVE",
"1008 1053 CURVE",
"716 1059 OFFCURVE",
"501 811 OFFCURVE",
"506 500 CURVE",
"506 328 OFFCURVE",
"601 225 OFFCURVE",
"750 225 CURVE SMOOTH",
"870 225 OFFCURVE",
"979 295 OFFCURVE",
"1051 424 CURVE",
"1055 424 LINE",
"1055 305 OFFCURVE",
"1135 225 OFFCURVE",
"1266 225 CURVE SMOOTH",
"1341 225 OFFCURVE",
"1412 252 OFFCURVE",
"1477 307 CURVE SMOOTH",
"1543 362 OFFCURVE",
"1595 438 OFFCURVE",
"1632 534 CURVE SMOOTH",
"1669 631 OFFCURVE",
"1688 739 OFFCURVE",
"1688 858 CURVE SMOOTH"
);
},
{
closed = 1;
nodes = (
"1057 969 OFFCURVE",
"1103 961 OFFCURVE",
"1147 946 CURVE",
"1069 657 LINE SMOOTH",
"1009 436 OFFCURVE",
"899 313 OFFCURVE",
"764 313 CURVE SMOOTH",
"667 313 OFFCURVE",
"610 383 OFFCURVE",
"610 506 CURVE",
"605 770 OFFCURVE",
"782 974 OFFCURVE",
"1008 969 CURVE"
);
}
);
width = 1724;
}
);
unicode = 0040;
},
{
glyphname = bar;
lastChange = "2013-03-09 11:19:16 +0200";
layers = (
{
layerId = UUID0;
name = "Light Italic";
paths = (
{
closed = 1;
nodes = (
"584 -510 LINE",
"684 -510 LINE",
"684 1561 LINE",
"584 1561 LINE"
);
}
);
width = 1128;
}
);
unicode = 007C;
},
{
glyphname = copyright;
lastChange = "2013-03-09 11:19:16 +0200";
layers = (
{
layerId = UUID0;
name = "Light Italic";
paths = (
{
closed = 1;
nodes = (
"1005 1092 OFFCURVE",
"1069 1077 OFFCURVE",
"1135 1047 CURVE",
"1171 1130 LINE",
"1099 1165 OFFCURVE",
"1023 1182 OFFCURVE",
"944 1182 CURVE SMOOTH",
"819 1182 OFFCURVE",
"720 1140 OFFCURVE",
"647 1057 CURVE SMOOTH",
"574 974 OFFCURVE",
"537 863 OFFCURVE",
"537 725 CURVE SMOOTH",
"537 440 OFFCURVE",
"677 279 OFFCURVE",
"926 279 CURVE SMOOTH",
"996 279 OFFCURVE",
"1066 294 OFFCURVE",
"1135 324 CURVE",
"1135 412 LINE",
"1059 383 OFFCURVE",
"993 369 OFFCURVE",
"936 369 CURVE SMOOTH",
"741 369 OFFCURVE",
"641 485 OFFCURVE",
"641 733 CURVE SMOOTH",
"641 846 OFFCURVE",
"668 934 OFFCURVE",
"721 997 CURVE SMOOTH",
"775 1060 OFFCURVE",
"849 1092 OFFCURVE",
"944 1092 CURVE SMOOTH"
);
},
{
closed = 1;
nodes = (
"147 599 OFFCURVE",
"179 475 OFFCURVE",
"244 360 CURVE SMOOTH",
"309 245 OFFCURVE",
"400 152 OFFCURVE",
"517 83 CURVE SMOOTH",
"634 14 OFFCURVE",
"761 -20 OFFCURVE",
"899 -20 CURVE SMOOTH",
"1038 -20 OFFCURVE",
"1165 15 OFFCURVE",
"1282 84 CURVE SMOOTH",
"1399 153 OFFCURVE",
"1489 246 OFFCURVE",
"1554 361 CURVE SMOOTH",
"1619 476 OFFCURVE",
"1651 600 OFFCURVE",
"1651 731 CURVE SMOOTH",
"1651 866 OFFCURVE",
"1617 991 OFFCURVE",
"1550 1108 CURVE SMOOTH",
"1483 1225 OFFCURVE",
"1391 1316 OFFCURVE",
"1274 1383 CURVE SMOOTH",
"1157 1450 OFFCURVE",
"1032 1483 OFFCURVE",
"899 1483 CURVE SMOOTH",
"764 1483 OFFCURVE",
"639 1449 OFFCURVE",
"522 1382 CURVE SMOOTH",
"405 1315 OFFCURVE",
"314 1223 OFFCURVE",
"247 1106 CURVE SMOOTH",
"180 989 OFFCURVE",
"147 864 OFFCURVE",
"147 731 CURVE SMOOTH"
);
},
{
closed = 1;
nodes = (
"240 847 OFFCURVE",
"268 955 OFFCURVE",
"325 1056 CURVE SMOOTH",
"382 1157 OFFCURVE",
"462 1238 OFFCURVE",
"564 1299 CURVE SMOOTH",
"666 1360 OFFCURVE",
"778 1391 OFFCURVE",
"899 1391 CURVE SMOOTH",
"1018 1391 OFFCURVE",
"1128 1361 OFFCURVE",
"1229 1302 CURVE SMOOTH",
"1330 1243 OFFCURVE",
"1411 1162 OFFCURVE",
"1470 1061 CURVE SMOOTH",
"1529 960 OFFCURVE",
"1559 850 OFFCURVE",
"1559 731 CURVE SMOOTH",
"1559 610 OFFCURVE",
"1528 499 OFFCURVE",
"1467 396 CURVE SMOOTH",
"1406 294 OFFCURVE",
"1325 214 OFFCURVE",
"1224 157 CURVE SMOOTH",
"1123 100 OFFCURVE",
"1015 72 OFFCURVE",
"899 72 CURVE SMOOTH",
"780 72 OFFCURVE",
"670 102 OFFCURVE",
"569 161 CURVE SMOOTH",
"468 220 OFFCURVE",
"387 300 OFFCURVE",
"328 401 CURVE SMOOTH",
"269 502 OFFCURVE",
"240 612 OFFCURVE",
"240 731 CURVE SMOOTH"
);
}
);
width = 1704;
}
);
unicode = 00A9;
},
{
glyphname = dagger;
lastChange = "2013-03-09 11:19:16 +0200";
layers = (
{
layerId = UUID0;
name = "Light Italic";
paths = (
{
closed = 1;
nodes = (
"965 1167 LINE",
"600 1139 LINE",
"715 1556 LINE",
"598 1556 LINE",
"537 1139 LINE",
"205 1167 LINE",
"180 1055 LINE",
"522 1075 LINE",
"268 0 LINE",
"385 0 LINE",
"586 1075 LINE",
"940 1055 LINE"
);
}
);
width = 1006;
}
);
unicode = 2020;
},
{
glyphname = daggerdbl;
lastChange = "2013-03-09 11:19:16 +0200";
layers = (
{
layerId = UUID0;
name = "Light Italic";
paths = (
{
closed = 1;
nodes = (
"541 786 LINE",
"588 1079 LINE",
"940 1055 LINE",
"965 1167 LINE",
"600 1143 LINE",
"715 1556 LINE",
"598 1556 LINE",
"537 1143 LINE",
"205 1167 LINE",
"180 1055 LINE",
"524 1079 LINE",
"444 786 LINE",
"393 461 LINE",
"59 485 LINE",
"35 373 LINE",
"379 397 LINE",
"268 0 LINE",
"385 0 LINE",
"442 397 LINE",
"795 373 LINE",
"819 485 LINE",
"457 461 LINE"
);
}
);
width = 1006;
}
);
unicode = 2021;
},
{
glyphname = degree;
lastChange = "2013-03-09 11:19:16 +0200";
layers = (
{
layerId = UUID0;
name = "Light Italic";
paths = (
{
closed = 1;
nodes = (
"242 1109 OFFCURVE",
"270 1039 OFFCURVE",
"327 982 CURVE SMOOTH",
"384 925 OFFCURVE",
"454 897 OFFCURVE",
"535 897 CURVE SMOOTH",
"616 897 OFFCURVE",
"684 925 OFFCURVE",
"741 982 CURVE SMOOTH",
"798 1039 OFFCURVE",
"827 1109 OFFCURVE",
"827 1190 CURVE SMOOTH",
"827 1270 OFFCURVE",
"799 1339 OFFCURVE",
"742 1396 CURVE SMOOTH",
"685 1454 OFFCURVE",
"616 1483 OFFCURVE",
"535 1483 CURVE SMOOTH",
"453 1483 OFFCURVE",
"384 1454 OFFCURVE",
"327 1396 CURVE SMOOTH",
"270 1339 OFFCURVE",
"242 1270 OFFCURVE",
"242 1190 CURVE SMOOTH"
);
},
{
closed = 1;
nodes = (
"315 1250 OFFCURVE",
"337 1302 OFFCURVE",
"380 1345 CURVE SMOOTH",
"423 1389 OFFCURVE",
"475 1411 OFFCURVE",
"535 1411 CURVE SMOOTH",
"596 1411 OFFCURVE",
"647 1389 OFFCURVE",
"690 1345 CURVE SMOOTH",
"733 1302 OFFCURVE",
"754 1250 OFFCURVE",
"754 1190 CURVE SMOOTH",
"754 1131 OFFCURVE",
"733 1080 OFFCURVE",
"690 1037 CURVE SMOOTH",
"648 994 OFFCURVE",
"596 973 OFFCURVE",
"535 973 CURVE SMOOTH",
"474 973 OFFCURVE",
"422 994 OFFCURVE",
"379 1037 CURVE SMOOTH",
"336 1080 OFFCURVE",
"315 1131 OFFCURVE",
"315 1190 CURVE SMOOTH"
);
}
);
width = 877;
}
);
unicode = 00B0;
},
{
glyphname = paragraph;
lastChange = "2013-03-09 11:19:16 +0200";
layers = (
{
layerId = UUID0;
name = "Light Italic";
paths = (
{
closed = 1;
nodes = (
"1208 1556 LINE",
"666 1556 LINE SMOOTH",
"355 1556 OFFCURVE",
"215 1389 OFFCURVE",
"215 1042 CURVE SMOOTH",
"215 707 OFFCURVE",
"347 541 OFFCURVE",
"635 541 CURVE SMOOTH",
"689 541 OFFCURVE",
"737 547 OFFCURVE",
"780 559 CURVE",
"780 -260 LINE",
"881 -260 LINE",
"881 1462 LINE",
"1108 1462 LINE",
"1108 -260 LINE",
"1208 -260 LINE"
);
}
);
width = 1341;
}
);
unicode = 00B6;
},
{
glyphname = registered;
lastChange = "2013-03-09 11:19:16 +0200";
layers = (
{
layerId = UUID0;
name = "Light Italic";
paths = (
{
closed = 1;
nodes = (
"758 1085 LINE",
"868 1085 LINE SMOOTH",
"999 1085 OFFCURVE",
"1065 1028 OFFCURVE",
"1065 913 CURVE SMOOTH",
"1065 794 OFFCURVE",
"994 731 OFFCURVE",
"870 731 CURVE SMOOTH",
"758 731 LINE"
);
},
{
closed = 1;
nodes = (
"1169 1090 OFFCURVE",
"1059 1171 OFFCURVE",
"868 1171 CURVE SMOOTH",
"657 1171 LINE",
"657 291 LINE",
"758 291 LINE",
"758 651 LINE",
"926 651 LINE",
"1137 291 LINE",
"1257 291 LINE",
"1020 684 LINE",
"1113 727 OFFCURVE",
"1169 811 OFFCURVE",
"1169 918 CURVE SMOOTH"
);
},
{
closed = 1;
nodes = (
"150 594 OFFCURVE",
"184 468 OFFCURVE",
"251 353 CURVE SMOOTH",
"318 238 OFFCURVE",
"409 147 OFFCURVE",
"524 80 CURVE SMOOTH",
"639 13 OFFCURVE",
"765 -20 OFFCURVE",
"901 -20 CURVE SMOOTH",
"1040 -20 OFFCURVE",
"1167 15 OFFCURVE",
"1284 84 CURVE SMOOTH",
"1401 153 OFFCURVE",
"1491 246 OFFCURVE",
"1556 361 CURVE SMOOTH",
"1621 476 OFFCURVE",
"1653 600 OFFCURVE",
"1653 731 CURVE SMOOTH",
"1653 866 OFFCURVE",
"1619 991 OFFCURVE",
"1552 1108 CURVE SMOOTH",
"1485 1225 OFFCURVE",
"1393 1316 OFFCURVE",
"1276 1383 CURVE SMOOTH",
"1159 1450 OFFCURVE",
"1034 1483 OFFCURVE",
"901 1483 CURVE SMOOTH",
"769 1483 OFFCURVE",
"645 1450 OFFCURVE",
"530 1385 CURVE SMOOTH",
"415 1320 OFFCURVE",
"322 1230 OFFCURVE",
"253 1113 CURVE SMOOTH",
"184 996 OFFCURVE",
"150 869 OFFCURVE",
"150 731 CURVE SMOOTH"
);
},
{
closed = 1;
nodes = (
"242 847 OFFCURVE",
"270 955 OFFCURVE",
"327 1056 CURVE SMOOTH",
"384 1157 OFFCURVE",
"464 1238 OFFCURVE",
"566 1299 CURVE SMOOTH",
"668 1360 OFFCURVE",
"780 1391 OFFCURVE",
"901 1391 CURVE SMOOTH",
"1020 1391 OFFCURVE",
"1130 1361 OFFCURVE",
"1231 1302 CURVE SMOOTH",
"1332 1243 OFFCURVE",
"1413 1162 OFFCURVE",
"1472 1061 CURVE SMOOTH",
"1531 960 OFFCURVE",
"1561 850 OFFCURVE",
"1561 731 CURVE SMOOTH",
"1561 610 OFFCURVE",
"1530 499 OFFCURVE",
"1469 396 CURVE SMOOTH",
"1408 294 OFFCURVE",
"1327 214 OFFCURVE",
"1226 157 CURVE SMOOTH",
"1125 100 OFFCURVE",
"1017 72 OFFCURVE",
"901 72 CURVE SMOOTH",
"782 72 OFFCURVE",
"672 102 OFFCURVE",
"571 161 CURVE SMOOTH",
"470 220 OFFCURVE",
"389 300 OFFCURVE",
"330 401 CURVE SMOOTH",
"271 502 OFFCURVE",
"242 612 OFFCURVE",
"242 731 CURVE SMOOTH"
);
}
);
width = 1704;
}
);
unicode = 00AE;
},
{
glyphname = section;
lastChange = "2013-03-09 11:19:16 +0200";
layers = (
{
layerId = UUID0;
name = "Light Italic";
paths = (
{
closed = 1;
nodes = (
"211 715 OFFCURVE",
"230 662 OFFCURVE",
"267 619 CURVE SMOOTH",
"305 576 OFFCURVE",
"376 532 OFFCURVE",
"479 489 CURVE SMOOTH",
"562 454 OFFCURVE",
"617 422 OFFCURVE",
"645 393 CURVE SMOOTH",
"674 364 OFFCURVE",
"688 328 OFFCURVE",
"688 287 CURVE SMOOTH",
"688 156 OFFCURVE",
"580 84 OFFCURVE",
"381 84 CURVE SMOOTH",
"332 84 OFFCURVE",
"281 90 OFFCURVE",
"228 103 CURVE SMOOTH",
"175 116 OFFCURVE",
"133 132 OFFCURVE",
"102 150 CURVE",
"102 51 LINE",
"181 16 OFFCURVE",
"272 -2 OFFCURVE",
"377 -2 CURVE SMOOTH",
"637 -2 OFFCURVE",
"786 122 OFFCURVE",
"786 295 CURVE SMOOTH",
"786 384 OFFCURVE",
"745 449 OFFCURVE",
"664 492 CURVE",
"830 572 OFFCURVE",
"913 678 OFFCURVE",
"913 809 CURVE SMOOTH",
"913 893 OFFCURVE",
"880 955 OFFCURVE",
"817 1004 CURVE SMOOTH",
"786 1029 OFFCURVE",
"734 1059 OFFCURVE",
"659 1094 CURVE SMOOTH",
"568 1135 OFFCURVE",
"507 1170 OFFCURVE",
"476 1200 CURVE SMOOTH",
"445 1231 OFFCURVE",
"430 1266 OFFCURVE",
"430 1305 CURVE SMOOTH",
"430 1356 OFFCURVE",
"456 1397 OFFCURVE",
"508 1428 CURVE SMOOTH",
"561 1459 OFFCURVE",
"628 1475 OFFCURVE",
"711 1475 CURVE SMOOTH",
"795 1475 OFFCURVE",
"883 1457 OFFCURVE",
"975 1421 CURVE",
"1006 1501 LINE",
"922 1540 OFFCURVE",
"826 1559 OFFCURVE",
"717 1559 CURVE SMOOTH",
"483 1559 OFFCURVE",
"336 1446 OFFCURVE",
"336 1296 CURVE SMOOTH",
"336 1208 OFFCURVE",
"394 1131 OFFCURVE",
"479 1090 CURVE",
"307 1025 OFFCURVE",
"211 913 OFFCURVE",
"211 778 CURVE SMOOTH"
);
},
{
closed = 1;
nodes = (
"654 1003 OFFCURVE",
"721 967 OFFCURVE",
"759 931 CURVE SMOOTH",
"798 895 OFFCURVE",
"817 853 OFFCURVE",
"817 805 CURVE SMOOTH",
"817 682 OFFCURVE",
"733 600 OFFCURVE",
"596 535 CURVE",
"509 567 OFFCURVE",
"446 594 OFFCURVE",
"408 616 CURVE",
"371 639 OFFCURVE",
"344 663 OFFCURVE",
"327 689 CURVE",
"311 716 OFFCURVE",
"303 748 OFFCURVE",
"303 786 CURVE SMOOTH",
"303 902 OFFCURVE",
"400 998 OFFCURVE",
"559 1038 CURVE"
);
}
);
width = 995;
}
);
unicode = 00A7;
},
{
glyphname = trademark;
lastChange = "2013-03-09 11:19:16 +0200";
layers = (
{
layerId = UUID0;
name = "Light Italic";
paths = (
{
closed = 1;
nodes = (
"477 1384 LINE",
"696 1384 LINE",
"696 1462 LINE",
"174 1462 LINE",
"174 1384 LINE",
"391 1384 LINE",
"391 741 LINE",
"477 741 LINE"
);
},
{
closed = 1;
nodes = (
"1151 741 LINE",
"1378 1346 LINE",
"1384 1346 LINE",
"1380 1139 LINE",
"1380 741 LINE",
"1466 741 LINE",
"1466 1462 LINE",
"1341 1462 LINE",
"1118 856 LINE",
"897 1462 LINE",
"772 1462 LINE",
"772 741 LINE",
"854 741 LINE",
"854 1149 LINE",
"850 1350 LINE",
"856 1350 LINE",
"1077 741 LINE"
);
}
);
width = 1534;
}
);
unicode = 2122;
},
{
glyphname = acute;
lastChange = "2013-03-09 11:19:16 +0200";
layers = (
{
layerId = UUID0;
name = "Light Italic";
paths = (
{
closed = 1;
nodes = (
"580 1241 LINE",
"647 1241 LINE",
"704 1277 OFFCURVE",
"768 1326 OFFCURVE",
"839 1387 CURVE SMOOTH",
"910 1449 OFFCURVE",
"963 1502 OFFCURVE",
"997 1546 CURVE",
"997 1569 LINE",
"860 1569 LINE",
"830 1520 OFFCURVE",
"787 1465 OFFCURVE",
"730 1404 CURVE SMOOTH",
"674 1343 OFFCURVE",
"624 1296 OFFCURVE",
"580 1262 CURVE"
);
}
);
width = 1135;
}
);
unicode = 00B4;
},
{
glyphname = breve;
lastChange = "2013-03-09 11:19:16 +0200";
layers = (
{
layerId = UUID0;
name = "Light Italic";
paths = (
{
closed = 1;
nodes = (
"936 1481 LINE",
"903 1378 OFFCURVE",
"836 1343 OFFCURVE",
"723 1343 CURVE SMOOTH",
"608 1343 OFFCURVE",
"565 1390 OFFCURVE",
"565 1481 CURVE",
"496 1481 LINE",
"494 1461 LINE",
"494 1440 LINE SMOOTH",
"494 1317 OFFCURVE",
"575 1247 OFFCURVE",
"715 1247 CURVE SMOOTH",
"875 1247 OFFCURVE",
"969 1321 OFFCURVE",
"1008 1481 CURVE"
);
}
);
width = 1135;
}
);
unicode = 02D8;
},
{
glyphname = caron;
lastChange = "2013-03-09 11:19:16 +0200";
layers = (
{
layerId = UUID0;
name = "Light Italic";
paths = (
{
closed = 1;
nodes = (
"514 1540 LINE",
"542 1502 OFFCURVE",
"572 1455 OFFCURVE",
"603 1399 CURVE SMOOTH",
"635 1343 OFFCURVE",
"661 1290 OFFCURVE",
"680 1241 CURVE",
"743 1241 LINE",
"771 1282 OFFCURVE",
"814 1333 OFFCURVE",
"872 1394 CURVE SMOOTH",
"931 1455 OFFCURVE",
"983 1503 OFFCURVE",
"1028 1540 CURVE",
"1028 1569 LINE",
"975 1569 LINE",
"938 1546 OFFCURVE",
"897 1515 OFFCURVE",
"850 1476 CURVE SMOOTH",
"803 1438 OFFCURVE",
"762 1400 OFFCURVE",
"725 1362 CURVE",
"665 1459 OFFCURVE",
"611 1528 OFFCURVE",
"563 1569 CURVE",
"514 1569 LINE"
);
}
);
width = 1135;
}
);
unicode = 02C7;
},
{
glyphname = cedilla;
lastChange = "2013-03-09 11:19:16 +0200";
layers = (
{
layerId = UUID0;
name = "Light Italic";
paths = (
{
closed = 1;
nodes = (
"197 -208 OFFCURVE",
"150 -157 OFFCURVE",
"57 -137 CURVE",
"135 0 LINE",
"55 0 LINE",
"-55 -190 LINE",
"46 -197 OFFCURVE",
"96 -232 OFFCURVE",
"96 -297 CURVE SMOOTH",
"96 -374 OFFCURVE",
"30 -412 OFFCURVE",
"-102 -412 CURVE SMOOTH",
"-130 -412 OFFCURVE",
"-154 -410 OFFCURVE",
"-174 -406 CURVE",
"-174 -485 LINE",
"-153 -490 OFFCURVE",
"-127 -492 OFFCURVE",
"-96 -492 CURVE SMOOTH",
"93 -492 OFFCURVE",
"197 -414 OFFCURVE",
"197 -289 CURVE SMOOTH"
);
}
);
width = 420;
}
);
unicode = 00B8;
},
{
glyphname = circumflex;
lastChange = "2013-03-09 11:19:16 +0200";
layers = (
{
layerId = UUID0;
name = "Light Italic";
paths = (
{
closed = 1;
nodes = (
"958 1270 LINE",
"929 1309 OFFCURVE",
"898 1357 OFFCURVE",
"865 1416 CURVE SMOOTH",
"832 1475 OFFCURVE",
"808 1526 OFFCURVE",
"793 1569 CURVE",
"729 1569 LINE",
"704 1530 OFFCURVE",
"661 1480 OFFCURVE",
"601 1418 CURVE SMOOTH",
"542 1357 OFFCURVE",
"489 1307 OFFCURVE",
"444 1270 CURVE",
"444 1241 LINE",
"498 1241 LINE",
"535 1264 OFFCURVE",
"576 1295 OFFCURVE",
"623 1333 CURVE SMOOTH",
"670 1372 OFFCURVE",
"711 1410 OFFCURVE",
"748 1448 CURVE",
"809 1350 OFFCURVE",
"862 1281 OFFCURVE",
"909 1241 CURVE",
"958 1241 LINE"
);
}
);
width = 1135;
}
);
unicode = 02C6;
},
{
glyphname = dieresis;
lastChange = "2013-03-09 11:19:16 +0200";
layers = (
{
layerId = UUID0;
name = "Light Italic";
paths = (
{
closed = 1;
nodes = (
"836 1324 OFFCURVE",
"854 1303 OFFCURVE",
"891 1303 CURVE SMOOTH",
"936 1303 OFFCURVE",
"967 1345 OFFCURVE",
"967 1409 CURVE SMOOTH",
"967 1452 OFFCURVE",
"949 1473 OFFCURVE",
"913 1473 CURVE SMOOTH",
"865 1473 OFFCURVE",
"836 1431 OFFCURVE",
"836 1366 CURVE SMOOTH"
);
},
{
closed = 1;
nodes = (
"492 1324 OFFCURVE",
"510 1303 OFFCURVE",
"547 1303 CURVE SMOOTH",
"592 1303 OFFCURVE",
"623 1345 OFFCURVE",
"623 1409 CURVE SMOOTH",
"623 1452 OFFCURVE",
"605 1473 OFFCURVE",
"569 1473 CURVE SMOOTH",
"521 1473 OFFCURVE",
"492 1431 OFFCURVE",
"492 1366 CURVE SMOOTH"
);
}
);
width = 1135;
}
);
unicode = 00A8;
},
{
glyphname = dotaccent;
lastChange = "2013-03-09 11:19:16 +0200";
layers = (
{
layerId = UUID0;
name = "Light Italic";
paths = (
{
closed = 1;
nodes = (
"326 1317 OFFCURVE",
"346 1292 OFFCURVE",
"385 1292 CURVE SMOOTH",
"432 1292 OFFCURVE",
"465 1338 OFFCURVE",
"465 1415 CURVE SMOOTH",
"465 1463 OFFCURVE",
"446 1487 OFFCURVE",
"408 1487 CURVE SMOOTH",
"356 1487 OFFCURVE",
"326 1441 OFFCURVE",
"326 1366 CURVE SMOOTH"
);
}
);
width = 440;
}
);
unicode = 02D9;
},
{
glyphname = grave;
lastChange = "2013-03-09 11:19:16 +0200";
layers = (
{
layerId = UUID0;
name = "Light Italic";
paths = (
{
closed = 1;
nodes = (
"766 1266 LINE",
"687 1382 OFFCURVE",
"633 1483 OFFCURVE",
"602 1569 CURVE",
"487 1569 LINE",
"487 1548 LINE",
"510 1501 OFFCURVE",
"543 1447 OFFCURVE",
"586 1385 CURVE SMOOTH",
"629 1324 OFFCURVE",
"667 1276 OFFCURVE",
"700 1241 CURVE",
"766 1241 LINE"
);
}
);
width = 1135;
}
);
unicode = 0060;
},
{
glyphname = hungarumlaut;
lastChange = "2013-03-09 11:19:16 +0200";
layers = (
{
layerId = UUID0;
name = "Light Italic";
paths = (
{
closed = 1;
nodes = (
"461 1241 LINE",
"500 1241 LINE",
"540 1270 OFFCURVE",
"589 1315 OFFCURVE",
"646 1375 CURVE SMOOTH",
"703 1436 OFFCURVE",
"752 1493 OFFCURVE",
"791 1546 CURVE",
"791 1569 LINE",
"688 1569 LINE",
"654 1513 OFFCURVE",
"616 1457 OFFCURVE",
"573 1402 CURVE SMOOTH",
"530 1347 OFFCURVE",
"493 1303 OFFCURVE",
"461 1270 CURVE"
);
},
{
closed = 1;
nodes = (
"774 1241 LINE",
"811 1241 LINE",
"852 1270 OFFCURVE",
"900 1315 OFFCURVE",
"957 1374 CURVE SMOOTH",
"1014 1434 OFFCURVE",
"1063 1491 OFFCURVE",
"1104 1546 CURVE",
"1104 1569 LINE",
"1001 1569 LINE",
"966 1513 OFFCURVE",
"926 1456 OFFCURVE",
"881 1399 CURVE SMOOTH",
"837 1342 OFFCURVE",
"801 1299 OFFCURVE",
"774 1270 CURVE"
);
}
);
width = 1135;
}
);
unicode = 02DD;
},
{
glyphname = ogonek;
lastChange = "2013-03-09 11:19:16 +0200";
layers = (
{
layerId = UUID0;
name = "Light Italic";
paths = (
{
closed = 1;
nodes = (
"82 0 LINE",
"1 -48 OFFCURVE",
"-55 -93 OFFCURVE",
"-87 -135 CURVE SMOOTH",
"-119 -178 OFFCURVE",
"-135 -222 OFFCURVE",
"-135 -268 CURVE SMOOTH",
"-135 -361 OFFCURVE",
"-77 -414 OFFCURVE",
"23 -414 CURVE SMOOTH",
"61 -414 OFFCURVE",
"94 -409 OFFCURVE",
"121 -399 CURVE",
"121 -328 LINE",
"92 -335 OFFCURVE",
"67 -338 OFFCURVE",
"45 -338 CURVE SMOOTH",
"-14 -338 OFFCURVE",
"-43 -311 OFFCURVE",
"-43 -256 CURVE SMOOTH",
"-43 -185 OFFCURVE",
"-2 -123 OFFCURVE",
"79 -60 CURVE SMOOTH",
"154 0 LINE"
);
}
);
width = 348;
}
);
unicode = 02DB;
},
{
glyphname = ring;
lastChange = "2013-03-09 11:19:16 +0200";
layers = (
{
layerId = UUID0;
name = "Light Italic";
paths = (
{
closed = 1;
nodes = (
"967 1571 OFFCURVE",
"887 1640 OFFCURVE",
"770 1640 CURVE SMOOTH",
"710 1640 OFFCURVE",
"660 1621 OFFCURVE",
"620 1584 CURVE SMOOTH",
"581 1547 OFFCURVE",
"561 1499 OFFCURVE",
"561 1440 CURVE SMOOTH",
"561 1316 OFFCURVE",
"640 1243 OFFCURVE",
"764 1243 CURVE SMOOTH",
"823 1243 OFFCURVE",
"871 1262 OFFCURVE",
"909 1299 CURVE SMOOTH",
"948 1337 OFFCURVE",
"967 1387 OFFCURVE",
"967 1448 CURVE SMOOTH"
);
},
{
closed = 1;
nodes = (
"889 1370 OFFCURVE",
"839 1317 OFFCURVE",
"764 1317 CURVE SMOOTH",
"688 1317 OFFCURVE",
"641 1364 OFFCURVE",
"641 1440 CURVE SMOOTH",
"641 1516 OFFCURVE",
"688 1569 OFFCURVE",
"768 1569 CURVE SMOOTH",
"840 1569 OFFCURVE",
"889 1522 OFFCURVE",
"889 1446 CURVE SMOOTH"
);
}
);
width = 1182;
}
);
unicode = 02DA;
},
{
glyphname = tilde;
lastChange = "2013-03-09 11:19:16 +0200";
layers = (
{
layerId = UUID0;
name = "Light Italic";
paths = (
{
closed = 1;
nodes = (
"932 1249 OFFCURVE",
"995 1320 OFFCURVE",
"1030 1477 CURVE",
"954 1477 LINE",
"930 1384 OFFCURVE",
"893 1346 OFFCURVE",
"836 1346 CURVE SMOOTH",
"808 1346 OFFCURVE",
"777 1358 OFFCURVE",
"742 1382 CURVE SMOOTH",
"685 1421 OFFCURVE",
"646 1445 OFFCURVE",
"624 1454 CURVE SMOOTH",
"603 1463 OFFCURVE",
"578 1468 OFFCURVE",
"551 1468 CURVE SMOOTH",
"442 1468 OFFCURVE",
"371 1387 OFFCURVE",
"346 1243 CURVE",
"420 1243 LINE",
"449 1339 OFFCURVE",
"485 1372 OFFCURVE",
"545 1372 CURVE SMOOTH",
"596 1372 OFFCURVE",
"633 1344 OFFCURVE",
"678 1313 CURVE SMOOTH",
"729 1278 OFFCURVE",
"778 1249 OFFCURVE",
"831 1249 CURVE SMOOTH"
);
}
);
width = 1135;
}
);
unicode = 02DC;
},
{
glyphname = overscore;
lastChange = "2013-03-09 11:19:16 +0200";
layers = (
{
layerId = UUID0;
name = "Light Italic";
paths = (
{
closed = 1;
nodes = (
"1055 1653 LINE",
"401 1653 LINE",
"348 1556 LINE",
"1001 1556 LINE"
);
}
);
width = 655;
}
);
unicode = 00AF;
},
{
glyphname = "alef-hb";
lastChange = "2013-03-12 07:17:07 +0200";
layers = (
{
anchors = (
{
name = bottom;
position = "{402, -152}";
},
{
name = bottomleft;
position = "{-117, 0}";
},
{
name = center;
position = "{375, 372}";
},
{
name = top;
position = "{672, 1118}";
},
{
name = topleft;
position = "{267, 1160}";
}
);
layerId = UUID0;
name = "Light Italic";
paths = (
{
closed = 1;
nodes = (
"1052 1290 LINE",
"952 819 LINE SMOOTH",
"916 650 OFFCURVE",
"864 570 OFFCURVE",
"755 517 CURVE SMOOTH",
"732 506 OFFCURVE",
"709 500 OFFCURVE",
"692 497 CURVE",
"380 1290 LINE",
"271 1290 LINE",
"431 884 LINE",
"178 839 OFFCURVE",
"103 605 OFFCURVE",
"70 449 CURVE SMOOTH",
"-25 0 LINE",
"73 0 LINE",
"168 448 LINE SMOOTH",
"204 617 OFFCURVE",
"262 719 OFFCURVE",
"370 774 CURVE SMOOTH",
"411 795 OFFCURVE",
"446 799 OFFCURVE",
"464 799 CURVE",
"777 0 LINE",
"887 0 LINE",
"725 413 LINE",
"952 469 OFFCURVE",
"1018 668 OFFCURVE",
"1050 818 CURVE SMOOTH",
"1150 1290 LINE"
);
}
);
width = 1141;
}
);
unicode = 05D0;
},
{
glyphname = "bet-hb";
lastChange = "2013-03-12 07:17:07 +0200";
layers = (
{
anchors = (
{
name = bottom;
position = "{336, -152}";
},
{
name = bottomleft;
position = "{-119, 0}";
},
{
name = center;
position = "{373, 665}";
},
{
name = top;
position = "{606, 1118}";
},
{
name = topleft;
position = "{233, 1160}";
}
);
layerId = UUID0;
name = "Light Italic";
paths = (
{
closed = 1;
nodes = (
"385 1310 OFFCURVE",
"288 1305 OFFCURVE",
"209 1300 CURVE",
"190 1209 LINE",
"273 1214 OFFCURVE",
"373 1220 OFFCURVE",
"472 1220 CURVE SMOOTH",
"678 1220 OFFCURVE",
"836 1186 OFFCURVE",
"785 946 CURVE SMOOTH",
"602 88 LINE",
"-48 88 LINE",
"-66 0 LINE",
"837 0 LINE",
"855 88 LINE",
"704 88 LINE",
"887 946 LINE SMOOTH",
"951 1247 OFFCURVE",
"746 1310 OFFCURVE",
"491 1310 CURVE SMOOTH"
);
}
);
width = 1016;
}
);
unicode = 05D1;
},
{
glyphname = "gimel-hb";
lastChange = "2013-03-12 07:17:07 +0200";
layers = (
{
anchors = (
{
name = bottom;
position = "{255, -152}";
},
{
name = bottomleft;
position = "{-78, 0}";
},
{
name = center;
position = "{282, 665}";
},
{
name = top;
position = "{525, 1118}";
},
{
name = topleft;
position = "{381, 1160}";
}
);
layerId = UUID0;
name = "Light Italic";
paths = (
{
closed = 1;
nodes = (
"458 1310 OFFCURVE",
"409 1301 OFFCURVE",
"377 1295 CURVE",
"358 1203 LINE",
"385 1208 OFFCURVE",
"454 1220 OFFCURVE",
"510 1220 CURVE SMOOTH",
"639 1220 OFFCURVE",
"640 1127 OFFCURVE",
"616 1015 CURVE SMOOTH",
"509 511 LINE SMOOTH",
"453 249 OFFCURVE",
"278 88 OFFCURVE",
"100 88 CURVE SMOOTH",
"33 88 OFFCURVE",
"-19 101 OFFCURVE",
"-19 101 CURVE",
"-57 7 LINE",
"-57 7 OFFCURVE",
"0 -4 OFFCURVE",
"71 -4 CURVE SMOOTH",
"277 -4 OFFCURVE",
"381 136 OFFCURVE",
"443 213 CURVE",
"450 213 LINE",
"415 0 LINE",
"502 0 LINE",
"718 1015 LINE SMOOTH",
"754 1184 OFFCURVE",
"716 1310 OFFCURVE",
"537 1310 CURVE SMOOTH"
);
}
);
width = 770;
}
);
unicode = 05D2;
},
{
glyphname = "dalet-hb";
lastChange = "2013-03-12 07:17:07 +0200";
layers = (
{
anchors = (
{
name = bottom;
position = "{516, -152}";
},
{
name = bottomleft;
position = "{-117, 0}";
},
{
name = center;
position = "{371, 665}";
},
{
name = top;
position = "{588, 1118}";
},
{
name = topleft;
position = "{185, 1160}";
}
);
layerId = UUID0;
name = "Light Italic";
paths = (
{
closed = 1;
nodes = (
"182 1290 LINE",
"163 1202 LINE",
"892 1202 LINE",
"892 1202 OFFCURVE",
"738 1139 OFFCURVE",
"693 928 CURVE SMOOTH",
"496 0 LINE",
"598 0 LINE",
"795 928 LINE SMOOTH",
"836 1118 OFFCURVE",
"961 1177 OFFCURVE",
"1070 1213 CURVE",
"1086 1290 LINE"
);
}
);
width = 989;
}
);
unicode = 05D3;
},
{
glyphname = "he-hb";
lastChange = "2013-03-12 07:17:07 +0200";
layers = (
{
anchors = (
{
name = bottom;
position = "{456, -152}";
},
{
name = bottomleft;
position = "{-119, 0}";
},
{
name = center;
position = "{630, 665}";
},
{
name = top;
position = "{726, 1118}";
},
{
name = topleft;
position = "{333, 1160}";
}
);
layerId = UUID0;
name = "Light Italic";
paths = (
{
closed = 1;
nodes = (
"558 1310 OFFCURVE",
"391 1295 OFFCURVE",
"317 1290 CURVE",
"297 1198 LINE",
"378 1204 OFFCURVE",
"558 1220 OFFCURVE",
"733 1220 CURVE SMOOTH",
"939 1220 OFFCURVE",
"1096 1186 OFFCURVE",
"1045 946 CURVE SMOOTH",
"844 0 LINE",
"947 0 LINE",
"1148 946 LINE SMOOTH",
"1212 1247 OFFCURVE",
"1007 1310 OFFCURVE",
"752 1310 CURVE SMOOTH"
);
},
{
closed = 1;
nodes = (
"216 813 LINE",
"43 0 LINE",
"145 0 LINE",
"318 813 LINE"
);
}
);
width = 1256;
}
);
unicode = 05D4;
},
{
glyphname = "vav-hb";
lastChange = "2013-03-12 07:17:07 +0200";
layers = (
{
anchors = (
{
name = bottom;
position = "{64, -152}";
},
{
name = bottomleft;
position = "{-117, 0}";
},
{
name = center;
position = "{4, 665}";
},
{
name = top;
position = "{342, 1160}";
},
{
name = topleft;
position = "{313, 1160}";
}
);
layerId = UUID0;
name = "Light Italic";
paths = (
{
closed = 1;
nodes = (
"319 1290 LINE",
"45 0 LINE",
"147 0 LINE",
"421 1290 LINE"
);
}
);
width = 466;
}
);
unicode = 05D5;
},
{
glyphname = "zayin-hb";
lastChange = "2013-03-12 07:17:07 +0200";
layers = (
{
anchors = (
{
name = bottom;
position = "{55, -152}";
},
{
name = bottomleft;
position = "{-117, 0}";
},
{
name = center;
position = "{4, 665}";
},
{
name = top;
position = "{334, 1118}";
},
{
name = topleft;
position = "{194, 1160}";
}
);
layerId = UUID0;
name = "Light Italic";
paths = (
{
closed = 1;
nodes = (
"174 1290 LINE",
"155 1202 LINE",
"444 1202 LINE",
"403 1171 OFFCURVE",
"265 1042 OFFCURVE",
"217 815 CURVE SMOOTH",
"44 0 LINE",
"146 0 LINE",
"319 815 LINE SMOOTH",
"360 1005 OFFCURVE",
"470 1155 OFFCURVE",
"556 1213 CURVE",
"572 1290 LINE"
);
}
);
width = 466;
}
);
unicode = 05D6;
},
{
glyphname = "het-hb";
lastChange = "2013-03-12 07:17:07 +0200";
layers = (
{
anchors = (
{
name = bottom;
position = "{456, -152}";
},
{
name = bottomleft;
position = "{-119, 0}";
},
{
name = center;
position = "{630, 665}";
},
{
name = top;
position = "{726, 1118}";
},
{
name = topleft;
position = "{336, 1160}";
}
);
layerId = UUID0;
name = "Light Italic";
paths = (
{
closed = 1;
nodes = (
"558 1310 OFFCURVE",
"391 1294 OFFCURVE",
"317 1290 CURVE",
"43 0 LINE",
"145 0 LINE",
"401 1205 LINE",
"491 1212 OFFCURVE",
"613 1220 OFFCURVE",
"733 1220 CURVE SMOOTH",
"939 1220 OFFCURVE",
"1096 1186 OFFCURVE",
"1045 946 CURVE SMOOTH",
"844 0 LINE",
"947 0 LINE",
"1148 946 LINE SMOOTH",
"1212 1247 OFFCURVE",
"1007 1310 OFFCURVE",
"752 1310 CURVE SMOOTH"
);
}
);
width = 1256;
}
);
unicode = 05D7;
},
{
glyphname = "tet-hb";
lastChange = "2013-03-12 07:17:07 +0200";
layers = (
{
anchors = (
{
name = bottom;
position = "{486, -152}";
},
{
name = bottomleft;
position = "{-117, 0}";
},
{
name = center;
position = "{648, 665}";
},
{
name = top;
position = "{730, 1118}";
},
{
name = topleft;
position = "{326, 1160}";
}
);
layerId = UUID0;
name = "Light Italic";
paths = (
{
closed = 1;
nodes = (
"763 1310 OFFCURVE",
"732 1307 OFFCURVE",
"702 1302 CURVE",
"682 1210 LINE",
"711 1216 OFFCURVE",
"743 1220 OFFCURVE",
"776 1220 CURVE SMOOTH",
"1074 1220 OFFCURVE",
"1100 971 OFFCURVE",
"1031 645 CURVE SMOOTH",
"961 318 OFFCURVE",
"830 70 OFFCURVE",
"532 70 CURVE SMOOTH",
"235 70 OFFCURVE",
"203 318 OFFCURVE",
"273 645 CURVE SMOOTH",
"410 1290 LINE",
"307 1290 LINE",
"170 645 LINE SMOOTH",
"71 178 OFFCURVE",
"218 -20 OFFCURVE",
"514 -20 CURVE SMOOTH",
"809 -20 OFFCURVE",
"1040 178 OFFCURVE",
"1139 645 CURVE SMOOTH",
"1238 1112 OFFCURVE",
"1091 1310 OFFCURVE",
"796 1310 CURVE SMOOTH"
);
}
);
width = 1258;
}
);
unicode = 05D8;
},
{
glyphname = "yod-hb";
lastChange = "2013-03-12 07:17:07 +0200";
layers = (
{
anchors = (
{
name = bottom;
position = "{56, -152}";
},
{
name = bottomleft;
position = "{-112, 0}";
},
{
name = center;
position = "{73, 898}";
},
{
name = top;
position = "{326, 1118}";
},
{
name = topleft;
position = "{306, 1160}";
}
);
layerId = UUID0;
name = "Light Italic";
paths = (
{
closed = 1;
nodes = (
"312 1290 LINE",
"140 482 LINE",
"149 482 LINE",
"266 596 LINE",
"414 1290 LINE"
);
}
);
width = 442;
}
);
unicode = 05D9;
},
{
glyphname = "finalkaf-hb";
lastChange = "2013-03-12 07:17:07 +0200";
layers = (
{
anchors = (
{
name = bottom;
position = "{246, 250}";
},
{
name = bottomleft;
position = "{-67, 0}";
},
{
name = center;
position = "{417, 665}";
},
{
name = top;
position = "{635, 1118}";
},
{
name = topleft;
position = "{236, 1160}";
}
);
layerId = UUID0;
name = "Light Italic";
paths = (
{
closed = 1;
nodes = (
"320 1309 OFFCURVE",
"210 1261 OFFCURVE",
"210 1261 CURVE",
"190 1166 LINE",
"243 1181 OFFCURVE",
"326 1220 OFFCURVE",
"471 1220 CURVE SMOOTH",
"751 1220 OFFCURVE",
"824 1017 OFFCURVE",
"761 717 CURVE SMOOTH",
"504 -492 LINE",
"504 -492 OFFCURVE",
"608 -492 OFFCURVE",
"608 -492 CURVE",
"865 717 LINE SMOOTH",
"925 999 OFFCURVE",
"881 1309 OFFCURVE",
"490 1309 CURVE SMOOTH"
);
}
);
width = 968;
}
);
unicode = 05DA;
},
{
glyphname = "kaf-hb";
lastChange = "2013-03-12 07:17:07 +0200";
layers = (
{
anchors = (
{
name = bottom;
position = "{187, -152}";
},
{
name = bottomleft;
position = "{-117, 0}";
},
{
name = center;
position = "{362, 665}";
},
{
name = top;
position = "{582, 1118}";
},
{
name = topleft;
position = "{218, 1160}";
}
);
layerId = UUID0;
name = "Light Italic";
paths = (
{
closed = 1;
nodes = (
"309 1309 OFFCURVE",
"203 1261 OFFCURVE",
"203 1261 CURVE",
"183 1166 LINE",
"236 1181 OFFCURVE",
"325 1220 OFFCURVE",
"464 1220 CURVE SMOOTH",
"744 1220 OFFCURVE",
"817 1017 OFFCURVE",
"753 717 CURVE SMOOTH",
"715 536 LINE SMOOTH",
"689 414 OFFCURVE",
"569 70 OFFCURVE",
"237 70 CURVE SMOOTH",
"61 70 OFFCURVE",
"-39 124 OFFCURVE",
"-39 124 CURVE",
"-62 16 LINE",
"-62 16 OFFCURVE",
"53 -20 OFFCURVE",
"219 -20 CURVE SMOOTH",
"683 -20 OFFCURVE",
"797 434 OFFCURVE",
"819 536 CURVE SMOOTH",
"857 717 LINE SMOOTH",
"917 999 OFFCURVE",
"874 1309 OFFCURVE",
"483 1309 CURVE SMOOTH"
);
}
);
width = 961;
}
);
unicode = 05DB;
},
{
glyphname = "lamed-hb";
lastChange = "2013-03-12 07:17:07 +0200";
layers = (
{
anchors = (
{
name = bottom;
position = "{348, -152}";
},
{
name = bottomleft;
position = "{-112, 0}";
},
{
name = center;
position = "{328, 665}";
},
{
name = top;
position = "{571, 1118}";
},
{
name = topleft;
position = "{39, 1160}";
}
);
layerId = UUID0;
name = "Light Italic";
paths = (
{
closed = 1;
nodes = (
"247 1569 LINE",
"168 1200 LINE",
"876 1200 LINE",
"523 494 LINE",
"524 496 LINE",
"329 0 LINE",
"433 0 LINE",
"632 507 LINE",
"967 1182 LINE",
"992 1296 LINE",
"291 1296 LINE",
"349 1569 LINE"
);
}
);
width = 930;
}
);
unicode = 05DC;
},
{
glyphname = "finalmem-hb";
lastChange = "2013-03-12 07:17:07 +0200";
layers = (
{
anchors = (
{
name = bottom;
position = "{451, -152}";
},
{
name = bottomleft;
position = "{-119, 0}";
},
{
name = center;
position = "{625, 665}";
},
{
name = top;
position = "{721, 1118}";
},
{
name = topleft;
position = "{316, 1160}";
}
);
layerId = UUID0;
name = "Light Italic";
paths = (
{
closed = 1;
nodes = (
"548 1310 OFFCURVE",
"381 1294 OFFCURVE",
"307 1290 CURVE",
"33 0 LINE",
"937 0 LINE",
"1138 946 LINE SMOOTH",
"1202 1247 OFFCURVE",
"997 1310 OFFCURVE",
"742 1310 CURVE SMOOTH"
);
},
{
closed = 1;
nodes = (
"929 1220 OFFCURVE",
"1086 1186 OFFCURVE",
"1035 946 CURVE SMOOTH",
"852 88 LINE",
"153 88 LINE",
"391 1205 LINE",
"481 1212 OFFCURVE",
"603 1220 OFFCURVE",
"723 1220 CURVE SMOOTH"
);
}
);
width = 1246;
}
);
unicode = 05DD;
},
{
glyphname = "mem-hb";
lastChange = "2013-03-12 07:17:07 +0200";
layers = (
{
anchors = (
{
name = bottom;
position = "{428, -152}";
},
{
name = bottomleft;
position = "{-119, 0}";
},
{
name = center;
position = "{602, 665}";
},
{
name = top;
position = "{698, 1118}";
},
{
name = topleft;
position = "{251, 1160}";
}
);
layerId = UUID0;
name = "Light Italic";
paths = (
{
closed = 1;
nodes = (
"545 1310 OFFCURVE",
"402 1155 OFFCURVE",
"402 1155 CURVE SMOOTH",
"389 1155 LINE",
"389 1221 OFFCURVE",
"375 1273 OFFCURVE",
"370 1296 CURVE",
"261 1296 LINE",
"269 1251 LINE SMOOTH",
"281 1176 OFFCURVE",
"297 1103 OFFCURVE",
"267 1005 CURVE SMOOTH",
"-42 0 LINE",
"60 0 LINE",
"375 1026 LINE",
"375 1026 OFFCURVE",
"489 1220 OFFCURVE",
"784 1220 CURVE SMOOTH",
"942 1220 OFFCURVE",
"1022 1094 OFFCURVE",
"978 886 CURVE SMOOTH",
"808 88 LINE",
"524 88 LINE",
"506 0 LINE",
"891 0 LINE",
"1079 886 LINE SMOOTH",
"1133 1141 OFFCURVE",
"1047 1310 OFFCURVE",
"803 1310 CURVE SMOOTH"
);
}
);
width = 1200;
}
);
unicode = 05DE;
},
{
glyphname = "finalnun-hb";
lastChange = "2013-03-12 07:17:07 +0200";
layers = (
{
anchors = (
{
name = bottom;
position = "{-283, 250}";
},
{
name = bottomleft;
position = "{-116, 0}";
},
{
name = center;
position = "{32, 665}";
},
{
name = top;
position = "{333, 1118}";
},
{
name = topleft;
position = "{257, 1160}";
}
);
layerId = UUID0;
name = "Light Italic";
paths = (
{
closed = 1;
nodes = (
"252 1290 LINE",
"259 1234 OFFCURVE",
"275 1088 OFFCURVE",
"237 905 CURVE SMOOTH",
"-60 -492 LINE",
"42 -492 LINE",
"339 905 LINE SMOOTH",
"379 1095 OFFCURVE",
"355 1290 OFFCURVE",
"355 1290 CURVE SMOOTH"
);
}
);
width = 462;
}
);
unicode = 05DF;
},
{
glyphname = "nun-hb";
lastChange = "2013-03-12 07:17:07 +0200";
layers = (
{
anchors = (
{
name = bottom;
position = "{270, -152}";
},
{
name = bottomleft;
position = "{-119, 0}";
},
{
name = center;
position = "{394, 665}";
},
{
name = top;
position = "{540, 1118}";
},
{
name = topleft;
position = "{418, 1160}";
}
);
layerId = UUID0;
name = "Light Italic";
paths = (
{
closed = 1;
nodes = (
"499 1310 OFFCURVE",
"443 1301 OFFCURVE",
"412 1295 CURVE",
"392 1203 LINE",
"420 1208 OFFCURVE",
"470 1220 OFFCURVE",
"560 1220 CURVE SMOOTH",
"689 1220 OFFCURVE",
"712 1127 OFFCURVE",
"689 1015 CURVE SMOOTH",
"544 333 LINE",
"518 215 OFFCURVE",
"464 88 OFFCURVE",
"464 88 CURVE",
"464 88 OFFCURVE",
"8 88 OFFCURVE",
"8 88 CURVE SMOOTH",
"8 88 OFFCURVE",
"-10 0 OFFCURVE",
"-10 0 CURVE",
"536 0 LINE",
"536 0 OFFCURVE",
"613 181 OFFCURVE",
"646 333 CURVE",
"791 1015 LINE SMOOTH",
"826 1184 OFFCURVE",
"766 1310 OFFCURVE",
"587 1310 CURVE SMOOTH"
);
}
);
width = 884;
}
);
unicode = 05E0;
},
{
glyphname = "samekh-hb";
lastChange = "2013-03-12 07:17:07 +0200";
layers = (
{
anchors = (
{
name = bottom;
position = "{435, -152}";
},
{
name = bottomleft;
position = "{-117, 0}";
},
{
name = center;
position = "{608, 665}";
},
{
name = top;
position = "{705, 1118}";
},
{
name = topleft;
position = "{285, 1160}";
}
);
layerId = UUID0;
name = "Light Italic";
paths = (
{
closed = 1;
nodes = (
"607 1310 OFFCURVE",
"395 1302 OFFCURVE",
"277 1296 CURVE",
"258 1204 LINE",
"314 1207 OFFCURVE",
"387 1209 OFFCURVE",
"426 1211 CURVE",
"290 1111 OFFCURVE",
"180 932 OFFCURVE",
"120 648 CURVE SMOOTH",
"20 181 OFFCURVE",
"166 -20 OFFCURVE",
"462 -20 CURVE SMOOTH",
"757 -20 OFFCURVE",
"989 181 OFFCURVE",
"1089 648 CURVE SMOOTH",
"1188 1115 OFFCURVE",
"1037 1310 OFFCURVE",
"744 1310 CURVE SMOOTH"
);
},
{
closed = 1;
nodes = (
"1045 1220 OFFCURVE",
"1040 932 OFFCURVE",
"980 648 CURVE SMOOTH",
"910 321 OFFCURVE",
"778 70 OFFCURVE",
"480 70 CURVE SMOOTH",
"183 70 OFFCURVE",
"157 321 OFFCURVE",
"227 648 CURVE SMOOTH",
"283 915 OFFCURVE",
"378 1089 OFFCURVE",
"536 1214 CURVE",
"536 1214 OFFCURVE",
"617 1220 OFFCURVE",
"725 1220 CURVE SMOOTH"
);
}
);
width = 1207;
}
);
unicode = 05E1;
},
{
glyphname = "ayin-hb";
lastChange = "2013-03-12 07:17:07 +0200";
layers = (
{
anchors = (
{
name = bottom;
position = "{417, -152}";
},
{
name = bottomleft;
position = "{-112, 0}";
},
{
name = center;
position = "{694, 665}";
},
{
name = top;
position = "{687, 1118}";
},
{
name = topleft;
position = "{297, 1160}";
}
);
layerId = UUID0;
name = "Light Italic";
paths = (
{
closed = 1;
nodes = (
"1156 1290 LINE",
"983 735 LINE SMOOTH",
"894 448 OFFCURVE",
"678 240 OFFCURVE",
"436 140 CURVE",
"419 706 LINE",
"392 1290 LINE",
"293 1290 LINE",
"353 110 LINE",
"310 97 OFFCURVE",
"267 87 OFFCURVE",
"224 81 CURVE SMOOTH",
"-69 39 LINE",
"-87 -49 LINE",
"30 -33 OFFCURVE",
"213 -6 OFFCURVE",
"213 -6 CURVE",
"654 55 OFFCURVE",
"964 382 OFFCURVE",
"1074 735 CURVE SMOOTH",
"1248 1290 LINE"
);
}
);
width = 1161;
}
);
unicode = 05E2;
},
{
glyphname = "finalpe-hb";
lastChange = "2013-03-12 07:17:07 +0200";
layers = (
{
anchors = (
{
name = bottom;
position = "{434, 250}";
},
{
name = bottomleft;
position = "{-110, 0}";
},
{
name = center;
position = "{620, 855}";
},
{
name = top;
position = "{719, 1118}";
},
{
name = topleft;
position = "{311, 1160}";
}
);
layerId = UUID0;
name = "Light Italic";
paths = (
{
closed = 1;
nodes = (
"491 1310 OFFCURVE",
"216 1161 OFFCURVE",
"152 859 CURVE SMOOTH",
"99 610 OFFCURVE",
"220 441 OFFCURVE",
"430 441 CURVE SMOOTH",
"435 441 LINE",
"468 520 LINE",
"454 522 LINE SMOOTH",
"260 551 OFFCURVE",
"199 662 OFFCURVE",
"241 859 CURVE SMOOTH",
"272 1006 OFFCURVE",
"414 1220 OFFCURVE",
"696 1220 CURVE SMOOTH",
"994 1220 OFFCURVE",
"1026 971 OFFCURVE",
"957 645 CURVE SMOOTH",
"715 -492 LINE",
"817 -492 LINE",
"1059 645 LINE SMOOTH",
"1158 1112 OFFCURVE",
"1012 1310 OFFCURVE",
"717 1310 CURVE SMOOTH"
);
}
);
width = 1222;
}
);
unicode = 05E3;
},
{
glyphname = "pe-hb";
lastChange = "2013-03-12 07:17:07 +0200";
layers = (
{
anchors = (
{
name = bottom;
position = "{426, -152}";
},
{
name = bottomleft;
position = "{-117, 0}";
},
{
name = center;
position = "{638, 846}";
},
{
name = top;
position = "{696, 1118}";
},
{
name = topleft;
position = "{301, 1160}";
}
);
layerId = UUID0;
name = "Light Italic";
paths = (
{
closed = 1;
nodes = (
"502 1310 OFFCURVE",
"229 1161 OFFCURVE",
"164 859 CURVE SMOOTH",
"112 610 OFFCURVE",
"232 441 OFFCURVE",
"442 441 CURVE SMOOTH",
"447 441 LINE",
"479 520 LINE",
"465 520 LINE SMOOTH",
"295 520 OFFCURVE",
"211 662 OFFCURVE",
"252 859 CURVE SMOOTH",
"284 1006 OFFCURVE",
"426 1220 OFFCURVE",
"708 1220 CURVE SMOOTH",
"1006 1220 OFFCURVE",
"1032 971 OFFCURVE",
"963 645 CURVE SMOOTH",
"893 318 OFFCURVE",
"762 70 OFFCURVE",
"464 70 CURVE SMOOTH",
"305 70 OFFCURVE",
"144 89 OFFCURVE",
"144 89 CURVE",
"125 0 LINE",
"125 0 OFFCURVE",
"252 -20 OFFCURVE",
"446 -20 CURVE SMOOTH",
"741 -20 OFFCURVE",
"972 178 OFFCURVE",
"1071 645 CURVE SMOOTH",
"1170 1112 OFFCURVE",
"1023 1310 OFFCURVE",
"728 1310 CURVE SMOOTH"
);
}
);
width = 1190;
}
);
unicode = 05E4;
},
{
glyphname = "finaltsadi-hb";
lastChange = "2013-03-12 07:17:07 +0200";
layers = (
{
anchors = (
{
name = bottom;
position = "{-181, 250}";
},
{
name = bottomleft;
position = "{-100, 0}";
},
{
name = center;
position = "{529, 877}";
},
{
name = top;
position = "{567, 1118}";
},
{
name = topleft;
position = "{171, 1160}";
}
);
layerId = UUID0;
name = "Light Italic";
paths = (
{
closed = 1;
nodes = (
"853 1290 LINE",
"771 901 LINE SMOOTH",
"735 732 OFFCURVE",
"639 616 OFFCURVE",
"526 586 CURVE SMOOTH",
"367 544 LINE",
"367 544 OFFCURVE",
"296 1043 OFFCURVE",
"256 1290 CURVE",
"154 1290 LINE",
"266 550 LINE",
"45 -492 LINE",
"147 -492 LINE",
"346 448 LINE",
"506 489 LINE SMOOTH",
"760 552 OFFCURVE",
"839 745 OFFCURVE",
"872 901 CURVE SMOOTH",
"954 1290 LINE"
);
}
);
width = 898;
}
);
unicode = 05E5;
},
{
glyphname = "tsadi-hb";
lastChange = "2013-03-12 07:17:07 +0200";
layers = (
{
anchors = (
{
name = bottom;
position = "{368, -152}";
},
{
name = bottomleft;
position = "{-117, 0}";
},
{
name = center;
position = "{229, 495}";
},
{
name = top;
position = "{638, 1118}";
},
{
name = topleft;
position = "{229, 1160}";
}
);
layerId = UUID0;
name = "Light Italic";
paths = (
{
closed = 1;
nodes = (
"1024 1290 LINE",
"945 1036 LINE SMOOTH",
"883 839 OFFCURVE",
"764 681 OFFCURVE",
"618 568 CURVE",
"580 650 LINE",
"331 1290 LINE",
"223 1290 LINE",
"506 580 LINE",
"731 88 LINE",
"-36 88 LINE",
"-55 0 LINE",
"833 0 LINE",
"846 63 LINE",
"652 492 LINE",
"838 633 OFFCURVE",
"972 830 OFFCURVE",
"1036 1036 CURVE SMOOTH",
"1114 1290 LINE"
);
}
);
width = 1074;
}
);
unicode = 05E6;
},
{
glyphname = "qof-hb";
lastChange = "2013-03-12 07:17:07 +0200";
layers = (
{
anchors = (
{
name = bottom;
position = "{566, -152}";
},
{
name = bottomleft;
position = "{-115, 0}";
},
{
name = center;
position = "{575, 665}";
},
{
name = top;
position = "{690, 1118}";
},
{
name = topleft;
position = "{326, 1160}";
}
);
layerId = UUID0;
name = "Light Italic";
paths = (
{
closed = 1;
nodes = (
"321 1290 LINE",
"303 1202 LINE",
"1111 1202 LINE",
"809 593 LINE SMOOTH",
"721 415 OFFCURVE",
"575 124 OFFCURVE",
"552 17 CURVE SMOOTH",
"548 0 LINE",
"648 0 LINE",
"652 17 LINE SMOOTH",
"673 117 OFFCURVE",
"822 411 OFFCURVE",
"911 593 CURVE SMOOTH",
"1213 1202 LINE",
"1231 1290 LINE"
);
},
{
closed = 1;
nodes = (
"210 759 LINE",
"-56 -492 LINE",
"46 -492 LINE",
"312 759 LINE"
);
}
);
width = 1174;
}
);
unicode = 05E7;
},
{
glyphname = "resh-hb";
lastChange = "2013-03-12 07:17:07 +0200";
layers = (
{
anchors = (
{
name = bottom;
position = "{619, -152}";
},
{
name = bottomleft;
position = "{-104, 0}";
},
{
name = center;
position = "{355, 665}";
},
{
name = top;
position = "{610, 1118}";
},
{
name = topleft;
position = "{216, 1160}";
}
);
layerId = UUID0;
name = "Light Italic";
paths = (
{
closed = 1;
nodes = (
"367 1310 OFFCURVE",
"197 1300 OFFCURVE",
"197 1300 CURVE",
"178 1209 LINE",
"178 1209 OFFCURVE",
"343 1220 OFFCURVE",
"486 1220 CURVE SMOOTH",
"692 1220 OFFCURVE",
"850 1186 OFFCURVE",
"799 946 CURVE SMOOTH",
"598 0 LINE",
"700 0 LINE",
"901 946 LINE SMOOTH",
"965 1247 OFFCURVE",
"760 1310 OFFCURVE",
"505 1310 CURVE SMOOTH"
);
}
);
width = 993;
}
);
unicode = 05E8;
},
{
glyphname = "shin-hb";
lastChange = "2013-03-12 07:17:07 +0200";
layers = (
{
anchors = (
{
name = bottom;
position = "{437, -152}";
},
{
name = bottomleft;
position = "{-117, 0}";
},
{
name = center;
position = "{720, 450}";
},
{
name = top;
position = "{794, 1160}";
},
{
name = topleft;
position = "{211, 1160}";
},
{
name = topright;
position = "{1458, 1160}";
}
);
layerId = UUID0;
name = "Light Italic";
paths = (
{
closed = 1;
nodes = (
"1359 1290 LINE",
"1187 735 LINE SMOOTH",
"1073 366 OFFCURVE",
"748 86 OFFCURVE",
"434 87 CURVE SMOOTH",
"150 88 LINE",
"193 426 LINE",
"198 427 LINE",
"552 499 OFFCURVE",
"694 666 OFFCURVE",
"810 1036 CURVE SMOOTH",
"889 1290 LINE",
"798 1290 LINE",
"719 1036 LINE SMOOTH",
"609 682 OFFCURVE",
"472 579 OFFCURVE",
"216 515 CURVE SMOOTH",
"204 512 LINE",
"304 1290 LINE",
"209 1290 LINE",
"44 0 LINE",
"416 0 LINE SMOOTH",
"847 0 OFFCURVE",
"1168 382 OFFCURVE",
"1278 735 CURVE SMOOTH",
"1451 1290 LINE"
);
}
);
width = 1369;
}
);
unicode = 05E9;
},
{
glyphname = "tav-hb";
lastChange = "2013-03-12 07:17:07 +0200";
layers = (
{
anchors = (
{
name = bottom;
position = "{444, -152}";
},
{
name = bottomleft;
position = "{-119, 0}";
},
{
name = center;
position = "{641, 665}";
},
{
name = top;
position = "{714, 1118}";
},
{
name = topleft;
position = "{262, 1160}";
}
);
layerId = UUID0;
name = "Light Italic";
paths = (
{
closed = 1;
nodes = (
"534 1310 OFFCURVE",
"319 1295 OFFCURVE",
"245 1290 CURVE",
"225 1198 LINE",
"374 1208 LINE",
"182 308 LINE SMOOTH",
"150 154 OFFCURVE",
"70 90 OFFCURVE",
"-28 90 CURVE SMOOTH",
"-47 90 OFFCURVE",
"-76 91 OFFCURVE",
"-94 93 CURVE",
"-112 9 LINE",
"-93 5 OFFCURVE",
"-69 0 OFFCURVE",
"-47 0 CURVE SMOOTH",
"137 0 OFFCURVE",
"242 109 OFFCURVE",
"284 308 CURVE SMOOTH",
"477 1213 LINE",
"553 1217 OFFCURVE",
"636 1220 OFFCURVE",
"709 1220 CURVE SMOOTH",
"915 1220 OFFCURVE",
"1073 1186 OFFCURVE",
"1022 946 CURVE SMOOTH",
"821 0 LINE",
"923 0 LINE",
"1124 946 LINE SMOOTH",
"1188 1247 OFFCURVE",
"983 1310 OFFCURVE",
"728 1310 CURVE SMOOTH"
);
}
);
width = 1232;
}
);
unicode = 05EA;
},
{
glyphname = "sheva-hb";
lastChange = "2013-03-12 07:17:07 +0200";
layers = (
{
anchors = (
{
name = _bottom;
position = "{665, -112}";
},
{
name = bottom_1;
position = "{61, 0}";
},
{
name = bottom_2;
position = "{61, 0}";
},
{
name = top_1;
position = "{61, 0}";
},
{
name = top_2;
position = "{61, 0}";
}
);
layerId = UUID0;
name = "Light Italic";
paths = (
{
closed = 1;
nodes = (
"574 -343 OFFCURVE",
"548 -369 OFFCURVE",
"537 -419 CURVE SMOOTH",
"526 -469 OFFCURVE",
"542 -494 OFFCURVE",
"582 -494 CURVE SMOOTH",
"625 -494 OFFCURVE",
"651 -469 OFFCURVE",
"662 -419 CURVE SMOOTH",
"673 -369 OFFCURVE",
"657 -343 OFFCURVE",
"614 -343 CURVE SMOOTH"
);
},
{
closed = 1;
nodes = (
"630 -80 OFFCURVE",
"604 -105 OFFCURVE",
"593 -156 CURVE SMOOTH",
"582 -205 OFFCURVE",
"598 -230 OFFCURVE",
"638 -230 CURVE SMOOTH",
"681 -230 OFFCURVE",
"707 -205 OFFCURVE",
"718 -156 CURVE SMOOTH",
"729 -105 OFFCURVE",
"713 -80 OFFCURVE",
"670 -80 CURVE SMOOTH"
);
}
);
width = 1256;
}
);
unicode = 05B0;
},
{
glyphname = "hatafsegol-hb";
lastChange = "2013-03-12 07:17:07 +0200";
layers = (
{
anchors = (
{
name = _bottom;
position = "{664, -112}";
}
);
layerId = UUID0;
name = "Light Italic";
paths = (
{
closed = 1;
nodes = (
"474 -343 OFFCURVE",
"448 -369 OFFCURVE",
"437 -419 CURVE SMOOTH",
"426 -469 OFFCURVE",
"442 -494 OFFCURVE",
"482 -494 CURVE SMOOTH",
"525 -494 OFFCURVE",
"551 -469 OFFCURVE",
"562 -419 CURVE SMOOTH",
"573 -369 OFFCURVE",
"557 -343 OFFCURVE",
"514 -343 CURVE SMOOTH"
);
},
{
closed = 1;
nodes = (
"388 -80 OFFCURVE",
"362 -105 OFFCURVE",
"351 -156 CURVE SMOOTH",
"340 -205 OFFCURVE",
"356 -230 OFFCURVE",
"396 -230 CURVE SMOOTH",
"438 -230 OFFCURVE",
"464 -205 OFFCURVE",
"475 -156 CURVE SMOOTH",
"486 -105 OFFCURVE",
"470 -80 OFFCURVE",
"428 -80 CURVE SMOOTH"
);
},
{
closed = 1;
nodes = (
"873 -343 OFFCURVE",
"848 -369 OFFCURVE",
"837 -419 CURVE SMOOTH",
"826 -469 OFFCURVE",
"841 -494 OFFCURVE",
"881 -494 CURVE SMOOTH",
"924 -494 OFFCURVE",
"950 -469 OFFCURVE",
"961 -419 CURVE SMOOTH",
"972 -369 OFFCURVE",
"956 -343 OFFCURVE",
"913 -343 CURVE SMOOTH"
);
},
{
closed = 1;
nodes = (
"675 -80 OFFCURVE",
"649 -105 OFFCURVE",
"638 -156 CURVE SMOOTH",
"627 -205 OFFCURVE",
"643 -230 OFFCURVE",
"683 -230 CURVE SMOOTH",
"725 -230 OFFCURVE",
"751 -205 OFFCURVE",
"762 -156 CURVE SMOOTH",
"773 -105 OFFCURVE",
"757 -80 OFFCURVE",
"715 -80 CURVE SMOOTH"
);
},
{
closed = 1;
nodes = (
"929 -80 OFFCURVE",
"904 -105 OFFCURVE",
"893 -156 CURVE SMOOTH",
"882 -205 OFFCURVE",
"897 -230 OFFCURVE",
"937 -230 CURVE SMOOTH",
"980 -230 OFFCURVE",
"1006 -205 OFFCURVE",
"1017 -156 CURVE SMOOTH",
"1028 -105 OFFCURVE",
"1012 -80 OFFCURVE",
"969 -80 CURVE SMOOTH"
);
}
);
width = 1256;
}
);
unicode = 05B1;
},
{
glyphname = "hatafpatah-hb";
lastChange = "2013-03-12 07:17:07 +0200";
layers = (
{
anchors = (
{
name = _bottom;
position = "{665, -112}";
}
);
layerId = UUID0;
name = "Light Italic";
paths = (
{
closed = 1;
nodes = (
"393 -119 LINE",
"378 -190 LINE",
"734 -190 LINE",
"749 -119 LINE"
);
},
{
closed = 1;
nodes = (
"814 -343 OFFCURVE",
"788 -369 OFFCURVE",
"777 -419 CURVE SMOOTH",
"766 -469 OFFCURVE",
"782 -494 OFFCURVE",
"822 -494 CURVE SMOOTH",
"865 -494 OFFCURVE",
"891 -469 OFFCURVE",
"902 -419 CURVE SMOOTH",
"913 -369 OFFCURVE",
"897 -343 OFFCURVE",
"854 -343 CURVE SMOOTH"
);
},
{
closed = 1;
nodes = (
"870 -80 OFFCURVE",
"844 -105 OFFCURVE",
"833 -156 CURVE SMOOTH",
"822 -205 OFFCURVE",
"838 -230 OFFCURVE",
"878 -230 CURVE SMOOTH",
"921 -230 OFFCURVE",
"947 -205 OFFCURVE",
"958 -156 CURVE SMOOTH",
"969 -105 OFFCURVE",
"953 -80 OFFCURVE",
"910 -80 CURVE SMOOTH"
);
}
);
width = 1256;
}
);
unicode = 05B2;
},
{
glyphname = "hatafqamats-hb";
lastChange = "2013-03-12 07:17:07 +0200";
layers = (
{
anchors = (
{
name = _bottom;
position = "{665, -112}";
}
);
layerId = UUID0;
name = "Light Italic";
paths = (
{
closed = 1;
nodes = (
"393 -119 LINE",
"378 -190 LINE",
"520 -190 LINE",
"477 -392 LINE",
"549 -392 LINE",
"592 -190 LINE",
"734 -190 LINE",
"749 -119 LINE"
);
},
{
closed = 1;
nodes = (
"814 -343 OFFCURVE",
"788 -369 OFFCURVE",
"777 -419 CURVE SMOOTH",
"766 -469 OFFCURVE",
"782 -494 OFFCURVE",
"822 -494 CURVE SMOOTH",
"865 -494 OFFCURVE",
"891 -469 OFFCURVE",
"902 -419 CURVE SMOOTH",
"913 -369 OFFCURVE",
"897 -343 OFFCURVE",
"854 -343 CURVE SMOOTH"
);
},
{
closed = 1;
nodes = (
"870 -80 OFFCURVE",
"844 -105 OFFCURVE",
"833 -156 CURVE SMOOTH",
"822 -205 OFFCURVE",
"838 -230 OFFCURVE",
"878 -230 CURVE SMOOTH",
"921 -230 OFFCURVE",
"947 -205 OFFCURVE",
"958 -156 CURVE SMOOTH",
"969 -105 OFFCURVE",
"953 -80 OFFCURVE",
"910 -80 CURVE SMOOTH"
);
}
);
width = 1256;
}
);
unicode = 05B3;
},
{
glyphname = "hiriq-hb";
lastChange = "2013-03-12 07:17:07 +0200";
layers = (
{
anchors = (
{
name = _bottom;
position = "{637, -112}";
}
);
layerId = UUID0;
name = "Light Italic";
paths = (
{
closed = 1;
nodes = (
"602 -80 OFFCURVE",
"576 -105 OFFCURVE",
"565 -156 CURVE SMOOTH",
"554 -205 OFFCURVE",
"570 -230 OFFCURVE",
"610 -230 CURVE SMOOTH",
"653 -230 OFFCURVE",
"679 -205 OFFCURVE",
"690 -156 CURVE SMOOTH",
"701 -105 OFFCURVE",
"685 -80 OFFCURVE",
"642 -80 CURVE SMOOTH"
);
}
);
width = 1256;
}
);
unicode = 05B4;
},
{
glyphname = "tsere-hb";
lastChange = "2013-03-12 07:17:07 +0200";
layers = (
{
anchors = (
{
name = _bottom;
position = "{637, -112}";
}
);
layerId = UUID0;
name = "Light Italic";
paths = (
{
closed = 1;
nodes = (
"746 -80 OFFCURVE",
"720 -105 OFFCURVE",
"709 -156 CURVE SMOOTH",
"698 -205 OFFCURVE",
"714 -230 OFFCURVE",
"754 -230 CURVE SMOOTH",
"796 -230 OFFCURVE",
"822 -205 OFFCURVE",
"833 -156 CURVE SMOOTH",
"844 -105 OFFCURVE",
"828 -80 OFFCURVE",
"786 -80 CURVE SMOOTH"
);
},
{
closed = 1;
nodes = (
"459 -80 OFFCURVE",
"433 -105 OFFCURVE",
"422 -156 CURVE SMOOTH",
"411 -205 OFFCURVE",
"427 -230 OFFCURVE",
"467 -230 CURVE SMOOTH",
"509 -230 OFFCURVE",
"535 -205 OFFCURVE",
"546 -156 CURVE SMOOTH",
"557 -105 OFFCURVE",
"541 -80 OFFCURVE",
"499 -80 CURVE SMOOTH"
);
}
);
width = 1256;
}
);
unicode = 05B5;
},
{
glyphname = "segol-hb";
lastChange = "2013-03-12 07:17:07 +0200";
layers = (
{
anchors = (
{
name = _bottom;
position = "{665, -112}";
}
);
layerId = UUID0;
name = "Light Italic";
paths = (
{
closed = 1;
nodes = (
"574 -343 OFFCURVE",
"548 -369 OFFCURVE",
"537 -419 CURVE SMOOTH",
"526 -469 OFFCURVE",
"542 -494 OFFCURVE",
"582 -494 CURVE SMOOTH",
"625 -494 OFFCURVE",
"651 -469 OFFCURVE",
"662 -419 CURVE SMOOTH",
"673 -369 OFFCURVE",
"657 -343 OFFCURVE",
"614 -343 CURVE SMOOTH"
);
},
{
closed = 1;
nodes = (
"488 -80 OFFCURVE",
"462 -105 OFFCURVE",
"451 -156 CURVE SMOOTH",
"440 -205 OFFCURVE",
"456 -230 OFFCURVE",
"496 -230 CURVE SMOOTH",
"538 -230 OFFCURVE",
"564 -205 OFFCURVE",
"575 -156 CURVE SMOOTH",
"586 -105 OFFCURVE",
"570 -80 OFFCURVE",
"528 -80 CURVE SMOOTH"
);
},
{
closed = 1;
nodes = (
"775 -80 OFFCURVE",
"749 -105 OFFCURVE",
"738 -156 CURVE SMOOTH",
"727 -205 OFFCURVE",
"743 -230 OFFCURVE",
"783 -230 CURVE SMOOTH",
"825 -230 OFFCURVE",
"851 -205 OFFCURVE",
"862 -156 CURVE SMOOTH",
"873 -105 OFFCURVE",
"857 -80 OFFCURVE",
"815 -80 CURVE SMOOTH"
);
}
);
width = 1256;
}
);
unicode = 05B6;
},
{
glyphname = "patah-hb";
lastChange = "2013-03-12 07:17:07 +0200";
layers = (
{
anchors = (
{
name = _bottom;
position = "{634, -119}";
}
);
layerId = UUID0;
name = "Light Italic";
paths = (
{
closed = 1;
nodes = (
"456 -111 LINE",
"440 -183 LINE",
"797 -183 LINE",
"813 -111 LINE"
);
}
);
width = 1256;
}
);
unicode = 05B7;
},
{
glyphname = "qamats-hb";
lastChange = "2013-03-12 07:17:07 +0200";
layers = (
{
anchors = (
{
name = _bottom;
position = "{655, -119}";
}
);
layerId = UUID0;
name = "Light Italic";
paths = (
{
closed = 1;
nodes = (
"477 -111 LINE",
"462 -183 LINE",
"605 -183 LINE",
"562 -384 LINE",
"633 -384 LINE",
"676 -183 LINE",
"819 -183 LINE",
"834 -111 LINE"
);
}
);
width = 1256;
}
);
unicode = 05B8;
},
{
glyphname = "holam-hb";
lastChange = "2013-03-12 07:17:07 +0200";
layers = (
{
anchors = (
{
name = _topleft;
position = "{561, 972}";
}
);
layerId = UUID0;
name = "Light Italic";
paths = (
{
closed = 1;
nodes = (
"602 1360 OFFCURVE",
"576 1335 OFFCURVE",
"565 1284 CURVE SMOOTH",
"554 1235 OFFCURVE",
"570 1210 OFFCURVE",
"610 1210 CURVE SMOOTH",
"653 1210 OFFCURVE",
"679 1235 OFFCURVE",
"690 1284 CURVE SMOOTH",
"701 1335 OFFCURVE",
"685 1360 OFFCURVE",
"642 1360 CURVE SMOOTH"
);
}
);
width = 1256;
}
);
unicode = 05B9;
},
{
glyphname = "holamhaser-hb";
lastChange = "2013-03-12 07:17:07 +0200";
layers = (
{
anchors = (
{
name = _topleft;
position = "{518, 972}";
}
);
layerId = UUID0;
name = "Light Italic";
paths = (
{
closed = 1;
nodes = (
"559 1360 OFFCURVE",
"534 1335 OFFCURVE",
"523 1284 CURVE SMOOTH",
"512 1235 OFFCURVE",
"527 1210 OFFCURVE",
"567 1210 CURVE SMOOTH",
"610 1210 OFFCURVE",
"636 1235 OFFCURVE",
"647 1284 CURVE SMOOTH",
"658 1335 OFFCURVE",
"642 1360 OFFCURVE",
"599 1360 CURVE SMOOTH"
);
}
);
width = 600;
}
);
unicode = 05BA;
},
{
glyphname = "qubuts-hb";
lastChange = "2013-03-12 07:17:07 +0200";
layers = (
{
anchors = (
{
name = _bottom;
position = "{668, -97}";
}
);
layerId = UUID0;
name = "Light Italic";
paths = (
{
closed = 1;
nodes = (
"602 -211 OFFCURVE",
"576 -237 OFFCURVE",
"565 -287 CURVE SMOOTH",
"554 -337 OFFCURVE",
"570 -362 OFFCURVE",
"610 -362 CURVE SMOOTH",
"653 -362 OFFCURVE",
"679 -337 OFFCURVE",
"690 -287 CURVE SMOOTH",
"701 -237 OFFCURVE",
"685 -211 OFFCURVE",
"642 -211 CURVE SMOOTH"
);
},
{
closed = 1;
nodes = (
"719 -343 OFFCURVE",
"693 -369 OFFCURVE",
"682 -419 CURVE SMOOTH",
"671 -469 OFFCURVE",
"687 -494 OFFCURVE",
"727 -494 CURVE SMOOTH",
"769 -494 OFFCURVE",
"795 -469 OFFCURVE",
"806 -419 CURVE SMOOTH",
"817 -369 OFFCURVE",
"801 -343 OFFCURVE",
"759 -343 CURVE SMOOTH"
);
},
{
closed = 1;
nodes = (
"488 -80 OFFCURVE",
"462 -105 OFFCURVE",
"451 -156 CURVE SMOOTH",
"440 -205 OFFCURVE",
"456 -230 OFFCURVE",
"496 -230 CURVE SMOOTH",
"538 -230 OFFCURVE",
"564 -205 OFFCURVE",
"575 -156 CURVE SMOOTH",
"586 -105 OFFCURVE",
"570 -80 OFFCURVE",
"528 -80 CURVE SMOOTH"
);
}
);
width = 1256;
}
);
unicode = 05BB;
},
{
glyphname = "dagesh-hb";
lastChange = "2013-03-12 07:17:07 +0200";
layers = (
{
anchors = (
{
name = _center;
position = "{628, 563}";
}
);
layerId = UUID0;
name = "Light Italic";
paths = (
{
closed = 1;
nodes = (
"602 639 OFFCURVE",
"576 614 OFFCURVE",
"565 563 CURVE SMOOTH",
"554 514 OFFCURVE",
"570 489 OFFCURVE",
"610 489 CURVE SMOOTH",
"653 489 OFFCURVE",
"679 514 OFFCURVE",
"690 563 CURVE SMOOTH",
"701 614 OFFCURVE",
"685 639 OFFCURVE",
"642 639 CURVE SMOOTH"
);
}
);
width = 1256;
}
);
unicode = 05BC;
},
{
glyphname = uni05BD;
lastChange = "2013-03-12 07:17:07 +0200";
layers = (
{
anchors = (
{
name = _bottom;
position = "{664, -119}";
}
);
layerId = UUID0;
name = "Light Italic";
paths = (
{
closed = 1;
nodes = (
"616 -137 LINE",
"550 -443 LINE",
"639 -443 LINE",
"705 -137 LINE"
);
}
);
width = 1256;
}
);
unicode = 05BD;
},
{
glyphname = "shindot-hb";
lastChange = "2013-03-12 07:17:07 +0200";
layers = (
{
anchors = (
{
name = _topright;
position = "{563, 972}";
}
);
layerId = UUID0;
name = "Light Italic";
paths = (
{
closed = 1;
nodes = (
"555 1360 OFFCURVE",
"529 1335 OFFCURVE",
"518 1284 CURVE SMOOTH",
"507 1235 OFFCURVE",
"523 1210 OFFCURVE",
"563 1210 CURVE SMOOTH",
"606 1210 OFFCURVE",
"632 1235 OFFCURVE",
"643 1284 CURVE SMOOTH",
"654 1335 OFFCURVE",
"638 1360 OFFCURVE",
"595 1360 CURVE SMOOTH"
);
}
);
width = 1256;
}
);
unicode = 05C1;
},
{
glyphname = "sindot-hb";
lastChange = "2013-03-12 07:17:07 +0200";
layers = (
{
anchors = (
{
name = _topleft;
position = "{561, 972}";
}
);
layerId = UUID0;
name = "Light Italic";
paths = (
{
closed = 1;
nodes = (
"602 1360 OFFCURVE",
"576 1335 OFFCURVE",
"565 1284 CURVE SMOOTH",
"554 1235 OFFCURVE",
"570 1210 OFFCURVE",
"610 1210 CURVE SMOOTH",
"653 1210 OFFCURVE",
"679 1235 OFFCURVE",
"690 1284 CURVE SMOOTH",
"701 1335 OFFCURVE",
"685 1360 OFFCURVE",
"642 1360 CURVE SMOOTH"
);
}
);
width = 1256;
}
);
unicode = 05C2;
},
{
glyphname = "qamatsqatan-hb";
lastChange = "2013-03-12 07:17:07 +0200";
layers = (
{
anchors = (
{
name = _bottom;
position = "{260, 17}";
}
);
layerId = UUID0;
name = "Light Italic";
paths = (
{
closed = 1;
nodes = (
"107 -57 LINE",
"92 -129 LINE",
"200 -129 LINE",
"175 -246 LINE",
"246 -246 LINE",
"271 -129 LINE",
"379 -129 LINE",
"394 -57 LINE"
);
}
);
width = 600;
}
);
unicode = 05C7;
},
{
glyphname = "sheqel-hb";
lastChange = "2013-03-09 11:28:30 +0200";
layers = (
{
layerId = UUID0;
name = "Light Italic";
paths = (
{
closed = 1;
nodes = (
"931 1202 OFFCURVE",
"1051 1169 OFFCURVE",
"1000 929 CURVE SMOOTH",
"859 264 LINE",
"961 264 LINE",
"1102 929 LINE SMOOTH",
"1166 1230 OFFCURVE",
"1012 1290 OFFCURVE",
"722 1290 CURVE SMOOTH",
"307 1290 LINE",
"33 0 LINE",
"135 0 LINE",
"390 1202 LINE",
"703 1202 LINE SMOOTH"
);
},
{
closed = 1;
nodes = (
"523 88 LINE",
"722 1026 LINE",
"620 1026 LINE",
"402 0 LINE",
"657 0 LINE SMOOTH",
"1045 0 OFFCURVE",
"1340 235 OFFCURVE",
"1428 651 CURVE SMOOTH",
"1564 1290 LINE",
"1462 1290 LINE",
"1326 651 LINE SMOOTH",
"1247 279 OFFCURVE",
"1010 88 OFFCURVE",
"676 88 CURVE SMOOTH"
);
}
);
width = 1597;
}
);
unicode = 20AA;
},
{
glyphname = "rafeh-hb";
lastChange = "2013-03-09 11:28:36 +0200";
layers = (
{
layerId = UUID0;
name = "Light Italic";
paths = (
{
closed = 1;
nodes = (
"384 1449 LINE",
"854 1449 LINE",
"872 1532 LINE",
"402 1532 LINE"
);
}
);
width = 1256;
}
);
},
{
glyphname = "geresh-hb";
lastChange = "2013-03-12 15:04:43 +0200";
layers = (
{
layerId = UUID0;
name = "Light Italic";
paths = (
{
closed = 1;
nodes = (
"312 1290 LINE",
"285 1209 OFFCURVE",
"251 1122 OFFCURVE",
"208 1031 CURVE SMOOTH",
"166 940 OFFCURVE",
"123 860 OFFCURVE",
"79 789 CURVE",
"153 789 LINE",
"209 864 OFFCURVE",
"262 945 OFFCURVE",
"311 1032 CURVE SMOOTH",
"361 1119 OFFCURVE",
"400 1198 OFFCURVE",
"429 1268 CURVE",
"425 1290 LINE"
);
}
);
width = 297;
}
);
unicode = 05F3;
},
{
glyphname = "gershayim-hb";
lastChange = "2013-03-12 15:04:28 +0200";
layers = (
{
layerId = UUID0;
name = "Light Italic";
paths = (
{
closed = 1;
nodes = (
"651 1290 LINE",
"624 1209 OFFCURVE",
"590 1122 OFFCURVE",
"547 1031 CURVE SMOOTH",
"505 940 OFFCURVE",
"462 860 OFFCURVE",
"418 789 CURVE",
"492 789 LINE",
"548 864 OFFCURVE",
"601 945 OFFCURVE",
"650 1032 CURVE SMOOTH",
"700 1119 OFFCURVE",
"739 1198 OFFCURVE",
"768 1268 CURVE",
"764 1290 LINE"
);
},
{
closed = 1;
nodes = (
"317 1290 LINE",
"290 1209 OFFCURVE",
"256 1122 OFFCURVE",
"213 1031 CURVE SMOOTH",
"171 940 OFFCURVE",
"128 860 OFFCURVE",
"84 789 CURVE",
"158 789 LINE",
"214 864 OFFCURVE",
"267 945 OFFCURVE",
"316 1032 CURVE SMOOTH",
"366 1119 OFFCURVE",
"405 1198 OFFCURVE",
"434 1268 CURVE",
"430 1290 LINE"
);
}
);
width = 631;
}
);
unicode = 05F4;
},
{
glyphname = "maqaf-hb";
lastChange = "2013-03-12 16:14:52 +0200";
layers = (
{
layerId = UUID0;
name = "Light Italic";
paths = (
{
closed = 1;
nodes = (
"250 1290 LINE",
"232 1200 LINE",
"691 1200 LINE",
"707 1290 LINE"
);
}
